<svg xmlns="http://www.w3.org/2000/svg" width="820" height="567" viewBox="0 0 820 567">
  <g id="_500_F_297060004_oK1lI0ztPPJHklUqaYiah7hdvJC49MZo" data-name="500_F_297060004_oK1lI0ztPPJHklUqaYiah7hdvJC49MZo" fill="none" stroke="#ff4c4c" stroke-width="4">
    <path d="M410,0h0A410,410,0,0,1,820,410V567a0,0,0,0,1,0,0H0a0,0,0,0,1,0,0V410A410,410,0,0,1,410,0Z" stroke="none"/>
    <path d="M410,2h0A408,408,0,0,1,818,410V564.182a.818.818,0,0,1-.818.818H2.818A.818.818,0,0,1,2,564.182V410A408,408,0,0,1,410,2Z" fill="none"/>
  </g>
</svg>
