<svg xmlns="http://www.w3.org/2000/svg" width="62.263" height="62.26" viewBox="0 0 62.263 62.26">
  <path id="Icon_awesome-facebook-square" data-name="Icon awesome-facebook-square" d="M55.592,2.25H6.671A6.671,6.671,0,0,0,0,8.921V57.839A6.671,6.671,0,0,0,6.671,64.51H25.746V43.343H16.99V33.38h8.756V25.786c0-8.637,5.142-13.408,13.018-13.408a53.046,53.046,0,0,1,7.716.673v8.477H42.135c-4.282,0-5.618,2.657-5.618,5.382V33.38h9.559l-1.529,9.963h-8.03V64.51H55.592a6.671,6.671,0,0,0,6.671-6.671V8.921A6.671,6.671,0,0,0,55.592,2.25Z" transform="translate(0 -2.25)" fill="#fff"/>
</svg>
