<svg xmlns="http://www.w3.org/2000/svg" width="1460.807" height="200.247" viewBox="0 0 1460.807 200.247">
  <g id="Component_48_1" data-name="Component 48 – 1" transform="translate(0 0.001)">
    <g id="Group_185" data-name="Group 185" transform="translate(1468.403 -16499.992)" opacity="0.27">
      <path id="Path_1221" data-name="Path 1221" d="M191.407,187.48c-1.889-1.2-4.322-.309-6.085-1.789a.259.259,0,0,0-.234-.293c-1.011-.644-2.015-.9-2.976.109a3.694,3.694,0,0,0-2.374,1.062c-3.293,3.469-5.015,7.456-3.795,12.3s3.527,8.284,9.061,8.359c2.508,1.028,4.949.242,7.373-.435a3.636,3.636,0,0,0,3.093-2.023c1.438-.635.878-2.056,1.078-3.084C197.534,196.558,194.884,189.653,191.407,187.48Zm-9.763,15.046c-2.215-2.081-2.683-5.341-2.357-8.209a5.45,5.45,0,0,1,4.179-4.765h1.889l1.087.067,1.814.167.836.276c4.531,2.976,4.3,7.59,4.179,12.162h0C190.563,204.282,184.051,204.75,181.644,202.526Zm12.4-.343a1.145,1.145,0,0,1,1.02.476,1.145,1.145,0,0,0-1.02-.518Zm1.128.66a2.04,2.04,0,0,1,.134.418,2.04,2.04,0,0,0-.15-.46Z" transform="translate(-1518.922 16333.729)" fill="#ff4c4c"/>
      <path id="Path_1222" data-name="Path 1222" d="M235.276,325.577c-2.984-2.992-6.5-5.091-11.017-4.748-.836.058-1.981.5-2.508-.326s.577-1.563,1.087-2.165c4.815-5.734,5.216-11.7,1.53-18.223-2.9-5.116-8.15-6.779-13.266-3.837-1.521.878-2.942,1.948-4.405,2.926l-1.212-.7a8.943,8.943,0,0,0,.468-4.088,2.182,2.182,0,0,0-.134-2.132c-.092-.46-.176-.919-.259-1.371a4.179,4.179,0,0,0-.978-3.344c-2.6-4.572-6.687-5.559-11.535-4.865-1.755.251-2.692,1.53-3.586,2.867a4.621,4.621,0,0,1,.485,0,2.508,2.508,0,0,1,.786.167.987.987,0,0,1,.267.176.987.987,0,0,0-.268-.176,2.508,2.508,0,0,0-.786-.167,4.621,4.621,0,0,0-.485,0l-.552.635-1.287.192v0c-2.942-5.283-7.732-7.281-12.789-5.224-5.584,2.265-11.385,8.744-9.721,15.23.359,1.4.192,2.24-1.747,1.672a15.121,15.121,0,0,0-15.088,3.427c-4.338,3.87-5.442,9.069-.084,13.2,2.416,1.856,4.756,3.812,7.74,6.211-10.758-.134-17.554,5.475-23.171,13.032a4.731,4.731,0,0,0-.9,2.758c-.226,5.141,6.294,9.563,11.009,7.473.644-.284.836-.134.836.535,0,.836.619.894,1.229.836q2.784-.15,5.567-.351c1.028-.075,2.315-1,3.009,0,.577.836-.685,1.672-1.12,2.508-2.809,5.383-4.355,10.975-2.717,17.044,1.379,5.107,5.325,8.133,9.738,10.031,3.185,1.371,6.461,4.363,10.791,1.062,1.371-1.045,3.344-1.814,4.656-3.268,1.672-1.839,2.015-4.539,3.8-6.319.945.585.635,1.488.777,2.215,1.02,5.015,2.65,9.63,7.615,12.3,4.664,2.508,9.044,1.421,13.124-1.053,3.344-2.04,3.845-5.667,3.728-9.329v-4.664c1.154,1.438,1.722,2.2,2.341,2.917,4.38,5.091,13.868,6.211,17.863-2.081a11.853,11.853,0,0,0-.4-11.544c-1.755-3.185-2.508-6.8-4.572-9.813-.727-1.053-.477-1.722.836-1.672,4.815.284,8.693-2.29,12.655-4.322C238.57,336.193,239.715,330.024,235.276,325.577Zm-32.249-16.593c2.658-4.179,5.935-7.69,10.582-9.83,2.926-1.346,5.107-.134,6.854,1.747,3.494,3.762,3.436,9.63.51,13.943-3.16,4.648-8.117,6.62-12.747,9.128-.761.41-1.321.593-1.58-.685a21.734,21.734,0,0,0-3.619-8.117c-.075-.836-.242-1.538-1.17-1.78C200.929,311.542,202.191,310.3,203.027,308.984Zm-13.249-8.693c.593-.46.476-2.315.159-3.344-.919-3.11-.134-5.784,1.563-8.359,1.112-1.062,1.923-2.449,3.344-3.2l2.909.293a1.145,1.145,0,0,0,1.17.577.217.217,0,0,0,.276.176h0l2.165,1.772h0a.3.3,0,0,0,.334.217h0c.794,4.648,1.312,9.3-.451,13.842-.836,2.1-1.814,4.129-2.65,6.227-.41,1.028-.886,1.262-1.973.836a14.72,14.72,0,0,0-6.687-.669c-1.379.15-2.015-.368-1.755-1.864.4-2.173-.777-4.639,1.622-6.5Zm-.777,11.7c8.978-.669,11.176,2.75,13.884,10.566.66,1.9.518,4.079.736,6.135-.836.836.1,1.58.067,2.374-.593,5.609-4.179,9.195-8.317,12.488a17.554,17.554,0,0,0-1.906,1.371c-3.954,4.129-8.685,3.151-13.433,2.106a.961.961,0,0,0-1.212-.51c-1.73-.619-2.432-2.742-4.388-3.026h-.092c.217-.836-.485-1.229-.936-1.739a5.208,5.208,0,0,0-2.157-3.009l-1.672.385,1.672-.385c-2.6-3.594-2.357-7.9-2.758-11.978-.209-2.048,1.271-4.179,2.583-5.408,5.04-4.815,10.708-8.81,17.955-9.354Zm-8.025-27.309c3.093,2.148,4.74,4.7,4.405,8.451-.393,4.355-.493,8.752-.568,13.132,0,1.956-.359,3.285-2.633,3.695-1.58.284-3.494,2.023-4.48,1.53-1.438-.711-2.257-2.784-3.193-4.363-1.429-2.441-3.3-4.581-4.43-7.239a15.5,15.5,0,0,1-1.321-5.617c-.752-4.932,8.1-12.438,12.246-9.571Zm-30.928,26.707c-2.357-2.407-2.349-3.728-.1-6.278,3.745-4.23,10.658-6.219,16.141-1.212,3.043,2.767,5.132,6.144,7.665,9.195.727.894.05,1.12-.476,1.571-1.3,1.12-2.566,2.3-3.845,3.444a1.939,1.939,0,0,0-1.2,1.672,2.558,2.558,0,0,1-3.77.97c-4.857-2.926-10.273-5.141-14.386-9.345Zm-5.935,30.928c-2.708.359-5.9-1.388-8.033-3.728-1.137-1.254-.251-2.65.585-3.753,4.606-6.035,10.44-9.93,18.256-10.34,2.232-.109,4.4-.619,6.687-.226,2.942.485,4.464,1.672,3.511,5.183,2.265,4.664-1.429,6.135-4.765,8.359-4.974,3.31-10.683,3.761-16.208,4.505ZM200.2,370.531c-.343,5.392-1.4,6.687-6.244,7.782-3.344.736-7.055-1.254-9-4.673-2.382-4.18-1.923-8.936-2.65-13.45-.242-1.546-.209-3.143-.577-4.656-.284-1.2-.761-2.458-2.508-2.265s-2.09,1.17-2.19,2.591a28.955,28.955,0,0,1-4.74,14.077c-2.6,3.9-3.853,4.179-8.359,2.725a19.126,19.126,0,0,1-8.2-4.84c-4.464-4.6-3.168-9.947-1.429-15.163,2.157-6.462,7.423-10.073,12.9-13.374.159-.1.535.167.836.259h0a2.825,2.825,0,0,0,1.429,1.755,10.072,10.072,0,0,0,2.792,3.5c1.989,1.1-.125,3.728,1.8,4.857,6.687,3.293,13.3,3.268,19.853-.359.527-.293,1.162-.677,1.354.234,1.454,7.013,5.45,13.466,4.974,21Zm18.582-17.972c.669,1.939,1.546,3.812,2.4,5.692,1.337,2.951.226,5.55-1.22,8.025-1.128,1.923-2.809,3.018-5.074,2.449-3.168.468-5.074-1.337-6.687-3.5-4.1-5.617-7-11.9-10.031-18.139-.51-1.053.117-1.145.585-1.538.836-.694,2.023-1.2,2.432-2.081,1.613-3.494,3.845-2.182,6.57-1.563,6.136,1.346,9.2,5.224,11.059,10.658Zm11.636-16.267c-7.205,4.664-14.745,4.472-22.469,1.5-1.446-.552-1.964-1.413-1.421-2.951a8.476,8.476,0,0,0,.092-4.363c.635-.426.318-1.2.627-1.747,2.951-.685,5.241-2.959,8.309-3.394,5.091-.719,10.181-2.215,14.979,1.237,4.681,3.344,4.714,6.6-.084,9.713Z" transform="translate(-1511.752 16318.05)" fill="#ff4c4c"/>
      <path id="Path_1223" data-name="Path 1223" d="M189.359,349.1c9.053.384,17.487-5.534,14.754-16.384-1.488-6.2-9.68-8.743-14.361-4.455-4.012.836-5.509,4.037-7.1,7.289C180.616,339.722,184.77,348.9,189.359,349.1Zm2.031-18.574c5.158-1.672,7.523-1,9.88,2.742,1.07,8.5-3.034,11.234-10.323,12.48a2.945,2.945,0,0,1-3.344-1.672c-3.327-5.626-2.332-9.421,3.787-13.55Z" transform="translate(-1520.001 16310.541)" fill="#ff4c4c"/>
      <path id="Path_1224" data-name="Path 1224" d="M129.4,228.256c-2.976-2.993-6.5-5.091-11.017-4.748-.836.059-1.981.51-2.508-.318s.577-1.571,1.078-2.173c4.815-5.726,5.224-11.7,1.538-18.214-2.909-5.124-8.15-6.787-13.266-3.837-1.53.836-2.942,1.939-4.414,2.926l-1.212-.711a9.036,9.036,0,0,0,.476-4.079,2.215,2.215,0,0,0-.142-2.14c-.092-.46-.176-.911-.259-1.371a4.179,4.179,0,0,0-.978-3.344c-2.6-4.581-6.687-5.567-11.535-4.865-1.755.242-2.692,1.53-3.586,2.859h.485a2.507,2.507,0,0,1,.786.167,1.112,1.112,0,0,1,.276.176,1.112,1.112,0,0,0-.276-.176,2.507,2.507,0,0,0-.786-.167h-.485l-.543.635-1.3.192v0c-2.942-5.283-7.732-7.272-12.789-5.224-5.584,2.265-11.385,8.743-9.713,15.238.359,1.4.184,2.232-1.755,1.672A15.163,15.163,0,0,0,42.4,204.182c-4.338,3.87-5.442,9.069-.084,13.2,2.416,1.864,4.756,3.812,7.74,6.211-10.75-.134-17.554,5.475-23.171,13.032a4.831,4.831,0,0,0-.9,2.758c-.226,5.141,6.294,9.571,11.009,7.473.644-.284.836-.134.836.543,0,.836.61.886,1.22.836q2.784-.151,5.567-.351c1.037-.075,2.315-1,3.009,0,.585.836-.685,1.672-1.12,2.508-2.742,5.341-4.288,10.975-2.65,17.044,1.371,5.1,5.325,8.133,9.73,10.031,3.193,1.379,6.461,4.363,10.791,1.062,1.371-1.036,3.344-1.814,4.656-3.26,1.672-1.839,2.015-4.547,3.8-6.328.945.593.635,1.488.777,2.215,1.02,5.015,2.65,9.638,7.615,12.3,4.664,2.508,9.044,1.421,13.132-1.053,3.344-2.04,3.837-5.659,3.728-9.329V268.4c1.154,1.446,1.722,2.207,2.341,2.926,4.38,5.082,13.868,6.211,17.863-2.081a11.87,11.87,0,0,0-.4-11.552c-1.755-3.176-2.508-6.8-4.572-9.813-.727-1.045-.468-1.714.836-1.672,4.806.276,8.685-2.29,12.647-4.33C132.706,238.872,133.826,232.7,129.4,228.256ZM97.181,211.663c2.658-4.179,5.935-7.69,10.582-9.83,2.926-1.346,5.107-.134,6.854,1.747,3.494,3.762,3.436,9.63.51,13.943-3.16,4.648-8.117,6.62-12.739,9.128-.769.418-1.329.593-1.588-.685a21.567,21.567,0,0,0-3.645-8.142c-.084-.836-.251-1.538-1.17-1.772C95.057,214.229,96.336,212.984,97.181,211.663ZM83.932,202.97c.593-.46.476-2.315.159-3.344a9.555,9.555,0,0,1,1.563-8.359c1.112-1.062,1.923-2.449,3.344-3.2l2.909.3a1.187,1.187,0,0,0,1.17.577.234.234,0,0,0,.276.176h0l2.173,1.772h0a.309.309,0,0,0,.334.217h0c.836,4.639,1.321,9.287-.451,13.834-.836,2.1-1.814,4.129-2.65,6.227-.41,1.037-.886,1.262-1.973.836a14.6,14.6,0,0,0-6.687-.669c-1.379.142-2.015-.376-1.747-1.864.368-2.173-.811-4.639,1.58-6.5Zm-.777,11.7c8.978-.669,11.176,2.75,13.893,10.566.66,1.906.51,4.088.727,6.135-.836.836.1,1.58.067,2.374-.593,5.617-4.179,9.237-8.359,12.488a18.723,18.723,0,0,0-1.906,1.371c-3.954,4.129-8.685,3.151-13.433,2.106a.97.97,0,0,0-1.2-.51c-1.739-.619-2.432-2.733-4.4-3.026h-.092c.217-.836-.476-1.237-.936-1.739a5.158,5.158,0,0,0-2.157-3.009l-1.672.385,1.672-.385c-2.6-3.6-2.357-7.908-2.758-11.987-.2-2.048,1.271-4.179,2.591-5.408,5.057-4.806,10.716-8.8,17.963-9.345Zm-8.025-27.3c3.1,2.14,4.74,4.689,4.405,8.443-.393,4.363-.493,8.752-.568,13.14,0,1.948-.351,3.277-2.625,3.686-1.588.284-3.494,2.023-4.48,1.538-1.446-.711-2.265-2.792-3.2-4.372-1.421-2.441-3.344-4.572-4.422-7.239a15.3,15.3,0,0,1-1.329-5.634c-.777-4.915,8.075-12.413,12.221-9.546ZM44.2,214.071c-2.357-2.407-2.349-3.728-.1-6.278,3.745-4.23,10.658-6.219,16.15-1.212,3.034,2.767,5.124,6.144,7.657,9.245.727.886.059,1.12-.468,1.572-1.312,1.112-2.575,2.29-3.853,3.444a1.914,1.914,0,0,0-1.2,1.672,2.558,2.558,0,0,1-3.795,1c-4.857-3-10.273-5.224-14.386-9.429ZM38.267,245c-2.708.368-5.9-1.388-8.033-3.728-1.137-1.245-.251-2.65.585-3.745,4.606-6.044,10.44-9.939,18.256-10.34,2.232-.117,4.4-.619,6.687-.234,2.934.493,4.455,1.672,3.5,5.183,2.274,4.673-1.429,6.144-4.765,8.359-4.974,3.31-10.7,3.77-16.225,4.505ZM94.355,273.21c-.343,5.392-1.4,6.687-6.244,7.782-3.344.736-7.055-1.245-9-4.673-2.382-4.18-1.923-8.936-2.641-13.441-.251-1.546-.217-3.151-.577-4.664-.293-1.2-.769-2.449-2.508-2.265s-2.09,1.17-2.19,2.591a28.755,28.755,0,0,1-4.74,14.077c-2.6,3.9-3.854,4.179-8.359,2.733a19.268,19.268,0,0,1-8.192-4.84c-4.472-4.606-3.176-9.956-1.438-15.163,2.157-6.461,7.423-10.081,12.906-13.416.15-.1.527.167.836.259h0a2.834,2.834,0,0,0,1.429,1.755,10.073,10.073,0,0,0,2.792,3.5c1.989,1.1-.125,3.728,1.8,4.857,6.687,3.293,13.3,3.277,19.853-.351.535-.3,1.162-.677,1.354.226,1.413,7.047,5.408,13.508,4.932,21.031Zm18.574-17.972c.669,1.948,1.546,3.82,2.4,5.692,1.337,2.959.226,5.55-1.22,8.033-1.128,1.914-2.809,3.009-5.074,2.441-3.16.468-5.074-1.337-6.687-3.5-4.1-5.617-7-11.9-10.031-18.131-.51-1.062.117-1.154.585-1.546.836-.694,2.031-1.2,2.432-2.081,1.613-3.486,3.845-2.173,6.57-1.563C108.006,245.935,111.09,249.814,112.929,255.239Zm11.652-16.225c-7.205,4.664-14.745,4.472-22.469,1.513-1.438-.56-1.964-1.421-1.421-2.959a8.451,8.451,0,0,0,.092-4.355c.635-.435.326-1.2.635-1.755,2.951-.677,5.233-2.959,8.3-3.394,5.091-.719,10.181-2.215,14.979,1.237C129.346,232.6,129.379,235.862,124.581,239.014Z" transform="translate(-1494.376 16334.021)" fill="#ff4c4c"/>
      <path id="Path_1225" data-name="Path 1225" d="M83.489,251.781c9.053.393,17.487-5.534,14.762-16.384-1.5-6.2-9.688-8.743-14.369-4.455-4.012.836-5.509,4.037-7.1,7.3C74.746,242.4,78.9,251.589,83.489,251.781Zm2.031-18.565c5.157-1.672,7.523-1,9.88,2.742,1.07,8.493-3.034,11.226-10.323,12.472a2.945,2.945,0,0,1-3.344-1.672c-3.327-5.617-2.349-9.429,3.787-13.542Z" transform="translate(-1502.627 16326.512)" fill="#ff4c4c"/>
      <path id="Path_1226" data-name="Path 1226" d="M72.715,344.223c-4.9-6.771-11.627-9.145-19.719-7.841-2.416.385-4.38,2.148-6.587,2.992-6.177,2.382-8.894,7.323-10.867,13.023a15.606,15.606,0,0,0-.134,13.132c1.672,3.945,5.283,6.119,7.456,9.529a18.582,18.582,0,0,0,9.245,3.285c9.713.936,17.253-2.508,22.377-10.959C78.4,360.9,77.722,351.136,72.715,344.223Zm-12.3,29.783c-5.751,1.588-10.984.995-15.882-2.391-1.187-1.388-2.307-2.85-3.586-4.179a13.3,13.3,0,0,1-3.77-7.916l.426-3.5a1.571,1.571,0,0,0,.443-1.446c.293-.694.978-1.329.276-2.148h0l.184-.159-.059-.234c1.881-1.212,2.566-3.344,3.72-5.066,5.927-8.877,21.733-10.666,28.036-.752S73.835,370.278,60.41,374.006Z" transform="translate(-1495.698 16308.915)" fill="#ff4c4c"/>
      <path id="Path_1227" data-name="Path 1227" d="M58.458,345.971c-7.139-1.036-12.346,3.444-12.363,11.3-.3,5.1,1.948,9.7,6.553,13.048,1.847,1.337,4.606,2.508,6.227.836,4.414-4.656,7.348-10.19,6.587-16.969C65.028,350.326,61.626,346.439,58.458,345.971ZM61.893,356c-.184,3.41-.936,6.754-3.26,9.5-2.073,2.449-4.748,2.366-6.52-.334-1.563-2.374-3.018-4.84-2.458-7.64-.109-5.116,2.157-7.9,6.286-8A6.06,6.06,0,0,1,61.893,356Z" transform="translate(-1497.674 16307.311)" fill="#ff4c4c"/>
    </g>
    <g id="Group_186" data-name="Group 186" transform="translate(2734.584 -16517.074)" opacity="0.27">
      <path id="Path_1221-2" data-name="Path 1221" d="M191.407,187.48c-1.889-1.2-4.322-.309-6.085-1.789a.259.259,0,0,0-.234-.293c-1.011-.644-2.015-.9-2.976.109a3.694,3.694,0,0,0-2.374,1.062c-3.293,3.469-5.015,7.456-3.795,12.3s3.527,8.284,9.061,8.359c2.508,1.028,4.949.242,7.373-.435a3.636,3.636,0,0,0,3.093-2.023c1.438-.635.878-2.056,1.078-3.084C197.534,196.558,194.884,189.653,191.407,187.48Zm-9.763,15.046c-2.215-2.081-2.683-5.341-2.357-8.209a5.45,5.45,0,0,1,4.179-4.765h1.889l1.087.067,1.814.167.836.276c4.531,2.976,4.3,7.59,4.179,12.162h0C190.563,204.282,184.051,204.75,181.644,202.526Zm12.4-.343a1.145,1.145,0,0,1,1.02.476,1.145,1.145,0,0,0-1.02-.518Zm1.128.66a2.04,2.04,0,0,1,.134.418,2.04,2.04,0,0,0-.15-.46Z" transform="translate(-1518.922 16333.729)" fill="#ff4c4c"/>
      <path id="Path_1222-2" data-name="Path 1222" d="M235.276,325.577c-2.984-2.992-6.5-5.091-11.017-4.748-.836.058-1.981.5-2.508-.326s.577-1.563,1.087-2.165c4.815-5.734,5.216-11.7,1.53-18.223-2.9-5.116-8.15-6.779-13.266-3.837-1.521.878-2.942,1.948-4.405,2.926l-1.212-.7a8.943,8.943,0,0,0,.468-4.088,2.182,2.182,0,0,0-.134-2.132c-.092-.46-.176-.919-.259-1.371a4.179,4.179,0,0,0-.978-3.344c-2.6-4.572-6.687-5.559-11.535-4.865-1.755.251-2.692,1.53-3.586,2.867a4.621,4.621,0,0,1,.485,0,2.508,2.508,0,0,1,.786.167.987.987,0,0,1,.267.176.987.987,0,0,0-.268-.176,2.508,2.508,0,0,0-.786-.167,4.621,4.621,0,0,0-.485,0l-.552.635-1.287.192v0c-2.942-5.283-7.732-7.281-12.789-5.224-5.584,2.265-11.385,8.744-9.721,15.23.359,1.4.192,2.24-1.747,1.672a15.121,15.121,0,0,0-15.088,3.427c-4.338,3.87-5.442,9.069-.084,13.2,2.416,1.856,4.756,3.812,7.74,6.211-10.758-.134-17.554,5.475-23.171,13.032a4.731,4.731,0,0,0-.9,2.758c-.226,5.141,6.294,9.563,11.009,7.473.644-.284.836-.134.836.535,0,.836.619.894,1.229.836q2.784-.15,5.567-.351c1.028-.075,2.315-1,3.009,0,.577.836-.685,1.672-1.12,2.508-2.809,5.383-4.355,10.975-2.717,17.044,1.379,5.107,5.325,8.133,9.738,10.031,3.185,1.371,6.461,4.363,10.791,1.062,1.371-1.045,3.344-1.814,4.656-3.268,1.672-1.839,2.015-4.539,3.8-6.319.945.585.635,1.488.777,2.215,1.02,5.015,2.65,9.63,7.615,12.3,4.664,2.508,9.044,1.421,13.124-1.053,3.344-2.04,3.845-5.667,3.728-9.329v-4.664c1.154,1.438,1.722,2.2,2.341,2.917,4.38,5.091,13.868,6.211,17.863-2.081a11.853,11.853,0,0,0-.4-11.544c-1.755-3.185-2.508-6.8-4.572-9.813-.727-1.053-.477-1.722.836-1.672,4.815.284,8.693-2.29,12.655-4.322C238.57,336.193,239.715,330.024,235.276,325.577Zm-32.249-16.593c2.658-4.179,5.935-7.69,10.582-9.83,2.926-1.346,5.107-.134,6.854,1.747,3.494,3.762,3.436,9.63.51,13.943-3.16,4.648-8.117,6.62-12.747,9.128-.761.41-1.321.593-1.58-.685a21.734,21.734,0,0,0-3.619-8.117c-.075-.836-.242-1.538-1.17-1.78C200.929,311.542,202.191,310.3,203.027,308.984Zm-13.249-8.693c.593-.46.476-2.315.159-3.344-.919-3.11-.134-5.784,1.563-8.359,1.112-1.062,1.923-2.449,3.344-3.2l2.909.293a1.145,1.145,0,0,0,1.17.577.217.217,0,0,0,.276.176h0l2.165,1.772h0a.3.3,0,0,0,.334.217h0c.794,4.648,1.312,9.3-.451,13.842-.836,2.1-1.814,4.129-2.65,6.227-.41,1.028-.886,1.262-1.973.836a14.72,14.72,0,0,0-6.687-.669c-1.379.15-2.015-.368-1.755-1.864.4-2.173-.777-4.639,1.622-6.5Zm-.777,11.7c8.978-.669,11.176,2.75,13.884,10.566.66,1.9.518,4.079.736,6.135-.836.836.1,1.58.067,2.374-.593,5.609-4.179,9.195-8.317,12.488a17.554,17.554,0,0,0-1.906,1.371c-3.954,4.129-8.685,3.151-13.433,2.106a.961.961,0,0,0-1.212-.51c-1.73-.619-2.432-2.742-4.388-3.026h-.092c.217-.836-.485-1.229-.936-1.739a5.208,5.208,0,0,0-2.157-3.009l-1.672.385,1.672-.385c-2.6-3.594-2.357-7.9-2.758-11.978-.209-2.048,1.271-4.179,2.583-5.408,5.04-4.815,10.708-8.81,17.955-9.354Zm-8.025-27.309c3.093,2.148,4.74,4.7,4.405,8.451-.393,4.355-.493,8.752-.568,13.132,0,1.956-.359,3.285-2.633,3.695-1.58.284-3.494,2.023-4.48,1.53-1.438-.711-2.257-2.784-3.193-4.363-1.429-2.441-3.3-4.581-4.43-7.239a15.5,15.5,0,0,1-1.321-5.617c-.752-4.932,8.1-12.438,12.246-9.571Zm-30.928,26.707c-2.357-2.407-2.349-3.728-.1-6.278,3.745-4.23,10.658-6.219,16.141-1.212,3.043,2.767,5.132,6.144,7.665,9.195.727.894.05,1.12-.476,1.571-1.3,1.12-2.566,2.3-3.845,3.444a1.939,1.939,0,0,0-1.2,1.672,2.558,2.558,0,0,1-3.77.97c-4.857-2.926-10.273-5.141-14.386-9.345Zm-5.935,30.928c-2.708.359-5.9-1.388-8.033-3.728-1.137-1.254-.251-2.65.585-3.753,4.606-6.035,10.44-9.93,18.256-10.34,2.232-.109,4.4-.619,6.687-.226,2.942.485,4.464,1.672,3.511,5.183,2.265,4.664-1.429,6.135-4.765,8.359-4.974,3.31-10.683,3.761-16.208,4.505ZM200.2,370.531c-.343,5.392-1.4,6.687-6.244,7.782-3.344.736-7.055-1.254-9-4.673-2.382-4.18-1.923-8.936-2.65-13.45-.242-1.546-.209-3.143-.577-4.656-.284-1.2-.761-2.458-2.508-2.265s-2.09,1.17-2.19,2.591a28.955,28.955,0,0,1-4.74,14.077c-2.6,3.9-3.853,4.179-8.359,2.725a19.126,19.126,0,0,1-8.2-4.84c-4.464-4.6-3.168-9.947-1.429-15.163,2.157-6.462,7.423-10.073,12.9-13.374.159-.1.535.167.836.259h0a2.825,2.825,0,0,0,1.429,1.755,10.072,10.072,0,0,0,2.792,3.5c1.989,1.1-.125,3.728,1.8,4.857,6.687,3.293,13.3,3.268,19.853-.359.527-.293,1.162-.677,1.354.234,1.454,7.013,5.45,13.466,4.974,21Zm18.582-17.972c.669,1.939,1.546,3.812,2.4,5.692,1.337,2.951.226,5.55-1.22,8.025-1.128,1.923-2.809,3.018-5.074,2.449-3.168.468-5.074-1.337-6.687-3.5-4.1-5.617-7-11.9-10.031-18.139-.51-1.053.117-1.145.585-1.538.836-.694,2.023-1.2,2.432-2.081,1.613-3.494,3.845-2.182,6.57-1.563,6.136,1.346,9.2,5.224,11.059,10.658Zm11.636-16.267c-7.205,4.664-14.745,4.472-22.469,1.5-1.446-.552-1.964-1.413-1.421-2.951a8.476,8.476,0,0,0,.092-4.363c.635-.426.318-1.2.627-1.747,2.951-.685,5.241-2.959,8.309-3.394,5.091-.719,10.181-2.215,14.979,1.237,4.681,3.344,4.714,6.6-.084,9.713Z" transform="translate(-1511.752 16318.05)" fill="#ff4c4c"/>
      <path id="Path_1223-2" data-name="Path 1223" d="M189.359,349.1c9.053.384,17.487-5.534,14.754-16.384-1.488-6.2-9.68-8.743-14.361-4.455-4.012.836-5.509,4.037-7.1,7.289C180.616,339.722,184.77,348.9,189.359,349.1Zm2.031-18.574c5.158-1.672,7.523-1,9.88,2.742,1.07,8.5-3.034,11.234-10.323,12.48a2.945,2.945,0,0,1-3.344-1.672c-3.327-5.626-2.332-9.421,3.787-13.55Z" transform="translate(-1520.001 16310.541)" fill="#ff4c4c"/>
      <path id="Path_1224-2" data-name="Path 1224" d="M129.4,228.256c-2.976-2.993-6.5-5.091-11.017-4.748-.836.059-1.981.51-2.508-.318s.577-1.571,1.078-2.173c4.815-5.726,5.224-11.7,1.538-18.214-2.909-5.124-8.15-6.787-13.266-3.837-1.53.836-2.942,1.939-4.414,2.926l-1.212-.711a9.036,9.036,0,0,0,.476-4.079,2.215,2.215,0,0,0-.142-2.14c-.092-.46-.176-.911-.259-1.371a4.179,4.179,0,0,0-.978-3.344c-2.6-4.581-6.687-5.567-11.535-4.865-1.755.242-2.692,1.53-3.586,2.859h.485a2.507,2.507,0,0,1,.786.167,1.112,1.112,0,0,1,.276.176,1.112,1.112,0,0,0-.276-.176,2.507,2.507,0,0,0-.786-.167h-.485l-.543.635-1.3.192v0c-2.942-5.283-7.732-7.272-12.789-5.224-5.584,2.265-11.385,8.743-9.713,15.238.359,1.4.184,2.232-1.755,1.672A15.163,15.163,0,0,0,42.4,204.182c-4.338,3.87-5.442,9.069-.084,13.2,2.416,1.864,4.756,3.812,7.74,6.211-10.75-.134-17.554,5.475-23.171,13.032a4.831,4.831,0,0,0-.9,2.758c-.226,5.141,6.294,9.571,11.009,7.473.644-.284.836-.134.836.543,0,.836.61.886,1.22.836q2.784-.151,5.567-.351c1.037-.075,2.315-1,3.009,0,.585.836-.685,1.672-1.12,2.508-2.742,5.341-4.288,10.975-2.65,17.044,1.371,5.1,5.325,8.133,9.73,10.031,3.193,1.379,6.461,4.363,10.791,1.062,1.371-1.036,3.344-1.814,4.656-3.26,1.672-1.839,2.015-4.547,3.8-6.328.945.593.635,1.488.777,2.215,1.02,5.015,2.65,9.638,7.615,12.3,4.664,2.508,9.044,1.421,13.132-1.053,3.344-2.04,3.837-5.659,3.728-9.329V268.4c1.154,1.446,1.722,2.207,2.341,2.926,4.38,5.082,13.868,6.211,17.863-2.081a11.87,11.87,0,0,0-.4-11.552c-1.755-3.176-2.508-6.8-4.572-9.813-.727-1.045-.468-1.714.836-1.672,4.806.276,8.685-2.29,12.647-4.33C132.706,238.872,133.826,232.7,129.4,228.256ZM97.181,211.663c2.658-4.179,5.935-7.69,10.582-9.83,2.926-1.346,5.107-.134,6.854,1.747,3.494,3.762,3.436,9.63.51,13.943-3.16,4.648-8.117,6.62-12.739,9.128-.769.418-1.329.593-1.588-.685a21.567,21.567,0,0,0-3.645-8.142c-.084-.836-.251-1.538-1.17-1.772C95.057,214.229,96.336,212.984,97.181,211.663ZM83.932,202.97c.593-.46.476-2.315.159-3.344a9.555,9.555,0,0,1,1.563-8.359c1.112-1.062,1.923-2.449,3.344-3.2l2.909.3a1.187,1.187,0,0,0,1.17.577.234.234,0,0,0,.276.176h0l2.173,1.772h0a.309.309,0,0,0,.334.217h0c.836,4.639,1.321,9.287-.451,13.834-.836,2.1-1.814,4.129-2.65,6.227-.41,1.037-.886,1.262-1.973.836a14.6,14.6,0,0,0-6.687-.669c-1.379.142-2.015-.376-1.747-1.864.368-2.173-.811-4.639,1.58-6.5Zm-.777,11.7c8.978-.669,11.176,2.75,13.893,10.566.66,1.906.51,4.088.727,6.135-.836.836.1,1.58.067,2.374-.593,5.617-4.179,9.237-8.359,12.488a18.723,18.723,0,0,0-1.906,1.371c-3.954,4.129-8.685,3.151-13.433,2.106a.97.97,0,0,0-1.2-.51c-1.739-.619-2.432-2.733-4.4-3.026h-.092c.217-.836-.476-1.237-.936-1.739a5.158,5.158,0,0,0-2.157-3.009l-1.672.385,1.672-.385c-2.6-3.6-2.357-7.908-2.758-11.987-.2-2.048,1.271-4.179,2.591-5.408,5.057-4.806,10.716-8.8,17.963-9.345Zm-8.025-27.3c3.1,2.14,4.74,4.689,4.405,8.443-.393,4.363-.493,8.752-.568,13.14,0,1.948-.351,3.277-2.625,3.686-1.588.284-3.494,2.023-4.48,1.538-1.446-.711-2.265-2.792-3.2-4.372-1.421-2.441-3.344-4.572-4.422-7.239a15.3,15.3,0,0,1-1.329-5.634c-.777-4.915,8.075-12.413,12.221-9.546ZM44.2,214.071c-2.357-2.407-2.349-3.728-.1-6.278,3.745-4.23,10.658-6.219,16.15-1.212,3.034,2.767,5.124,6.144,7.657,9.245.727.886.059,1.12-.468,1.572-1.312,1.112-2.575,2.29-3.853,3.444a1.914,1.914,0,0,0-1.2,1.672,2.558,2.558,0,0,1-3.795,1c-4.857-3-10.273-5.224-14.386-9.429ZM38.267,245c-2.708.368-5.9-1.388-8.033-3.728-1.137-1.245-.251-2.65.585-3.745,4.606-6.044,10.44-9.939,18.256-10.34,2.232-.117,4.4-.619,6.687-.234,2.934.493,4.455,1.672,3.5,5.183,2.274,4.673-1.429,6.144-4.765,8.359-4.974,3.31-10.7,3.77-16.225,4.505ZM94.355,273.21c-.343,5.392-1.4,6.687-6.244,7.782-3.344.736-7.055-1.245-9-4.673-2.382-4.18-1.923-8.936-2.641-13.441-.251-1.546-.217-3.151-.577-4.664-.293-1.2-.769-2.449-2.508-2.265s-2.09,1.17-2.19,2.591a28.755,28.755,0,0,1-4.74,14.077c-2.6,3.9-3.854,4.179-8.359,2.733a19.268,19.268,0,0,1-8.192-4.84c-4.472-4.606-3.176-9.956-1.438-15.163,2.157-6.461,7.423-10.081,12.906-13.416.15-.1.527.167.836.259h0a2.834,2.834,0,0,0,1.429,1.755,10.073,10.073,0,0,0,2.792,3.5c1.989,1.1-.125,3.728,1.8,4.857,6.687,3.293,13.3,3.277,19.853-.351.535-.3,1.162-.677,1.354.226,1.413,7.047,5.408,13.508,4.932,21.031Zm18.574-17.972c.669,1.948,1.546,3.82,2.4,5.692,1.337,2.959.226,5.55-1.22,8.033-1.128,1.914-2.809,3.009-5.074,2.441-3.16.468-5.074-1.337-6.687-3.5-4.1-5.617-7-11.9-10.031-18.131-.51-1.062.117-1.154.585-1.546.836-.694,2.031-1.2,2.432-2.081,1.613-3.486,3.845-2.173,6.57-1.563C108.006,245.935,111.09,249.814,112.929,255.239Zm11.652-16.225c-7.205,4.664-14.745,4.472-22.469,1.513-1.438-.56-1.964-1.421-1.421-2.959a8.451,8.451,0,0,0,.092-4.355c.635-.435.326-1.2.635-1.755,2.951-.677,5.233-2.959,8.3-3.394,5.091-.719,10.181-2.215,14.979,1.237C129.346,232.6,129.379,235.862,124.581,239.014Z" transform="translate(-1494.376 16334.021)" fill="#ff4c4c"/>
      <path id="Path_1225-2" data-name="Path 1225" d="M83.489,251.781c9.053.393,17.487-5.534,14.762-16.384-1.5-6.2-9.688-8.743-14.369-4.455-4.012.836-5.509,4.037-7.1,7.3C74.746,242.4,78.9,251.589,83.489,251.781Zm2.031-18.565c5.157-1.672,7.523-1,9.88,2.742,1.07,8.493-3.034,11.226-10.323,12.472a2.945,2.945,0,0,1-3.344-1.672c-3.327-5.617-2.349-9.429,3.787-13.542Z" transform="translate(-1502.627 16326.512)" fill="#ff4c4c"/>
      <path id="Path_1226-2" data-name="Path 1226" d="M72.715,344.223c-4.9-6.771-11.627-9.145-19.719-7.841-2.416.385-4.38,2.148-6.587,2.992-6.177,2.382-8.894,7.323-10.867,13.023a15.606,15.606,0,0,0-.134,13.132c1.672,3.945,5.283,6.119,7.456,9.529a18.582,18.582,0,0,0,9.245,3.285c9.713.936,17.253-2.508,22.377-10.959C78.4,360.9,77.722,351.136,72.715,344.223Zm-12.3,29.783c-5.751,1.588-10.984.995-15.882-2.391-1.187-1.388-2.307-2.85-3.586-4.179a13.3,13.3,0,0,1-3.77-7.916l.426-3.5a1.571,1.571,0,0,0,.443-1.446c.293-.694.978-1.329.276-2.148h0l.184-.159-.059-.234c1.881-1.212,2.566-3.344,3.72-5.066,5.927-8.877,21.733-10.666,28.036-.752S73.835,370.278,60.41,374.006Z" transform="translate(-1495.698 16308.915)" fill="#ff4c4c"/>
      <path id="Path_1227-2" data-name="Path 1227" d="M58.458,345.971c-7.139-1.036-12.346,3.444-12.363,11.3-.3,5.1,1.948,9.7,6.553,13.048,1.847,1.337,4.606,2.508,6.227.836,4.414-4.656,7.348-10.19,6.587-16.969C65.028,350.326,61.626,346.439,58.458,345.971ZM61.893,356c-.184,3.41-.936,6.754-3.26,9.5-2.073,2.449-4.748,2.366-6.52-.334-1.563-2.374-3.018-4.84-2.458-7.64-.109-5.116,2.157-7.9,6.286-8A6.06,6.06,0,0,1,61.893,356Z" transform="translate(-1497.674 16307.311)" fill="#ff4c4c"/>
    </g>
  </g>
</svg>
