<svg xmlns="http://www.w3.org/2000/svg" width="54.914" height="73.219" viewBox="0 0 54.914 73.219">
  <path id="Icon_awesome-file-download" data-name="Icon awesome-file-download" d="M32.033,19.449V0H3.432A3.424,3.424,0,0,0,0,3.432V69.787a3.424,3.424,0,0,0,3.432,3.432h48.05a3.424,3.424,0,0,0,3.432-3.432V22.881H35.465A3.442,3.442,0,0,1,32.033,19.449ZM42.966,49.674,29.177,63.36a2.438,2.438,0,0,1-3.438,0L11.951,49.674a2.287,2.287,0,0,1,1.609-3.913h9.321V34.321a2.287,2.287,0,0,1,2.288-2.288h4.576a2.287,2.287,0,0,1,2.288,2.288v11.44h9.321A2.289,2.289,0,0,1,42.966,49.674ZM53.913,15.016,39.913,1a3.43,3.43,0,0,0-2.431-1h-.872V18.3h18.3v-.872A3.421,3.421,0,0,0,53.913,15.016Z" fill="#043052"/>
</svg>
