<svg xmlns="http://www.w3.org/2000/svg" width="806.268" height="806.318" viewBox="0 0 806.268 806.318">
  <g id="Group_184" data-name="Group 184" transform="matrix(0.035, -0.999, 0.999, 0.035, -17268.873, -1299.063)" opacity="0.17">
    <path id="Path_1166" data-name="Path 1166" d="M270.79,971h0a.565.565,0,0,0-.33.136l.349-.116Z" transform="translate(-1263.589 17009.186)" fill="#043052"/>
    <path id="Path_1167" data-name="Path 1167" d="M176.43,971.019l.369.136a.505.505,0,0,0-.35-.175h0Z" transform="translate(-1352.166 17009.166)" fill="#043052"/>
    <path id="Path_1168" data-name="Path 1168" d="M89.934,884.433a.621.621,0,0,0-.194-.233.949.949,0,0,0,.155.233Z" transform="translate(-1433.828 16927.42)" fill="#043052"/>
    <path id="Path_1169" data-name="Path 1169" d="M792.06,1064.568c-1.942-9.263-8.156-15.42-14.118-21.75a190.253,190.253,0,0,0-14.351-12.681l-2.777.214c-.719,2.816.777,4.661,2.719,6.311a149.519,149.519,0,0,1,18.76,18.177,33.014,33.014,0,0,1,6.253,14.759c1.806,8.817,5.243,17.167,7.088,25.926a92.009,92.009,0,0,1-.291,39.267c-1.359,6.137-1.748,12.409-3.612,18.488-3.068,9.943-9.089,18.371-13.342,27.673s-10.662,16.313-16.915,23.673a90.945,90.945,0,0,1-40.782,28.1c-5.515,1.942-11.283,3.282-16.235,6.72-1.107.777-2.952.369-4.389.777-11.963,3.34-23.925,6.176-36.568,5.943-4.933,0-9.9-.252-14.876-.194-12.138.175-20.6-4.078-24.722-17.924-3.515-11.769-11.866-20.139-20.915-27.868a2.661,2.661,0,0,0-2.525-.583c-.116,1.554-.66,2.311-1.942.738a15.754,15.754,0,0,1-1.456-3.049l-7.38-2.6c-.6.252-1.185.466-1.651-.252-3.748,0-6.195-1.728-6.156-5.69,0-5.515-4.525-9.71-3.884-15.419a1.223,1.223,0,0,1-.427-1.592l-.272-1.534a1.262,1.262,0,0,1-.427-1.554c-1.01-3.884-2.039-7.768-3.049-11.652-.486-.66-1.457-1.146-.816-2.233-.874-3.5-1.573-7.03-2.66-10.448a3.068,3.068,0,0,1,1.942-4.486,220.882,220.882,0,0,1,22.1-8.273c2.932-.932,5.671-2.272,8.584-3.224,10.293-3.34,20.954-4.564,31.557-6.1,5.671-.816,11.147.7,16.662,1.69a1.806,1.806,0,0,1,1.573,1.942c.486,5.476,4.389,8.078,8.681,10.37,2.563,1.379,5.107,2.8,8.079,4.408-2.719,1.942-5.418,1.651-7.943,1.67-4.971,0-9.71.544-13.749,3.884s-3.884,7.341.738,10.2c4.971,3.107,10.506,2.661,15.963,2.738h1.825c.641,1.476-.563,1.942-1.223,2.6-4.933,4.428-6.719,10.448-8.584,16.468-.8,2.563.233,4.039,2.292,5.457,4.6,3.166,9.457,2.505,14.817.874-.719,2.835-1.418,5.108-1.845,7.438-.544,2.932.408,5.049,3.67,5.632,10.623,1.845,18.216.932,23.5-9.38a37.849,37.849,0,0,0,4.117-9.438c1.942,3.262,3.593,5.981,5.166,8.758a24.235,24.235,0,0,0,13.089,11.807c2.661.913,4.195,0,5.826-1.942a20.722,20.722,0,0,0,4.059-19.847c-.874-3.224-1.185-6.583-1.806-9.865-.136-.719-.835-1.476-.155-2.156s1.631.136,2.408.369c3.534,1.126,6.816,2.952,10.584,3.437,6.622.874,11.419-1.651,12.856-6.933,2.486-9.05.757-13.4-6.234-16.546a99.509,99.509,0,0,0-16.546-6.02c3.593-1.67,6.292-3.146,9.127-4.175,3.573-1.3,6.35-3.884,9.516-5.826,4.389-2.68,6.583-13.594,4.234-18.352-1.4-2.777-6.176-4.447-10.254-3.535a63,63,0,0,0-23.6,11.652c-1.69-7.108-3.573-13.983-4.933-20.974s-8.292-13.167-14.526-12.992a11.458,11.458,0,0,0-11.652,13.477,9.906,9.906,0,0,1,.427,4.447,45.775,45.775,0,0,0-9.516-6.37,29.126,29.126,0,0,0-8.622-3.185c-5.379-.854-8.079.719-10.468,5.612a6.506,6.506,0,0,0,.913,7.768c2.272,2.621,4.6,5.185,6.913,7.768.7.816,2.583.757,2.233,2.369a.5.5,0,0,1,.563-.116c.175,0,.272.369.408.563l-1.049-.136a.368.368,0,0,0,0,.136v-.136l-4.214-1.631c-4.719-.33-9.477-.952-13.458,2.622-1.146,1.029-2.272,0-3.029-.757-1.185-1.126-3.107-1.185-3.884-2.835a6.991,6.991,0,0,1-4.583-4.622c-4.952-5.049-8.428-11.244-12.8-16.759a121.144,121.144,0,0,1-9.166-14.119c-.505-.835-1.5-1.728-.757-2.738s1.845-.349,2.816,0c1.709.544,3.418,1.049,5.146,1.573a1.126,1.126,0,0,1,1.631.194c5.981.757,11.283,0,14-6.409.117-.291.854-.33,1.32-.485.427-.68,1.01-.563,1.612-.272l9.963-1.321c.738-.641,1.573-.349,2.408-.233l2.991-.563a1.146,1.146,0,0,1,1.631-.369l6.137-1.049c.68-.8,1.534-.6,2.369-.447a2.913,2.913,0,0,1,2.214-.447c.35-.854,1.029-.563,1.651-.466a90.332,90.332,0,0,1,14.623-4.875c.369-.757.99-.563,1.612-.427a49.552,49.552,0,0,1,9.4-3.573c.757-1.942,2.427-.971,3.729-1.068a4.154,4.154,0,0,1,3.34-1.146,2.66,2.66,0,0,1,2.855-1.087l6.778-2.661a2.6,2.6,0,0,1,3.263-1.282,2.719,2.719,0,0,1,2.291-1.029c.253-.932.913-.738,1.573-.6l10.079-4.739c.757-1.088,1.456-2.253,3.068-2.1l.757-.233a7.767,7.767,0,0,1,6.195-3.884c4.544-2.6,8.312-6.506,13.594-7.943l1.748-2.175v-2.932l-1.748-2.214c-5.243-1.4-8.972-5.36-13.594-7.923-4.564-.835-7.768-3.884-10.933-6.894a46.4,46.4,0,0,1-9.166-4.02c-.66.136-1.32.33-1.573-.6a2.718,2.718,0,0,1-2.292-1.029,2.6,2.6,0,0,1-3.262-1.282l-6.778-2.66a2.661,2.661,0,0,1-2.855-1.088c-7.535-2.447-15.07-4.875-22.585-7.38-3.4-1.146-6.758-2.466-10.118-3.709-.621,0-1.3.388-1.631-.466a2.933,2.933,0,0,1-2.233-.447c-.835.155-1.69.349-2.369-.447l-6.137-1.049a1.146,1.146,0,0,1-1.631-.369l-2.991-.563c-.816.117-1.67.408-2.408-.233l-9.963-1.321c-.6.291-1.185.408-1.612-.272-.466-.155-1.2-.194-1.32-.485-2.7-6.447-8.021-7.166-14-6.408a1.126,1.126,0,0,1-1.631.194l-5.476,1.728c-.835.272-1.787.8-2.486,0s.155-1.942.6-2.7c4.971-8.953,11.341-16.934,17.284-25.246a26.065,26.065,0,0,1,4.836-5.826,4.816,4.816,0,0,1,3.884-3.884c1.224-2.447,4.02-2.874,5.826-4.467a1.243,1.243,0,0,1,1.748,0c3.884,3.651,8.72,2.991,13.439,2.661l4.253-1.651h0l1.029-.117c-.136.194-.214.485-.388.544a.544.544,0,0,1-.466,0c.369,1.146-1.068,1.126-1.67,1.631-2.33,2.563-4.622,5.185-7.011,7.768-2.952,3.068-2.913,6.214-.893,9.807a7.9,7.9,0,0,0,8.545,4.505c6.6-.8,12.1-4.059,17.284-7.962.583-.447,1.126-.952,1.942-1.651a3.748,3.748,0,0,1,.175,3.107c-1.185,5.826,1.01,11.438,5.438,13.594a14.449,14.449,0,0,0,16.468-3.884,17.051,17.051,0,0,0,3.884-8.6c.815-6.778,3.884-13.031,4.641-20.236,3.029,1.942,5.826,3.729,8.758,5.5a48.744,48.744,0,0,0,14.584,5.923c7.011,1.631,10.836-1.515,11.5-8.525.893-9.71-5.457-14.138-12.623-18.022-3.243-1.748-6.7-3.107-10.759-4.971a110.3,110.3,0,0,0,16.837-6.875c9.36-4.913,7.516-9.71,4.738-17.886-1.651-4.894-9.516-6.506-15.963-3.884-2.253.913-4.544,1.787-6.816,2.641-.66.253-1.359.99-2.059.272s0-1.418.117-2.136c1.359-5.244,1.825-10.642,2.661-15.963.971-6.35-2.8-10.681-6.156-15.186-1.146-1.573-2.894-1.146-4.6-.621-5.729,1.806-9.516,5.826-12.584,10.759-1.942,2.991-3.515,6.156-5.535,9.71a61.152,61.152,0,0,0-5.438-11.322c-5.282-9.516-15.944-9.186-23.789-6.972-2.389.68-2.68,2.991-2.253,5.146s1.107,4.486,1.69,6.758c-.952.854-1.942.155-2.8,0a17.243,17.243,0,0,0-6.137-.5c-7.049.7-9.244,4.253-7.03,10.894a31.615,31.615,0,0,0,9.943,15.536c-4.37.272-7.768.6-11.264.641a15.3,15.3,0,0,0-7.943,2.622c-4.059,2.524-4.544,6.214-1.049,9.457a16.139,16.139,0,0,0,10.467,4.253c3.34.175,6.661.447,9.982.719a6.038,6.038,0,0,1,1.593.66c-2.117,2.486-4.972,3.418-7.477,4.739-4.564,2.447-8.6,5.069-9.147,10.875a2.214,2.214,0,0,1-2.059,2.291c-8.642.719-17.109,1.359-25.848-.408-8-1.631-16.177-2.68-23.809-5.5-9.71-3.535-19.595-6.409-28.878-10.934-1.767-.854-2.427-1.631-1.942-3.787,2.719-11.652,6.37-22.954,8.525-34.7.777-4.214,2.68-8.331,3.573-12.642a3.282,3.282,0,0,1,2.505-2.622c2.719-.777,5.379-1.728,8.137-2.292,3.107-.641,5.574-1.845,6.292-6,1.767,3.5,3.379,2.311,5.069.816,9.05-7.962,17.09-16.779,20.352-28.7,3.165-11.652,13.3-15.963,22.974-16.216,14.351-.388,28.742-.68,42.724,2.952a112.646,112.646,0,0,1,19.42,6.117c9.71,4.467,20.041,7.244,29.247,12.74a99.855,99.855,0,0,1,19.109,16.041c4.564,4.544,8.021,9.943,12.6,14.468s6.137,10.6,9.283,15.866c5.671,9.5,11.069,19.167,13.264,30.159,3.534,17.633,6.719,35.364,2.175,53.308-2.661,10.545-5.476,21.071-8.758,31.441-2.466,7.768-8.487,13.283-14.468,18.565-3.088,2.7-5.826,5.826-9.147,8.253a5.108,5.108,0,0,0-2.156,5.826l2.777.214,14.759-12.817c4.6-4.039,7.069-9.71,11.167-14.2a12.177,12.177,0,0,0,1.942-4.971c1.32-4.7,2.408-9.458,3.767-14.138,3.884-13.322,7.865-26.605,7.03-40.782a205.361,205.361,0,0,0-3.282-24.314c-1.534-8.545-2.952-17.284-7.263-24.605-7.418-12.662-12.545-26.8-23.5-37.364-2.738-2.641-5.127-5.826-7.923-8.622a152.684,152.684,0,0,0-11.652-11.128c-9.555-7.651-20.974-11.652-32.2-15.769-15.711-5.826-31.422-11.322-48.686-11.206-11.186,0-22.314-.408-33.4,1.942,3.049-13.594,2.6-27.363,1.69-41s-5.36-26.877-10.487-39.714c-3.884-9.71-7.3-19.536-12.817-28.586-4.894-8-11.652-14.157-18.313-20.352-7.127-6.68-14.39-13.594-23.751-17.478-7.574-3.185-13.963-8.758-21.692-11.652a129.631,129.631,0,0,0-41.248-8.273c-.622,0-1.3,0-1.69-.6a87.388,87.388,0,0,0-30.489,3.165,166.5,166.5,0,0,1-16.313,4.505,51.968,51.968,0,0,0-26.994,13.225c-4.68,4.525-8.758,9.71-13.05,14.584-1.456,1.67-3.67,3.068-2.583,5.826,2.971.544,4.738-1.165,6.545-3.166,4.777-5.341,9.71-10.623,14.779-15.536a35.868,35.868,0,0,1,17.944-9.05c8.681-1.942,16.915-5.146,25.557-6.991a96.422,96.422,0,0,1,39.656.175c8.059,1.612,16.216,2.564,23.945,5.613s14.779,8.292,22.508,11.652c8.933,3.884,15.944,10.351,23.032,16.488,11.186,9.71,20.682,20.9,26.062,35.228,2.758,7.38,4.641,15.186,9.089,21.906.816,1.223.369,3.224.816,4.777,3.243,11.652,5.981,23.459,5.826,35.81,0,5.457-.563,10.953-.175,16.41a23.537,23.537,0,0,1-3.884,14.293,22.235,22.235,0,0,1-13.594,9.147c-11.943,3.146-20.236,11.652-28.062,20.566-.408.466-1.01,1.476-.874,1.612,3.185,3.418-1.3,3.321-2.136,4.855a27.813,27.813,0,0,0-2.641,8.021c-1.185,6.02-1.515,5.651-7.438,7.5-10.254,3.185-20.9,4.8-31.072,8.137-4.35,1.437-8.953,2.136-13.4,3.34-2.078.563-2.408-.932-2.971-2.155a166.265,166.265,0,0,1-8.487-22.43c-.874-2.952-2.292-5.651-3.224-8.584-3.34-10.293-4.505-20.974-6.117-31.558-.874-5.632,1.3-11.108,1.146-16.721,0-.932,1.049-1.3,1.942-1.34,5.729-.214,8.428-4.253,10.836-8.623.913-1.67,1.709-3.418,2.661-5.069.485-.835.8-2.253,1.942-1.942s1.126,1.534,1.185,2.544c.155,2.816.214,5.651.408,8.467a16.176,16.176,0,0,0,4.156,10.118c3.263,3.554,6.875,3.107,9.5-.835,3.748-5.632,2.8-12,3.068-18.2,1.34-.719,1.942.505,2.486,1.146,4.525,5.049,10.662,6.875,16.818,8.739a4.1,4.1,0,0,0,4.913-1.942c3.379-4.641,2.8-9.71,1.223-15.148,2.7.66,4.971,1.34,7.263,1.767,2.932.563,5.088-.311,5.69-3.593,1.942-10.545.971-18.274-9.322-23.537a53.128,53.128,0,0,0-9.438-4.272c5.03-3.088,9.885-5.321,14.021-8.758a21.731,21.731,0,0,0,6.6-9.71,4.136,4.136,0,0,0-1.456-5.107,20.838,20.838,0,0,0-19.711-4.719c-3.729.991-7.651.932-11.361,2.195-2.33.8-1.787-.7-1.282-2.059a48.553,48.553,0,0,0,3.748-11.652c.8-7.088-2.214-11.147-9.283-12.332-7.418-1.243-11.788-.117-13.594,4.641s-4.389,8.953-5.438,13.885c-.272,1.2-.738,2.369-1.107,3.554-1.379-.466-1.515-1.651-1.826-2.544a77.682,77.682,0,0,0-7.943-14.9c-2.8-4.486-14.487-7.069-19.012-4.369-2.563,1.534-4.078,6.195-3.2,10.059A62.865,62.865,0,0,0,505.42,718.02c-7.108,1.69-13.982,3.554-20.954,4.913s-13.186,8.312-13.011,14.526a11.477,11.477,0,0,0,13.458,11.652,9.985,9.985,0,0,1,4.467-.427,45.659,45.659,0,0,0-5.865,9.049,29.519,29.519,0,0,0-3.185,8.642c-.854,5.379.7,8.079,5.612,10.467a6.525,6.525,0,0,0,7.768-.913c2.622-2.272,5.185-4.6,7.768-6.914l1.457-1.709c.214-.311.311-.893.738-.7a.525.525,0,0,1,.136-.524c.1-.117.369-.117.563-.155l-.427.874h0c-.1.369-.175.719-.252,1.068-.388,1.068-.777,2.136-1.146,3.2-.33,4.719-.952,9.458,2.622,13.439,1.029,1.165-.116,2.156-.719,3.049a43.833,43.833,0,0,1-3.049,3.884c.175.524-.117.68-.583.68l-.874.8a3.2,3.2,0,0,1-2.991,3.068c-4.933,4.855-11.011,8.234-16.39,12.526a119.388,119.388,0,0,1-14.39,9.36c-.913.544-1.942,1.787-3.01.816s-.175-1.942.136-2.816c.544-1.709,1.049-3.418,1.573-5.127a1.126,1.126,0,0,1,.194-1.631c.6-5.826.311-11.07-6.079-13.75-1.068-.447-1.146-1.612-1.262-2.622-.641-5.321-1.3-10.623-1.942-15.924a1.942,1.942,0,0,1-.408-2.408c-.408-1.942-.835-4.039-1.262-6.059-.486-.505-.311-1.088-.194-1.67a2.854,2.854,0,0,1-.447-2.233c-.524-1.262-1.69-2.369-1.146-3.884a51.642,51.642,0,0,1-4.195-12.293c-.757-.369-.563-1.01-.447-1.612-2.952-6.059-4.525-12.642-6.972-18.9-.932-2.369-1.709-4.816-2.544-7.2a2.6,2.6,0,0,1-1.282-3.263,2.719,2.719,0,0,1-1.029-2.291c-.932-.253-.738-.932-.6-1.573a46.414,46.414,0,0,1-4.02-9.166c-.913-.175-1.612-.544-1.379-1.67a2.292,2.292,0,0,1-1.185-1.69c-.719-.544-1.4-1.107-1.146-2.156-.932-.913-2.33-1.534-1.942-3.224-.641-.6-1.437-1.107-1.185-2.194-2.894-4.622-6.447-8.856-8.409-14.041a5.166,5.166,0,0,0-6.447,0c-2.835,6.758-7.651,12.351-10.895,18.857a3.884,3.884,0,0,1-2.078,2.156l-.291.738A1.612,1.612,0,0,1,395,703.337l-4.738,10.079c.136.641.33,1.321-.6,1.573a2.777,2.777,0,0,1-1.029,2.292,2.641,2.641,0,0,1-1.282,3.262c-3.3,8.642-5.826,17.614-9.535,26.1.116.6.33,1.243-.427,1.612a52.822,52.822,0,0,1-4.195,12.293c.486,1.573-.544,2.719-1.146,3.884a2.932,2.932,0,0,1-.447,2.233c.117.583.272,1.165-.194,1.67l-1.282,6.059a1.942,1.942,0,0,1-.388,2.408l-2.078,14.584c.233.6.369,1.165-.214,1.651a1.593,1.593,0,0,1-.563,2.059c-6.467,2.7-7.185,8-6.428,14a1.126,1.126,0,0,1,.194,1.631c.563,1.825,1.146,3.651,1.728,5.476.252.835.8,1.787,0,2.486s-1.942-.155-2.719-.622c-8.933-4.952-16.915-11.322-25.246-17.284a25.552,25.552,0,0,1-5.826-4.816,6.894,6.894,0,0,1-4.564-4.6c-1.126-1.515-2.311-2.991-3.379-4.525-.427-.6-1.049-1.4-.447-2.117,4.214-4.777,3.165-10.273,2.233-15.75l-1.088-2.175h0l-.116-1.049c.194.136.485.214.544.388a.486.486,0,0,1,0,.544c1.4-.369,1.4,1.3,2.1,1.942,2.486,2.253,4.991,4.447,7.418,6.758,2.952,2.777,5.943,2.835,9.477.913a7.962,7.962,0,0,0,4.738-8.428c-.757-6.875-4.156-12.584-8.331-17.905-.388-.485-1.01-.816-.893-1.651.738-.816,1.651-.272,2.428-.116,6.447,1.243,11.9-1.01,13.982-5.826a14.06,14.06,0,0,0-4.408-16.235,17.479,17.479,0,0,0-8.642-3.709c-6.661-.855-12.778-3.884-19.808-4.583,1.942-3.068,3.787-5.826,5.535-8.8a49.093,49.093,0,0,0,6.04-14.953c1.476-6.486-1.845-10.39-8.331-11.05-9.924-1.01-14.468,5.282-18.371,12.642-1.728,3.262-3.107,6.68-5.107,11.011a78.643,78.643,0,0,0-6.156-16.06c-4.719-10.662-10.992-8.953-19.731-5.107-3.884,1.689-4.894,9.574-2.68,15.186l2.641,6.816c.252.68.952,1.379.35,2.1s-1.4.136-2.136,0a104.29,104.29,0,0,0-17.478-2.758c-5.962-.447-10.021,3.34-14.177,6.719-1.185.971-.66,2.6-.214,4,1.942,5.826,6.02,9.71,11.031,12.8,2.932,1.806,5.981,3.418,9.438,5.36a57.49,57.49,0,0,0-12.118,6.078c-6.816,4.331-9.9,16.41-6.078,23.459a4.234,4.234,0,0,0,4.972,1.942c2.35-.447,4.661-1.165,7.3-1.826-.369,2.33-.777,4.428-1.029,6.544a12.623,12.623,0,0,0,2.758,9.011,3.573,3.573,0,0,0,3.884,1.728,40.044,40.044,0,0,0,15.944-7.282c.932-.738,1.437-2.466,3.049-1.728s.835,2.292,1.029,3.476a12.721,12.721,0,0,1-.252,3.4c.68.408.621.971.369,1.592a25.966,25.966,0,0,0,1.942,7.535,4,4,0,0,1,1.554,2.466c4.156,3.36,8.836,1.67,11.322-3.884a24.277,24.277,0,0,0,1.942-10.409,13.594,13.594,0,0,1,.524-4.913,4.952,4.952,0,0,1,.6-3.418,5.827,5.827,0,0,1,2.311,3.437c2.447,3.243,3.282,7.516,6.583,10.215,1.476,1.2,2.8,3.01,4.8,2.971,2.913,0,3.554,1.5,4.02,3.884a54.473,54.473,0,0,1,.447,20.76c-1.787,9.341-2.8,18.857-6.331,27.79a2.486,2.486,0,0,1-1.34,2.738,26.994,26.994,0,0,1-2.719,8.079,1.068,1.068,0,0,1-.524,1.554,133.054,133.054,0,0,1-6.409,16.312c-.8,1.689-1.67,2.291-3.554,1.67-3.146-1.049-6.37-1.942-9.574-2.777a3.146,3.146,0,0,1-3.767-.874l-10.914-2.913a1.243,1.243,0,0,1-1.631-.369l-6.1-1.185c-.621.253-1.223.369-1.651-.33a98.386,98.386,0,0,0-14.74-4.02c-1.4-.272-1.728-1.69-1.69-3.049a1.243,1.243,0,0,1-.641-1.65l-1.631-6.1a1.476,1.476,0,0,1-.408-1.651l-.252-1.107c-.563-.505-1.049-1.34-1.69-1.5-3.34-.777-2.758-2.408-1.107-4.35-8.7-10.856-18.973-19.42-32.626-23.44-1.223.388-2.505.913-2.68-1.165-4.136-2.583-8.312-5.166-9.03-10.662-1.825-.583-1.223-2.117-1.321-3.379l-.272-1.476c-.777-.7-.583-1.554-.369-2.389l-.466-13.05a1.126,1.126,0,0,1,0-1.728c.408-5.107-.427-10.273.6-15.361-.175-.816-.544-1.651.194-2.408l1.282-6.855a1.359,1.359,0,0,1,.408-1.592l.777-3.884c-.874-.952-.485-1.651.466-2.214,1.088-3.36,1.243-6.972,2.913-10.157-.388-1.437-1.107-2.991,1.185-3.554,5.574-14.448,9.71-29.577,19.847-41.85,6.486-7.768,14.41-14.138,21.828-21.012,5.981-5.554,13.419-8.351,20.158-12.487,8.972-5.515,18.332-10.409,28.761-12.506,17.633-3.554,35.344-6.739,53.288-2.195,10.526,2.68,21.051,5.5,31.422,8.759,7.768,2.466,13.322,8.448,18.566,14.429,2.7,3.088,5.826,5.826,8.254,9.147a5.418,5.418,0,0,0,5.826,2.292,4.467,4.467,0,0,0-1.282-4.505c-6.7-7.632-12.953-15.633-21.478-21.537a32.255,32.255,0,0,0-9.089-4.739c-4.544-1.34-9.205-2.291-13.73-3.67-14.565-4.428-29.13-8.409-44.666-6.894-.427.194-.893.6-1.3.563-8-1.01-15.536,2.058-23.129,3.224a75.744,75.744,0,0,0-29.3,11.167c-9.594,6.059-20.508,9.962-28.606,18.585-2.7,2.855-6.078,5.244-8.933,8.157a156.6,156.6,0,0,0-11.128,11.652c-7.885,9.865-11.846,21.653-16.2,33.247-5.826,15.536-11.031,31.072-10.836,47.987.117,10.331-.466,20.643,1.534,30.858.369,1.942,0,2.311-1.942,1.942-11.788-2.738-23.828-1.942-35.713-1.612-13.186.388-25.829,4.311-38.121,8.991-5.826,2.233-11.652,4.369-17.478,6.778-6.875,2.874-13.73,5.826-19.42,10.467a244.08,244.08,0,0,0-21.362,21.206c-10.584,11.225-16.8,24.955-23.3,38.277s-8.856,28.508-10.2,43.656c0,10.914.272,21.809,3.651,32.373a147.471,147.471,0,0,1,4.272,15.147c2.078,10.39,6.059,19.847,13.477,27.46,4.428,4.564,9.516,8.506,14.351,12.7,1.67,1.457,3.068,3.67,5.826,2.564a5.962,5.962,0,0,0-2.486-6.04A154.757,154.757,0,0,1,43.322,998.21a33.014,33.014,0,0,1-6.467-15.089c-1.787-8.681-5.146-16.9-6.991-25.537a97.43,97.43,0,0,1,.155-39.656c1.709-8.681,2.874-17.478,6.35-25.712,2.952-7.011,7.535-13.128,10.545-20.061,4-9.244,10.7-16.565,17.051-24.022a91.273,91.273,0,0,1,40.355-27.926c5.826-1.942,11.341-4.855,16.993-6.719a160.77,160.77,0,0,1,20.255-5.03c13.225-2.564,26.508-1.942,39.792-1.4a21.187,21.187,0,0,1,18.371,11.827c1.942,3.884,3.107,8.448,4.8,12.662,3.593,9.011,11.167,14.507,17.672,20.974,1.592,1.592,2.622.466,3.884-1.437,1.554,5.943,6.467,5.981,10.662,6.836a8.234,8.234,0,0,1,7.224,6.952c2.816,10.254,4.816,20.721,7.884,30.917,1.4,4.641,2.311,9.419,3.612,14.1.563,2.078-.893,2.428-2.136,2.991a175.765,175.765,0,0,1-22.314,8.487c-2.932.874-5.651,2.253-8.584,3.2-10.293,3.34-20.954,4.486-31.557,6.137-5.651.874-11.089-1.3-16.7-1.107-1.185,0-1.456-1.34-1.515-2.35-.272-5.418-4.195-7.923-8.2-10.331-1.942-1.185-4.059-2.117-6.078-3.2-.66-.35-1.573-.68-1.456-1.592s1.321-1.165,2.117-1.224c2.952-.214,5.826-.252,8.855-.427a15.924,15.924,0,0,0,10.409-4.37c3.3-3.243,2.777-6.7-.99-9.244-5.01-3.379-10.662-2.971-16.255-3.088-.719,0-1.5.408-2.505-.68,2.816-2.952,5.826-5.826,7.263-9.9.563-1.709,1.359-3.321,1.942-5.01,2.447-6.914-.388-10.856-7.885-11.167a43.661,43.661,0,0,0-8.118,1.2c.7-2.758,1.457-5.068,1.942-7.457a4.136,4.136,0,0,0-3.554-5.379c-10.37-1.942-18.43-1.029-23.576,9.205a34.281,34.281,0,0,0-4.175,9.71c-3.3-5.3-5.457-10.37-9.108-14.429a11.649,11.649,0,0,0-2.369-2.505c-3.282-2.059-6.991-6.156-10.564-3.612a16.138,16.138,0,0,0-7.147,13.846,101.1,101.1,0,0,0,2.68,17.478c.194.835,1.01,1.767,0,2.447s-1.651-.311-2.466-.583c-3.534-1.146-6.836-2.913-10.6-3.4-4.214-.563-8.506,0-10.778,3.418-2.738,4.117-4.331,9.225-2.175,14.215,1.262,2.894,3.884,4.447,7.03,5.943a138.992,138.992,0,0,0,15.148,5.826c-.563,1.5-1.942,1.67-3.107,1.942a71.858,71.858,0,0,0-14.507,7.884c-4.408,2.738-6.8,14.08-4.272,18.7,1.418,2.583,6.176,4.253,9.982,3.418a63.215,63.215,0,0,0,23.79-11.749c1.728,7.244,3.437,14.157,4.991,21.129,1.651,7.38,6.952,12.332,13.866,12.7a11.128,11.128,0,0,0,12-13.885,6.914,6.914,0,0,1-.194-3.787,51.091,51.091,0,0,0,11.011,7.185,26.132,26.132,0,0,0,7.283,2.427c4.661.738,7.477-.466,9.5-4.059,2.622-4.661,2.408-6.68-1.223-10.72-2.136-2.389-4.331-4.738-6.506-7.108-.6-.5-1.942-.485-1.67-1.631a.524.524,0,0,1-.427,0c-.175,0-.291-.369-.427-.563l1.049.117v-.117a.292.292,0,0,1,0,.136l4.234,1.631c4.719.33,9.458.952,13.439-2.622,1.146-1.029,2.156.117,3.049.719a43.877,43.877,0,0,1,3.884,3.049c.563-.194.68.117.68.583l.816.874c.952,0,1.942.136,1.942,1.437a277.226,277.226,0,0,1,23.052,32.451c.485.816,1.476,1.709.719,2.719s-1.942.33-2.816,0c-1.69-.544-3.418-1.049-5.127-1.573a1.127,1.127,0,0,1-1.631-.194c-5.826-.6-11.069-.311-13.749,6.078-.447,1.068-1.612,1.146-2.641,1.262l-15.9,1.942a1.942,1.942,0,0,1-2.408.388l-6.059,1.282c-.5.466-1.088.311-1.67.194a2.933,2.933,0,0,1-2.233.447c-1.282.524-2.369,1.69-3.884,1.146l-1.418.466c-.252,1.088-.874,1.029-1.651.563a28.436,28.436,0,0,1-9.224,3.165c-.369.758-1.01.563-1.612.427-6.02,3.068-12.662,4.486-18.876,6.991-2.369.952-4.816,1.709-7.244,2.544a2.6,2.6,0,0,1-3.263,1.281,2.661,2.661,0,0,1-2.272,1.03c-.252.932-.932.738-1.573.6-6.37,2.505-11.866,6.6-17.905,9.71-.6.641-1.107,1.437-2.194,1.185-4.622,2.894-8.856,6.447-14.041,8.389a5.2,5.2,0,0,0,0,6.467,155.076,155.076,0,0,1,21.75,13.342,1.631,1.631,0,0,1,2.311,1.281l10,4.816c.641-.136,1.321-.33,1.554.6a2.679,2.679,0,0,1,2.292,1.029,2.583,2.583,0,0,1,3.262,1.282c8.661,3.3,17.633,5.826,26.12,9.535.6-.136,1.243-.33,1.612.427a52.826,52.826,0,0,1,12.293,4.195c1.573-.5,2.7.544,3.884,1.146a2.932,2.932,0,0,1,2.233.446c.563-.116,1.146-.291,1.651.194l6.078,1.282a1.942,1.942,0,0,1,2.408.388l15.9,1.942c1.029.116,2.175.194,2.622,1.262,2.7,6.389,8.02,6.681,13.769,6.078a1.126,1.126,0,0,1,1.631-.194c2.078-.66,4.136-1.437,6.253-1.942,1.69-.427,2.68.194,1.612,1.942a215.425,215.425,0,0,1-23.421,32.781,3.282,3.282,0,0,1-3.049,3.01,28.663,28.663,0,0,1-5.554,4.331c-.6.447-1.359.816-2.1.155-3.884-3.651-8.72-2.991-13.439-2.68l-3.2,1.165-1.088.233h0l-.816.447c0-.175,0-.447.117-.544a.5.5,0,0,1,.563-.136c-.233-.447.35-.544.68-.738,0-.583.524-.738,1.01-.816,2.33-2.563,4.622-5.166,7.011-7.671,2.952-3.068,2.952-6.195.913-9.807a7.923,7.923,0,0,0-8.545-4.525c-6.583.8-12.079,4.059-17.264,7.943-.6.447-1.146.952-1.942,1.631a3.5,3.5,0,0,1-.214-3.049c1.223-6.137-1.068-11.652-5.826-13.711a14.177,14.177,0,0,0-16.1,3.884,17.594,17.594,0,0,0-3.865,8.972c-.8,6.661-3.884,12.778-4.564,19.886-3.03-1.942-5.826-3.729-8.739-5.476a49.184,49.184,0,0,0-14.565-5.942c-7.049-1.631-10.895,1.5-11.535,8.486-.893,9.71,5.418,14.177,12.584,18.041,3.243,1.748,6.719,3.107,10.992,5.069a122.5,122.5,0,0,0-15.536,5.671c-8.758,3.709-11.361,13.264-5.418,20.818,2.525,3.2,9.885,4.195,15.167,2.078,2.855-1.126,5.826-2.175,9.71-3.709-1.942,4.933-1.942,9.419-3.107,13.594a21.129,21.129,0,0,0,4.758,19.731,4.253,4.253,0,0,0,5.127,1.456,23.79,23.79,0,0,0,13.225-11.652l5.185-8.953a55.68,55.68,0,0,0,5.651,11.652c5.282,9.186,16.157,8.7,23.634,6.525,2.194-.641,2.563-2.835,2.214-4.836-.427-2.389-1.165-4.719-1.767-7.108,1.165-.738,2.194.1,3.282.291a14.858,14.858,0,0,0,8.72-.427c5.36-2.272,6.137-4,4.253-9.477a33.753,33.753,0,0,0-10.2-16.138c4.389-.252,7.768-.582,11.322-.621a15.128,15.128,0,0,0,7.923-2.68c4.039-2.505,4.447-6.195.932-9.458a16.158,16.158,0,0,0-10.118-4.195c-3.068-.214-6.156-.233-9.224-.466-.68,0-1.709-.175-1.942-1.068s.738-1.243,1.359-1.67c3.632-2.369,8.059-3.4,11.05-6.8,1.282-1.456,3.146-2.816,3.088-4.738-.117-3.379,1.787-3.884,4.389-4.331a58.061,58.061,0,0,1,23.149.136c8.059,1.476,16.138,2.6,23.867,5.437,9.924,3.631,19.983,6.836,29.674,11.108,1.942.835,2.233,1.806,1.748,3.884-2.661,11.477-6.078,22.76-8.545,34.315-.932,4.331-2.6,8.719-3.593,13.167-.524,2.292-2.544,2.389-4.136,2.971-2.156.777-4.467,1.165-6.661,1.826-4.272,1.282-4.272,1.321-6.214,5.341-1.456-2.525-2.932-2.078-4.777-.427-8.991,8-17.031,16.721-20.41,28.664s-12.992,16.08-23.3,16.391c-14.215.447-28.431.486-42.3-2.855a166.325,166.325,0,0,1-24.78-8.273c-11.244-4.7-22.877-8.525-32.412-16.6-7.768-6.486-13.9-14.293-20.721-21.595-5.321-5.69-8.1-12.7-11.963-19.148-5.612-9.341-10.895-18.954-13.089-29.81-3.534-17.633-6.719-35.344-2.194-53.289,2.661-10.545,5.5-21.071,8.758-31.441,2.447-7.768,8.428-13.322,14.429-18.585,3.088-2.7,5.826-5.826,9.127-8.253a5.4,5.4,0,0,0,2.311-5.826,4.331,4.331,0,0,0-4.486,1.282c-4.35,3.884-9.244,7.3-13.244,11.555-5.088,5.4-10.662,10.8-12.74,18.158-2.505,8.991-4.738,18.061-7.535,26.974-3.321,10.545-3.612,21.362-3.632,32.3-1.049,8.642,3.088,16.429,4.195,24.741a73.369,73.369,0,0,0,11.225,29.246c5.962,9.516,9.982,20.177,18.352,28.314,3.088,3.01,5.826,6.544,8.953,9.71,6.273,6.583,12.837,12.8,21.11,16.954a239.28,239.28,0,0,0,30.14,12.215c13.05,4.467,26.178,8.486,40.394,8.176,7.477-.175,15.012-.33,22.527-.252,3.884,0,7.38-1.4,11.244-1.709-.408,1.67-.8,3.01-1.049,4.389-2.1,11.089-1.534,22.333-1.2,33.441.388,13.3,4.331,26.081,9.108,38.471,2.214,5.729,4.253,11.5,6.642,17.148,2.913,6.991,5.826,13.982,10.642,19.808a257.742,257.742,0,0,0,20.915,21.051c11.089,10.564,24.838,16.449,37.869,23.3,12.273,6.506,26.372,8.04,40.141,9.593a91.275,91.275,0,0,0,36.9-3.03c7.768-2.33,15.439-4.991,23.3-6.583,9.127-1.942,15.206-8.021,21.5-13.827A178.867,178.867,0,0,0,408.709,1377l-.214-2.777c-2.816-.719-4.661.777-6.311,2.719a150.566,150.566,0,0,1-18.158,18.74,33.11,33.11,0,0,1-14.779,6.273c-8.409,1.728-16.449,4.777-24.78,6.836a83.507,83.507,0,0,1-29.79,1.534c-16.74-1.942-33.247-4.486-47.909-13.827-6.583-4.195-14.254-6.875-20.313-11.652-12.254-9.71-24.489-19.595-32.47-33.441a159.738,159.738,0,0,1-10.06-23.3c-1.165-3.127-2.272-6.273-3.4-9.4-2.292-.563-1.573-2.117-1.185-3.554a67.56,67.56,0,0,1-4.156-16.2,1.36,1.36,0,0,1-.408-1.593c-2.641-9.71-2.156-19.653-1.942-29.557V1259a26,26,0,0,1,4.467-13.5c.214-1.437,1.4-1.437,2.447-1.67a7.186,7.186,0,0,1,4.35-3.884c.175-2.078,1.457-1.573,2.68-1.165,10.215-3.457,19.537-8.292,26.528-16.818a7.943,7.943,0,0,1,1.942-1.282c.291-.932.68-1.767,1.767-1.942l2.466-3.379c.214-1.457-1.728-1.437-1.942-2.738,1.3-1.359,3.476-1.5,4.622-3.127l.272-1.087a32.062,32.062,0,0,1,2.68-9.38c.369-4.564,4-3.515,6.778-3.884,2.078-1.942,5.088-1.5,7.438-2.758.6-.8,1.437-.524,2.214-.427.427-.7,1.029-.6,1.651-.33l2.272-.311a1.223,1.223,0,0,1,1.593-.427l1.534-.272a2.175,2.175,0,0,1,2.33-.544,10.822,10.822,0,0,1,4.622-.99,1.321,1.321,0,0,1,1.554-.6,7.768,7.768,0,0,1,3.884-1.049,4.719,4.719,0,0,1,4.68-1.146l1.515-.349a1.379,1.379,0,0,1,1.573-.486,23.951,23.951,0,0,1,6.952-1.767c1.146-.8,2.1-1.049,2.427.777,3.282,5.263,4.816,11.225,6.836,17.012a1.068,1.068,0,0,1,.524,1.553A134.1,134.1,0,0,1,316,1243.816c.7.408.583,1.01.33,1.631a22.1,22.1,0,0,1,0,10.021.99.99,0,0,1-.155,1.67l-1.4,7.613c0,1.786-1.049,1.34-2.059,1.087-6.428,1.34-8.856,6.681-11.535,11.652a11.982,11.982,0,0,1-2.117,3.554c-.214.68-.233,1.728-1.126,1.631s-.621-1.049-.5-1.728c-1.282-3.321-.68-6.8-.932-10.2a16.584,16.584,0,0,0-4.078-10.059c-3.263-3.69-7.108-3.282-9.71.835a23.089,23.089,0,0,0-2.719,6.273c.136,1.34.621,2.719-.485,3.884v6.156c.388.66.66,1.418-.233,1.826s-1.068-.311-1.359-.874c-4.505-4.68-10.448-6.739-16.274-9.011a1.3,1.3,0,0,1-1.573-.389c-3.884.466-6.642,3.884-7.069,8.584a25.07,25.07,0,0,0,.835,7.593c.194.641.33,1.224-.7,1.01-1.359-.369-2.719-.738-4.1-1.068-6.059-1.379-7.962,0-8.389,6.331-.932,13.594,2.505,17.692,18.022,24.2.252.175.7.311.719.505.1.583-.427.6-.835.68-4.272,2.758-8.972,4.835-12.817,8.253a12.057,12.057,0,0,0-2.233,2.078c-2.1,3.379-6.37,7.127-3.748,10.836a15.73,15.73,0,0,0,13.808,7.069c5.826-.447,11.652-1.554,17.478-2.369a2.35,2.35,0,0,1,2.68-.719c.35.155.233.874-.214,1.224-1.068,3.884-3.146,7.3-3.748,11.264-1.573,10.021,5.379,16.468,15.536,14.7,3.34-.6,4.447-3.476,6.719-5.127,1.049-3.166,1.825-6.486,4.389-8.914.777-2.447,1.554-4.913,2.311-7.36,0-.66-.214-1.67.68-1.67.544,0,.971.952.893,1.728,2.408,4.505,4.486,9.147,7.185,13.594,3.651,5.962,8.622,7.593,15.07,7.5,3.884,0,6.855-.874,8.1-4.855a12,12,0,0,0,.33-6.428,60.781,60.781,0,0,0-9.594-20.45c-1.534-2.233-1.592-3.01,1.437-3.593,6.292-1.223,12.39-3.263,18.682-4.583a14.138,14.138,0,0,0,11.5-11.477c1.942-9.71-5.5-16.138-15.419-13.846-.66.253-1.651.757-1.806-.155s.874-1.592,1.728-2.058c2.991-4.913,6.273-9.71,7.341-15.536.952-5.107-.252-8.02-4.117-10.118-4.758-2.564-6.642-2.292-10.953,1.651l-6.486,6c-.583.68-.7,1.942-1.942,1.748a.485.485,0,0,1,0,.5c0,.175-.369.272-.563.408a3.227,3.227,0,0,1,.117-1.049h.019c.388-.874.8-1.728,1.2-2.6.757-5.224,1.767-10.448-2.175-15.012-1.029-1.185,0-2.253.7-3.049,1.068-1.223,1.418-2.991,2.932-3.884a6.855,6.855,0,0,1,4.564-4.6c5.03-4.952,11.108-8.506,16.721-12.72,4.467-3.34,9.322-6.176,14.041-9.166.893-.563,1.942-1.787,3.03-.816s.175,1.942-.136,2.816c-.563,1.709-1.049,3.418-1.573,5.127a1.126,1.126,0,0,1-.194,1.631c-.757,5.981,0,11.3,6.409,14,.291.117.33.855.486,1.321.854.7.524,1.554.311,2.389l1.262,9.186c.641.738.369,1.592.233,2.408l.583,2.991a1.942,1.942,0,0,1,.388,2.408c.35,1.787.68,3.573,1.029,5.36.777.68.583,1.534.447,2.369a2.933,2.933,0,0,1,.447,2.233c.524,1.262,1.69,2.369,1.146,3.884a52.979,52.979,0,0,1,4.195,12.312c.757.369.544,1.01.427,1.612a93.1,93.1,0,0,1,5.826,16.468,2.66,2.66,0,0,1,1.087,2.855c.893,2.272,1.767,4.525,2.661,6.778a2.641,2.641,0,0,1,1.282,3.262,2.777,2.777,0,0,1,1.029,2.292c.913.252.738.932.6,1.573a9.283,9.283,0,0,1,1.787,3.884c.583.447.427,1.029.369,1.612l.466,1.029a2.1,2.1,0,0,1,1.126,2.059l.971,1.592a1.825,1.825,0,0,1,1.3,2.272l.291.738c1.5,1.612,4.078,2.525,3.554,5.457,3.068,4.972,7.166,9.341,8.972,15.07.738.583,1.476,1.165,2.194,1.767h2.971l2.194-1.767c1.437-5.224,5.341-8.991,7.943-13.594.913-4.525,3.884-7.768,6.894-10.933a46.422,46.422,0,0,1,4.02-9.166c-.136-.641-.33-1.32.6-1.573a2.719,2.719,0,0,1,1.029-2.292,2.6,2.6,0,0,1,1.282-3.263c.874-2.253,1.767-4.505,2.641-6.778a2.719,2.719,0,0,1,1.088-2.855c2.466-7.535,4.894-15.07,7.4-22.566,1.146-3.418,2.466-6.758,3.69-10.137,0-.622-.369-1.282.486-1.631a2.855,2.855,0,0,1,.447-2.233c-.117-.583-.291-1.165.194-1.67l1.3-6.836a1.165,1.165,0,0,1,.369-1.631l.563-2.991c-.117-.816-.408-1.651.233-2.408.447-3.321.874-6.642,1.321-9.962-.311-.6-.408-1.185.272-1.612.155-.447.194-1.185.486-1.321,6.447-2.7,7.147-8.02,6.409-14a1.127,1.127,0,0,1-.194-1.631c-.66-2.078-1.437-4.136-1.942-6.253-.427-1.689.214-2.7,1.942-1.612a215.048,215.048,0,0,1,32.781,23.421,2,2,0,0,1,2.233,2.272l.874.8c.466,0,.757.155.583.7a25.146,25.146,0,0,0,1.631,2.1c1.942,2.1,2.971,3.768.835,6.836-2.8,4.02-1.631,8.914-.757,13.5l1.068,2.175h.019l.117,1.049c-.194-.136-.486-.214-.544-.389a.447.447,0,0,1,0-.544c-1.4.35-1.4-1.3-2.117-1.942-2.466-2.253-4.972-4.467-7.4-6.758-2.952-2.777-5.962-2.835-9.477-.913a7.962,7.962,0,0,0-4.738,8.428c.777,6.875,4.156,12.584,8.331,17.905.388.486,1.01.835.874,1.651-.757.777-1.728.369-2.428.1a12.021,12.021,0,0,0-13.885,5.554,14.351,14.351,0,0,0,3.709,16.176,16.137,16.137,0,0,0,8.176,3.884c7.03.855,13.594,4.02,21.012,4.8a94.848,94.848,0,0,0-8.39,13.943,48.974,48.974,0,0,0-3.418,10.215c-1.32,6.04,2.117,9.962,8.118,10.623,10.06,1.107,14.8-5.146,18.721-12.72,1.69-3.262,3.107-6.661,5.107-10.972,1.437,6.855,4.292,12.118,6.311,17.692a11.536,11.536,0,0,0,8.661,6.408c11.4.932,17.75-7.768,13.361-18.507-.932-2.272-1.728-4.583-2.641-6.836s0-2.194,1.728-1.709a106.082,106.082,0,0,0,17.478,2.816c6.059.583,10.04-3.263,14.274-6.486,1.359-1.049.835-2.758.33-4.311-1.942-6.1-6.389-10.059-11.769-13.108l-8.234-4.467a55.572,55.572,0,0,0,11.322-5.438c9.516-5.282,9.166-15.963,6.952-23.789-.68-2.369-2.971-2.661-5.146-2.233s-4.486,1.107-6.739,1.69c-.854-.952-.155-1.942.1-2.816a16.7,16.7,0,0,0,.485-6.117c-.7-7.069-4.233-9.244-10.894-7.03a31.926,31.926,0,0,0-15.536,9.943c-.253-4.37-.583-7.768-.621-11.264a15.148,15.148,0,0,0-2.641-7.943c-2.505-4.059-6.195-4.544-9.438-1.049a16.566,16.566,0,0,0-4.272,10.468c-.272,3.767.388,7.768-1.34,11.652-2.525-2.117-3.437-4.991-4.758-7.477-2.505-4.738-5.243-8.856-11.264-9.127-1.223,0-1.69-.777-1.942-1.942-2.408-15.342.272-30.2,4.544-44.86a336.109,336.109,0,0,1,11.652-32.645c1.165-2.874,2.486-3.651,5.826-2.816,10.914,2.777,21.731,5.826,32.781,8.234,4.505.952,8.933,2.816,13.594,3.709,1.534.291,1.942,1.457,2.369,2.719.757,2.583,1.573,5.146,2.214,7.768.719,2.991,1.476,5.826,6.525,5.981-3.884,1.942-2.952,3.612-1.4,5.379,8,9.011,16.759,17.09,28.7,20.333s15.886,13.4,16.255,23.071c.544,14.351.66,28.742-2.932,42.724a111.08,111.08,0,0,1-6.156,19.42c-4.428,9.71-7.224,20.041-12.72,29.246a100.582,100.582,0,0,1-16.041,19.109c-4.564,4.544-9.943,8-14.487,12.584s-10.584,6.117-15.866,9.283c-9.477,5.69-19.167,11.05-30.14,13.264-17.633,3.534-35.364,6.719-53.308,2.156-10.545-2.661-21.071-5.476-31.441-8.758-7.768-2.466-13.283-8.487-18.546-14.468-2.719-3.088-5.826-5.826-8.273-9.147a5.108,5.108,0,0,0-5.826-2.156l-.214,2.777c7.593,8,13.846,17.264,23.3,23.459a33.867,33.867,0,0,0,8.8,4.467c4.544,1.359,9.147,2.505,13.749,3.651,7.768,1.942,15.536,5.03,23.479,6.195,18.915,2.719,37.228-.8,55.464-5.4,10.448-2.622,18.876-9.186,28.314-13.749a93.427,93.427,0,0,0,19.012-12.953c5.3-4.428,9.962-9.38,14.915-14.08a59.384,59.384,0,0,0,13.167-18.235c3.787-8.137,6.758-16.546,10.1-24.858,6.545-16.371,10.429-33.169,9.865-50.841-.291-8.953.388-18.022-2.447-27.052,1.826.427,3.165.816,4.505,1.068,11.225,2.117,22.585,1.573,33.849,1.2,13.05-.408,25.6-4.234,37.752-8.914,5.826-2.234,11.652-4.35,17.478-6.778,7.108-3.01,14.235-5.826,20.139-10.875a270.888,270.888,0,0,0,20.76-20.682c10.564-11.089,16.449-24.838,23.3-37.869,6.448-12.137,7.982-26.12,9.555-39.753a91.157,91.157,0,0,0-2.874-37.6C796.293,1080.2,793.671,1072.511,792.06,1064.568Zm-140.018,88.5c-.952-.369-2.233-.758-2.311-1.826s1.088-1.942,2.117-2.525a13.6,13.6,0,0,1,4.661-1.709c7.943-.544,15.827-2.389,23.867-1.5,2.913.311,5.185-.622,7.088-4.078a32.089,32.089,0,0,1,.544,3.884c0,2.311.719,5.457-3.5,2.913-2.1-1.262-3.534.524-5.146,1.515-8.584,5.282-17.633,6.972-27.324,3.36Zm10.992,27.188c-1.748-.466-2.214-1.088-1.592-2.971,2.389-7.36,7.3-12.875,12.817-17.944a12.74,12.74,0,0,1,7.671-3.224,14.955,14.955,0,0,0,6.175-2.583c-.99,3.5,1.359,4.855,2.835,6.681.777.913,1.942,1.592.388,3.03-5.224,4.641-9.283,10.545-15.536,14.021-4.039,2.272-7.943,4.37-12.759,3.068Zm36.9-13.089c-.117.893-.194,1.787-.291,2.68a34.7,34.7,0,0,1-6.292,18.274,14.1,14.1,0,0,1-15.05,4.971c-1.942-.621-1.282-1.942-1.029-3.068,1.4-6.195,5.651-10.564,10.059-14.643,3.185-2.952,6.894-5.36,8.933-9.36.544-1.088,1.146-1.107,2.117-.68s1.709.719,1.554,1.9Zm27.615,19.012c-.388,3.34-1.942,6.875-4.525,8.021-2.194.971-5.107-1.787-6.894-3.884a56.59,56.59,0,0,1-10.759-20.973c-.388-1.379.214-1.534,1.3-1.554,1.787,0,3.573-.253,5.36-.233,6.389,0,6.389,0,11.264-4.136a105.019,105.019,0,0,1,4.233,21.245,5.83,5.83,0,0,1,.02,1.593Zm21.576-35.247c3.884,2.194,2.389,5.826,1.942,8.972-.563,3.709-3.34,4.525-6.6,4.467-6-.466-11.186-3.321-16.526-5.709-1.107-.485-1.4-1.282-.777-2.505a23.031,23.031,0,0,0,1.942-9.71c0-2.059.738-2.35,2.525-1.942a74.3,74.3,0,0,1,17.5,6.506Zm-8.855-36.51a10.19,10.19,0,0,1,2.544-.893c2.816-.408,6.214-2.932,8.137.99s-.544,9.71-3.651,11.924c-5.574,4.059-12.293,5.709-18.119,9.186-1.359.816-1.806.505-2.6-.8a31.2,31.2,0,0,0-5.826-8.137,72.777,72.777,0,0,1,19.517-12.2Zm-17.594,23.129c3.418,8.953,1.592,16.818-4.389,24-.66.8-1.34,1.651-2.505,1.554-4.816-.408-9.71.563-14.429-1.4a11.885,11.885,0,0,1-8.273-10.215,39.966,39.966,0,0,0,9.71,5.69c5.826,2.35,12.7,1.243,14.818-1.942,3.884-5.826,4.175-13.147.136-18.333-5.651-7.263-10.39-8.836-17.478-5.651a11.322,11.322,0,0,0-6.04,6.409c-.33.835-.621,1.942-1.748,1.592-1.456-.447-.116-1.4-.175-2.117-.408-4.6,3.321-7.341,5.049-10.933,1.088-2.214,4.467-1.942,6.719-1.5,8.079,1.457,15.3,4.292,18.6,12.914Zm-23.654,0a8.642,8.642,0,0,1,12.817-1.515,13.769,13.769,0,0,1,4.6,10.215c0,5.826-4.544,8.953-10.234,7.516-9.069-2.117-11.458-10.293-7.127-16.041Zm-30.9-32.218c-1.223-1.457-2.117-2.758-.971-4.8a3.748,3.748,0,0,1,4.583-1.787,32,32,0,0,1,17.633,10.157c2.68,2.758,5.3,5.593,7.885,8.448,1.224,1.34,2.622,2.505,4.311,1.32s1.126-3.107,0-4.719a34.957,34.957,0,0,1-6.02-14.351c-.641-4.292.233-7.263,3.185-8.622a9.263,9.263,0,0,1,10.351,2.816,6.521,6.521,0,0,1,1.2,1.942c2.253,9.147,5.612,18.061,6.409,28.159-5.826-3.185-11.652-4.68-17.828-3.36-.5.1-1.165,0-1.515.272-6.389,5.243-11.205.427-15.847-2.874a71.206,71.206,0,0,1-13.38-12.428Zm-10.176,17.847a4.2,4.2,0,0,1,4.7-2.524,34.243,34.243,0,0,1,12.2,3.088c3.884,1.67,8.02,3.068,12.06,4.467,1.806.622,3.107,1.34,2.253,3.243.272,3.088-1.515,5.438-1.612,8.156,0,.971-.719.913-1.67.7a67.506,67.506,0,0,1-23.3-9.263,39.423,39.423,0,0,1-3.263-2.7,4.253,4.253,0,0,1-1.359-4.991Zm54.24-173.187a19.828,19.828,0,0,1-2.874,8.72,9.419,9.419,0,0,1-10.293,3.185c-3.068-1.243-4.078-4.467-3.418-8.856A34.819,34.819,0,0,1,701.426,939c1.068-1.592,2.078-3.4.33-4.8s-3.457,0-4.855,1.592c-5.4,5.826-10.39,12.118-17.75,15.691a22.1,22.1,0,0,1-8.37,2.622,3.437,3.437,0,0,1-3.729-2.058,3.224,3.224,0,0,1,.408-3.884,81.813,81.813,0,0,1,22.275-18.7,2.777,2.777,0,0,1,2.971-.272c7.768,6.1,15.536,3.321,23.673,0C717.021,936.629,713.389,943.038,712.185,949.99ZM747.141,926.3c3.321,2.389,5.729,9.147,3.729,12.6a3.146,3.146,0,0,1-3.34,1.359,26.7,26.7,0,0,1-11.652-3.884c-5.2-3.03-10.759-5.573-14.934-10.312a39.936,39.936,0,0,0,5.671-8.215c.68-1.165,1.165-1.456,2.35-.757,5.845,3.476,12.565,5.107,18.158,9.147Zm-5.088-37.519c6.778-1.165,9.574,1.262,9.71,9.089.524,4.156-3.884,4.8-6.894,6.195a111.294,111.294,0,0,1-12.759,4.156c-2.447.816-3.01,0-3.088-2.427a20.507,20.507,0,0,0-1.767-8.991c-.738-1.437-.291-2.272.913-2.777,4.486-2.02,8.894-4.447,13.866-5.3Zm-36.277-6.447a60.782,60.782,0,0,1,9.205-18.391,12.721,12.721,0,0,1,2.078-2.253c5.224-4.6,8.331-3.651,10.118,3.185a11.5,11.5,0,0,1,.35,5.3c-1.554,6.292-1.573,12.953-4.505,19.556-3.748-6.661-9.982-3.884-15.284-4.525-2.233-.33-2.68-.6-1.981-2.932Zm2.486,7.438a5.865,5.865,0,0,1,1.534.136c2.622.194,5.554-1.34,7.768.7a19.945,19.945,0,0,1,6.039,10.137c3.69,15.788-6.739,27.848-22.8,27.188-2.1,0-3.146-1.107-4.447-3.146a23.111,23.111,0,0,1-4.175-9.322c-.1-.7-.932-1.5,0-1.942s1.573.524,1.942,1.379a12.274,12.274,0,0,0,8.448,7.5c6.68,2.136,14.759-2.641,17.342-10.371a15.75,15.75,0,0,0-2.738-14.915c-2.136-2.932-8.467-3.787-13.186-2.117a44.1,44.1,0,0,0-11.768,7.049c2.971-8.545,8.487-12.506,16.021-12.254Zm-11.3,17.711c.874-6,10.778-10.72,14.8-8.584a9.515,9.515,0,0,1,4.8,7.011,14.274,14.274,0,0,1-5.321,11.264c-3.263,2.641-6.8,2.136-10.2.136-2.389-1.359-4.544-6.836-4.1-9.885Zm-13.167-47.948c4.525-.427,8.467,2.369,11.05,7.38a38.259,38.259,0,0,1,5.03,17.944c0,1.321,0,2.039-1.418,2.661-1.67.757-1.942-.349-2.544-1.321-1.942-3.5-5.069-5.69-7.943-8.234a35.577,35.577,0,0,1-9.71-12.2c-2.33-5.418-1.651-6.467,5.515-6.292ZM661.4,875.4c-.563-1.69-.117-2.311,1.437-2.777,4.8-1.4,8.758.641,12.759,2.816,6.447,3.5,10.545,9.555,15.866,14.274,1.456,1.282.311,1.942-.35,2.758-1.456,1.942-4.311,3.224-2.758,7.108a16.217,16.217,0,0,0-8.467-3.262,9.711,9.711,0,0,1-5.437-2.7,42.433,42.433,0,0,1-13.07-18.274Zm-5.593,30.276c-2.389-.214-5.981-1.223-5.826-4,.117-2.253,3.884-3.165,5.981-3.34,8.351-.7,16.643-.388,23.712,5.107,1.942,1.437,3.729,2.35,5.826.893,1.825-1.223,2.525-.835,2.447,1.34a12.544,12.544,0,0,1-.8,5.321c-1.942-4.272-5.438-3.884-8.681-3.554-7.651.621-15.109-1.2-22.682-1.825Zm2.894,19.42a24.914,24.914,0,0,1,8.972-6.467,72.394,72.394,0,0,1,18.1-6.137c1.126-.214,1.787-.311,1.825.913.1,2.7,1.942,5.049,1.554,7.923.175,1.049.583,2.156-1.029,2.738-7.651,2.7-14.992,6.273-23.032,7.768a10.453,10.453,0,0,1-3.884,0,4.059,4.059,0,0,1-2.525-6.816Zm-74.2-73.233a45.5,45.5,0,0,1,11.652-20.333,93.984,93.984,0,0,1,14.313-10.642c2.991-1.942,7.069-2.272,11.341-3.535a54.376,54.376,0,0,1-12.526,23.828A45.21,45.21,0,0,1,587.392,854.6C584.809,855.24,583.566,855.143,584.5,851.861Zm-345.346,2.971c-7.574-2.156-14.643-4.913-20.41-10.836a80.242,80.242,0,0,1-11.516-15.089c-1.806-3.029-2.35-6.8-3.418-10.254-.233-.777.252-1.146,1.4-.99,3.3,1.534,7.3,1.942,10.817,4.039A76.655,76.655,0,0,1,230.161,832.6c6.04,5.651,8.7,12.817,10.856,20.391C241.542,854.832,241,855.26,239.153,854.832Zm-65.581,45.016c2.777,1.088,2.583,2.6.369,3.884a11.5,11.5,0,0,1-4.952,1.942c-7.768.485-15.536,2.408-23.5,1.553a7.768,7.768,0,0,0-7.768,2.913,25.011,25.011,0,0,1-.369-2.952c0-2.35-.485-5.127,3.4-2.68,2.059,1.3,3.554-.408,5.166-1.4C154.618,897.964,163.745,895.983,173.572,899.848Zm-11.186-27.324c1.748.5,2.136,1.146,1.534,2.991-2.389,7.341-7.244,12.856-12.778,17.866a10.642,10.642,0,0,1-6.117,2.952,13.6,13.6,0,0,0-8.059,3.457,7.9,7.9,0,0,0-2.913-7.632c-.8-.738-1.321-1.418-.175-2.466,5.321-4.874,9.71-10.914,16.119-14.468C153.821,873.126,157.725,871.184,162.386,872.524Zm-36.762,11.652a10.7,10.7,0,0,0,0-1.689,35.577,35.577,0,0,1,6.952-18.721c2.68-3.767,10.545-5.826,14.7-4.1,1.942.757,1.01,2.156.738,3.224-1.554,6.253-5.826,10.661-10.448,14.8a41.13,41.13,0,0,0-7.865,7.768c-.563.874-.485,2.641-2.583,1.942s-1.767-1.689-1.5-3.146Zm-24.1-25.246c.835-1.262,1.573-.66,2.544-.214a20.138,20.138,0,0,1,8.7,8.428,57.346,57.346,0,0,1,7.38,17.362c-5.826,2.292-13.322-2.6-17.847,5.477a94.164,94.164,0,0,1-4.467-22.818c-.233-3.185,1.981-5.632,3.69-8.176ZM76.1,901.654c-3.767-2.194-2.233-5.826-1.69-9.03.583-3.5,3.2-4.331,6.35-4.292,6.137.388,11.438,3.321,16.876,5.826a1.437,1.437,0,0,1,.7,2.214A24.236,24.236,0,0,0,96.4,906.489c0,1.942-.7,2.156-2.33,1.748A69.074,69.074,0,0,1,76.1,901.732Zm6.02,37.636c-6.875,2.272-8.525.68-8.02-6.525.369-5.4,4.758-6.8,8.273-9.108,4.428-2.913,9.827-3.884,14.215-6.816,1.34-.913,1.612.214,2.214,1.107,1.942,2.738,3.185,5.826,5.826,8.079a66.026,66.026,0,0,1-22.508,13.342Zm23.09-19.42a22.7,22.7,0,0,1,1.709-28.47c.66-.757,1.243-1.709,2.447-1.709,6.117,0,12.312-.544,17.963,2.913,3.34,2.058,3.34,5.535,4.622,8.584-3.418-1.942-6.078-4.6-9.71-5.826-5.826-1.942-12.1-1.087-14.235,1.942-3.69,5.185-4.467,13.108-1.049,17.769,4.952,6.758,10.448,10.157,17.983,6.622a9.71,9.71,0,0,0,5.34-6.117c.33-.932.757-2.253,1.942-2.059s.854,1.69.7,2.583a18.546,18.546,0,0,1-2.68,7.127c-2.389,3.729-4.816,5.574-8.953,4.894C115.04,927.094,109.078,925.152,105.213,919.87Zm23.129-10.2a9.5,9.5,0,0,1-8.156,9.244c-3.612.7-6.428-1.631-8.545-4.486a13.341,13.341,0,0,1-2.7-7.768c0-6.039,4.564-9.419,10.429-7.574C125.7,900.994,128.847,904.742,128.342,909.674Zm28.916,37.714c1.223,1.457,1.942,2.8.913,4.816a3.884,3.884,0,0,1-4.622,1.709,31.869,31.869,0,0,1-17.594-10.176c-2.68-2.758-5.321-5.593-7.9-8.428-1.223-1.36-2.661-2.486-4.311-1.282s-1.068,3.107,0,4.739a34.568,34.568,0,0,1,6,14.351c.641,4.253-.272,7.244-3.2,8.6a9.3,9.3,0,0,1-10.351-2.855,6.527,6.527,0,0,1-1.2-1.942c-2.233-9.147-5.612-18.041-6.389-28.1,5.826,3.088,11.652,4.719,17.828,3.321.5-.117,1.185,0,1.5-.272,6.37-5.826,10.972-.388,15.536,2.719a68.8,68.8,0,0,1,13.808,12.8Zm10.06-17.672c-1.068,2.35-3.185,2.253-5.166,2.35a39.1,39.1,0,0,1-10.72-2.777c-4.331-1.787-8.739-3.34-13.147-4.913-1.67-.583-2.194-1.34-2.136-3.3,0-2.777,1.631-5.127,1.69-7.768,0-.874.485-1.165,1.554-.913A66.651,66.651,0,0,1,164,922.531c.621.447,1.165.99,1.748,1.5a4.563,4.563,0,0,1,1.612,5.69ZM115.04,1096.184a7.768,7.768,0,0,1,7.943-5.535c5.107,0,7.768,3.01,7.03,8.118a35.15,35.15,0,0,1-5.826,14.818c-1.126,1.67-2.505,3.554-.563,5.088s3.612-.291,5.069-1.825c5.34-5.671,10.234-11.9,17.478-15.4a23.3,23.3,0,0,1,8.351-2.641,3.515,3.515,0,0,1,3.884,1.942,3.36,3.36,0,0,1-.563,4.195,68.9,68.9,0,0,1-20.469,17.187,7.205,7.205,0,0,1-7.38-.194c-5.671-2.913-11.943-2.214-17.828.486l-3.34,1.612C109.291,1113.934,112.69,1105.156,115.04,1096.184Zm-37.267,30.159c-2.971-2.117-5.185-9.477-3.185-12.487a3.418,3.418,0,0,1,3.437-1.2,27.869,27.869,0,0,1,11.652,3.884c5.127,2.932,10.467,5.535,14.9,10.234a33.639,33.639,0,0,0-5.671,8.021c-.777,1.243-1.165,1.689-2.583.854C90.26,1132.266,83.463,1130.422,77.773,1126.343Zm3.107,38.1c-3.321,0-5.826-.913-6.622-4.525-1.223-5.263-.427-7.418,3.457-9.593a76.665,76.665,0,0,1,15.847-5.651c1.728-.524,2.758-.563,2.835,1.942a21.906,21.906,0,0,0,1.942,9.71,1.573,1.573,0,0,1-.854,2.486C92.066,1161.144,86.881,1164.037,80.88,1164.445Zm38.49,6.933a66.884,66.884,0,0,1-9.011,17.672,13.433,13.433,0,0,1-1.806,1.942c-5.4,4.875-8.855,3.729-10.428-3.5a10.915,10.915,0,0,1-.175-3.884,100.576,100.576,0,0,1,4.389-20.935c3.437,6.8,9.283,4.428,14.254,4.836C119.312,1167.883,120.574,1167.844,119.37,1171.378Zm-.952-8.292a37.018,37.018,0,0,1-4.738,0c-5.185,1.942-7.768-2.1-10.1-6.525a21.051,21.051,0,0,1,1.282-23.013c4.408-6.428,11.283-8.817,19.109-8.758,3.379,0,3.884,2.738,5.593,4.35,2.719,2.466,2.874,5.166,3.321,8.1,0,.718.35,1.709-.544,1.942s-1.631-.641-1.942-1.437c-1.806-6.059-6.506-8.37-12.079-8-6.35.427-10.37,4.952-12.74,10.506a14.41,14.41,0,0,0,3.127,15.905c3.321,3.884,8.079,2.7,12.215,1.748a15.828,15.828,0,0,0,8.584-4.835c.563-.641,1.185-2.175,2.33-1.2s-.175,1.787-.466,2.719C129.352,1160.93,124.031,1162.193,118.419,1163.086Zm4.156-10.623c-2.544,1.068-4.933,3.107-8.176,1.728a8.564,8.564,0,0,1-5.535-7.768,13.225,13.225,0,0,1,9.555-12.584c2.952-.816,8.176,2.816,9.5,6.6a9.36,9.36,0,0,1-5.282,12.021Zm19.148,40.938c-4.214.349-8.234-2.039-10.875-6.952a39.345,39.345,0,0,1-5.3-18.643c0-1.223,0-1.942,1.359-2.311.68-.175,1.476-.913,1.942.117,3.03,6.428,9.865,9.2,13.9,14.7a35.519,35.519,0,0,1,4.35,6.719C149.491,1192.507,148.831,1193.537,141.723,1193.4Zm20.391-20.275a14.2,14.2,0,0,1,.7,1.787c1.942,4.933.524,6.7-4.933,5.709-6.933-1.262-12.118-5.826-17.128-10.312-2.33-2.136-3.612-5.243-6.467-6.913-1.3-.757-1.379-1.69-.194-2.68a9.321,9.321,0,0,0,3.127-7.5,15.69,15.69,0,0,0,7.088,3.224c8.875,2.33,13.613,9.2,17.75,16.682Zm7.5-25.887c2.389.214,6,1.2,5.826,3.884,0,2.292-3.884,3.166-5.943,3.36-8.351.719-16.624.369-23.712-5.088-1.709-1.3-3.5-2.466-5.574-1.087-2.758,1.825-2.991.349-2.816-1.942.117-1.34.233-2.68.447-5.224,2.427,4.972,5.981,4.408,9.38,4.156,7.535-.427,14.9,1.262,22.333,1.942Zm-2.991-19.226c-4.195,4.35-9.555,6.739-15.012,8.933a70.56,70.56,0,0,1-11.827,3.36c-.952.194-1.942.738-1.942-.641-.136-2.719-1.942-5.069-1.612-8.059-.214-1.068-.524-2.233,1.243-2.855,7.282-2.563,14.313-5.826,21.906-7.593a16.464,16.464,0,0,1,4.583-.292,3.574,3.574,0,0,1,3.5,2.505,4.156,4.156,0,0,1-.893,4.641Zm73.641,75.116c-3.5,11.924-11.205,20.391-21.867,26.45-1.418.8-2.583,2.971-3.884,2.952-3.884,0-6.739,2.894-10.8,2.661a51.889,51.889,0,0,1,12.021-23.032,44.122,44.122,0,0,1,20.275-13.206c1.573-.485,3.884-1.379,4.7-.7,1.359,1.165.058,3.243-.5,4.874Zm401.489-212.8c2.117-5.146,1.942-4.952,7.768-4.311a160.324,160.324,0,0,1,23.751,3.884,299.251,299.251,0,0,1,29.693,9.885c7.9,3.03,15.847,5.982,23.615,9.341a180.9,180.9,0,0,1,25.654,14.662,3.263,3.263,0,0,1,.136,5.107c-14.079,10.118-29.771,16.9-45.928,22.955-9.943,3.729-20.061,6.952-30.1,10.37-7.147,2.427-14.992,2.816-22.527,4.059-2.661.447-5.34.719-8,1.088a1.942,1.942,0,0,1-2.641-1.534,48.4,48.4,0,0,0-1.942-4.641c-1.185-2.428-.6-3.146,2.175-3.457,7.9-.913,10.118-6.137,5.826-12.72a22.783,22.783,0,0,0-4.913-5.826c-1.2-.913-1.534-1.107-.136-2.369,7.147-6.467,7.147-14.468.136-20.721-1.029-.932-1.806-1.2-.116-2.35a21.364,21.364,0,0,0,5.379-6.447c3.884-5.826,1.728-11.264-5.2-11.982C639.943,994.851,640.545,993.219,641.749,990.326ZM635.69,978.48a3.437,3.437,0,0,1,3.476,4.991c-.369,1.088-.408,2.272-.68,3.379-1.4,5.826-4.272,9.555-11.069,9.982-4.544.291-8.6,3.2-12.526,5.69a4.1,4.1,0,0,0-2.272,4.505,5.146,5.146,0,0,0,4.039,3.709,10.894,10.894,0,0,0,7.768-1.437,37.21,37.21,0,0,0,11.516-8.253c1.728-1.942,8.2-2.234,10.1-.6s.583,3.554-.33,4.8c-3.127,4.214-6.214,8.914-11.652,6.817-6.312-.913-10.953,1.126-15.536,2.913a3.049,3.049,0,0,0-2.35,3.515c.427,2.039,1.942,2.758,4,2.8,5.088,0,9.846-1.534,14.7-2.622a8.254,8.254,0,0,1,9.011,3.554,10.157,10.157,0,0,1-1.612,10.37c-3.884,4.156-8.1,1.223-12.1.485a67.456,67.456,0,0,0-9.458-1.456c-2.156,0-3.981.291-4.486,2.622s1.359,3.224,3.2,4.039a31.423,31.423,0,0,0,16.546,2.583c3.981-.466,11.05,5.942,11.05,9.826a1.942,1.942,0,0,1-1.049,1.845,10.1,10.1,0,0,1-10.331-1.165,35.386,35.386,0,0,0-14.526-9.108,7.534,7.534,0,0,0-4.156-.175,5.088,5.088,0,0,0-4.234,3.884,4.253,4.253,0,0,0,2.505,4.428c4.564,2.641,9.069,5.341,14.468,6.04s7.671,3.3,9.244,10.448c1.418,6.389.194,7.943-6.428,7.36-10.429-.913-18.779-5.049-23.518-15.167-2.563-5.457-7.768-9.127-10.642-14.585-.7-1.359-1.088-1.806.719-2.7,10.623-5.34,11.885-19.75,4.6-27.421-.952-1.01-1.845-2.466-3.029-2.777-3.573-.952-3.107-2.563-1.379-4.913,1.126-1.553,2.1-3.2,3.379-4.661a83.375,83.375,0,0,0,7.884-11.3c5.535-9.166,14.74-12.506,25.149-12.235Zm-6.7,24.314c-3.884,0-6.583,3.748-10.6,3.36,2.952-2.486,6.991-2.952,9.71-5.826.388-.447.893,0,1.126.563s.388,1.884-.233,1.9Zm.408,48.336a2.116,2.116,0,0,1-.583,1.34c-.8.738-.913-.349-1.379-.6-2.991-1.631-6.04-3.166-9.458-4.933a3.011,3.011,0,0,1,3.884.233,15.534,15.534,0,0,0,6.642,2.68c.874.116.932.7.893,1.282Zm-9.71,25.246c-.175,0-.369.194-.544.155s-.291-.214-.427-.33c.214,0,.408-.233.6-.214s.272.349.388.485Zm-28.839-39.908a51.713,51.713,0,0,0-12.875-10.137c5.379-3.418,10.429-6.72,14.216-11.652,1.3-1.689,5.981-.447,7.632,1.767a15.206,15.206,0,0,1,0,19.77,5.69,5.69,0,0,1-8.953.349Zm27.81-60.2a1.825,1.825,0,0,1,.641-.272c.175,0,.33.194.485.311-.194.116-.388.291-.583.291a.911.911,0,0,1-.524-.156ZM528.9,875.69c-.427-2.078.757-2.33,2.214-2.777,12.895-3.787,25.926-7.03,39.112-9.613,2.389-.466,4.836-3.69,6.991-1.34,1.826,1.942-1.126,4.37-1.573,6.719q-3.884,19.77-9.71,39.112c-.427,1.437-.719,2.874-3.729,1.942a57.989,57.989,0,0,0-35.713,4.622c-.68.33-1.418.855-2.117.175s-.155-1.418.155-2.1a56.667,56.667,0,0,0,4.389-36.568ZM526.685,753.13a67.425,67.425,0,0,1-9.069,23.012,29.574,29.574,0,0,1-2.369,3.03c-1.534,1.748-3.263,2.855-5.826,1.806s-2.369-3.088-2.505-5.03a37.52,37.52,0,0,1,2.583-10.506c1.728-4.35,3.418-8.7,4.894-13.128.738-2.233,1.942-3.107,4.136-2.564s4.719,1.088,7.108,1.573c1.243.388,1.34.777,1.068,1.981Zm-2.719-13.206a8.661,8.661,0,0,1-1.515-12.837,13.808,13.808,0,0,1,10.215-4.583c5.826,0,8.953,4.544,7.516,10.234-2.292,9.2-10.448,11.632-16.2,7.36Zm15.4,46.919c-.369.932-.719,2.214-1.787,2.33s-2.058-1.029-2.544-1.942a12.646,12.646,0,0,1-1.728-4.641c-.486-7.768-2.369-15.536-1.534-23.518a6.641,6.641,0,0,0-4.272-7.535c2.35-.311,3.34-.505,4.331-.544,2.544-.155,4.913-.214,2.622,3.457-1.282,2.058.447,3.534,1.456,5.166,5.321,8.642,7.088,17.692,3.476,27.4Zm27.188-11.069c-.5,1.942-1.165,2.272-3.2,1.612-7.244-2.292-12.584-7.185-17.478-12.545a10.894,10.894,0,0,1-3.049-6.078,12.1,12.1,0,0,0-3.088-7.652,9.709,9.709,0,0,0,7.127-3.4c.932-.893,1.592-1.379,2.738,0,4.622,5.2,10.506,9.244,13.963,15.536,2.175,4.039,4.292,7.9,3.049,12.7Zm9.982-28.489c2.952,2.486,2.816,6.137,3.127,9.865,0,5.2-1.029,5.826-6.311,3.554A33.927,33.927,0,0,1,561.7,751.6c-2.952-3.224-5.379-6.874-9.38-8.952-.777-.408-1.243-.8-.757-1.767s.524-1.942,1.942-1.942a36.606,36.606,0,0,1,23.09,8.525Zm-4.35-35.869c3.107-.175,5.418,1.942,7.865,3.651,1.262.835.757,1.573.214,2.563a18.8,18.8,0,0,1-5.554,6.739,57.853,57.853,0,0,1-20.255,9.361c-2.214-5.826,2.583-13.322-5.4-17.867a89.931,89.931,0,0,1,23.188-4.273Zm-41.365-4.059a71.581,71.581,0,0,1,6.428-17.594c2.195-3.884,5.826-2.33,8.991-1.826,3.748.6,4.447,3.418,4.331,8-.447,4.622-3.243,9.846-5.671,15.167a1.437,1.437,0,0,1-2.175.854,23.3,23.3,0,0,0-10.1-1.942c-2.136.019-2.175-.835-1.748-2.486Zm16.352,12.72c.952.816,2.233,1.5,2.194,2.971-.175,5.593.583,11.264-2.253,16.565-2.175,4.059-5.515,5.671-10.72,6.273,4.855-4.719,8.156-9.186,8.312-15.186.214-8.273-6.447-13.866-14.779-12.39a17.051,17.051,0,0,0-12.856,9.963,12.371,12.371,0,0,0,5.729,15.847c1.049.563,2.874.757,2.719,3.224-3.321-1.748-7.5-.233-10.04-4.253-.932-1.456-4.156-1.068-4.408-3.884a25.984,25.984,0,0,1,1.34-10.545c5.185-15.458,24.061-17.692,34.82-8.409ZM500.74,698.715a9.031,9.031,0,0,1-.8-2.156c-.447-2.952-3.146-6.447.738-8.6s9.71.505,12.176,3.884c4.039,5.574,5.612,12.332,9.186,18.119.738,1.224.291,1.651-.816,2.33a35.474,35.474,0,0,0-8.292,5.826A72.356,72.356,0,0,1,500.8,698.968Zm-8.778,71.854c-1.515,1.282-2.874,2.427-5.107,1.165s-1.942-3.088-1.651-4.991a31.616,31.616,0,0,1,9.574-16.721c2.835-2.8,5.826-5.515,8.72-8.176,1.418-1.3,2.855-2.738,1.515-4.583s-3.146-.99-4.758,0a34.8,34.8,0,0,1-14.39,5.982c-4.195.621-7.263-.35-8.564-3.321a9.418,9.418,0,0,1,2.66-10.1,7.284,7.284,0,0,1,2.641-1.573c8.991-1.942,17.594-5.535,27.732-6.137a26,26,0,0,0-3.4,18.371,7.166,7.166,0,0,0,1.942,4.389c1.942,1.573,1.5,3.107.563,4.68a81.451,81.451,0,0,1-17.42,21.226Zm-29.441,48.3c.1,0,.214.311.311.485a1.945,1.945,0,0,1-.68.253c-.1,0-.214-.291-.311-.466a2.275,2.275,0,0,1,.738-.059ZM372.277,789a139.825,139.825,0,0,1,3.787-22.993c2.758-10.079,6.253-19.983,9.71-29.829,3.03-8.448,6.7-16.643,9.865-25.032,3.4-8.991,8.991-16.662,14.41-24.411,1.185-1.69.893-4.894,2.427-4.913,1.942,0,1.3,3.146,2.466,4.8a194.878,194.878,0,0,1,23.09,45.89c3.69,9.943,6.933,20.061,10.351,30.081,2.428,7.146,2.816,14.992,4.059,22.527.447,2.641.719,5.321,1.088,8a1.942,1.942,0,0,1-1.554,2.622,38.485,38.485,0,0,0-4.641,1.942c-2.408,1.165-3.127.6-3.437-2.175-.913-7.9-6.176-10.176-12.7-5.826l-.621.447c-3.709,3.049-6.564,6.292-11.846.932-3.884-3.884-11.652-1.67-15.886,2.8-1.321,1.379-2.486,2.33-3.884,0-1.2-2.058-3.457-3.01-5.36-4.311-6.117-4.156-11.535-1.942-12.332,5.5-.369,3.612-1.515,3.5-4.234,2.428-5.515-2.1-5.341-1.961-4.7-8.253Zm-7.593,14.138a3.36,3.36,0,0,1,4.7-3.457c1.592.466,3.2.854,4.836,1.185,5.69,1.126,8.176,4.486,8.72,10.331.447,4.719,3.263,8.856,5.826,12.876a4.1,4.1,0,0,0,4.564,2.214,5.321,5.321,0,0,0,3.573-3.748,9.885,9.885,0,0,0-1.088-7.438,37.3,37.3,0,0,0-8.351-11.924c-2.059-1.942-2.408-7.632-.971-10.04.952-1.612,2.1-1.087,3.321-.718a11.943,11.943,0,0,1,8.292,12.526c-.641,5.5,1.01,10.409,2.952,15.322.66,1.67,1.709,3.029,3.709,2.583s2.68-1.942,2.7-4.059c0-5.088-1.534-9.846-2.641-14.7a8.487,8.487,0,0,1,3.321-8.817,10.7,10.7,0,0,1,10.448,1.282c4.389,3.884,1.592,8.1.777,12.04a64.925,64.925,0,0,0-1.573,10.215,3.437,3.437,0,0,0,2.719,4.059c1.942.408,3.049-.932,3.69-2.622,1.767-4.68,3.787-9.341,2.971-14.118-.486-6.972,2.253-11.419,7.923-13.594,2.039-.777,3.69-.777,4.078,1.69.486,3.34,1.185,6.6-1.942,9.516a32.219,32.219,0,0,0-8.681,13.9,8.583,8.583,0,0,0-.35,4.156,5.282,5.282,0,0,0,3.767,4.467,4.175,4.175,0,0,0,4.738-2.544c2.583-4.564,5.69-9.011,5.826-14.468.291-6.739,5.651-7.613,10.254-8.991,6.486-1.942,8.234-.408,7.632,6.35-.913,10.293-4.952,18.566-14.915,23.3-5.574,2.641-9.36,7.962-14.9,10.856-1.554.8-1.942.757-2.68-.874-5.3-10.448-19.77-11.866-27.44-4.447-.893.893-2.35,1.651-2.583,2.7-1.126,4.952-3.534,2.544-5.826,1.185a18.022,18.022,0,0,1-2.855-1.942,89.611,89.611,0,0,0-12.448-8.914c-9.05-5.477-12.332-14.662-12.041-25.13ZM386.92,809.8c.7-.447,1.942-.466,1.942,0,.214,3.884,3.5,6.467,3.748,10.215,0,.136-.33.311-.7.641-2.1-3.068-2.622-7.069-5.457-9.71-.369-.214.058-.641.524-.932Zm51.133,1.67c-1.631,3.01-3.165,6.059-4.933,9.477-1.185-2.059-.1-3.2.66-4.505a14.409,14.409,0,0,0,2.272-5.981c0-.971.7-.971,1.282-.952a2.175,2.175,0,0,1,1.34.583c.777,1.029-.311,1.146-.563,1.592Zm-14.915,36.141c-4.68,3.379-7.049,8.448-10.487,13.108-3.573-5.03-6.544-10.176-11.38-13.846-1.942-1.437-.874-6.02,1.515-7.768,6.6-4.971,13.458-4.7,19.808,0,2.66,2.136,3.2,6.836.6,8.72Zm-60.377-28.47a1.709,1.709,0,0,1,.233.641c0,.117-.272.214-.408.33a2.211,2.211,0,0,1-.253-.68,1.07,1.07,0,0,0,.485-.078Zm-38.49-95.527c5.554,1.5,11.147,2.874,16.7,4.37,4.8,1.282,7.36,4.234,7.535,8.467.233,5.36-2.913,8.059-8.215,7.263a34.335,34.335,0,0,1-14.157-5.477c-.544-.369-1.068-.738-1.612-1.068-1.437-.874-3.03-1.243-4.136.253a2.855,2.855,0,0,0,.913,4.078,117.076,117.076,0,0,1,12.856,12.74,28.081,28.081,0,0,1,6.137,13.4,3.534,3.534,0,0,1-1.67,4.272,3.748,3.748,0,0,1-4.836-.815,82.108,82.108,0,0,1-17.866-21.362,3.243,3.243,0,0,1-.311-3.651c5.263-7.166,3.748-14.41.427-21.711-.214-.447-.35-.932-.621-1.651a35.6,35.6,0,0,1,8.856.893Zm-20.877-13.5c3.515-5.826,5.146-12.545,9.186-18.138,2.389-3.3,9.147-5.709,12.6-3.709a3.126,3.126,0,0,1,1.359,3.321,27.557,27.557,0,0,1-3.884,11.652c-2.971,5.243-5.69,10.681-10.215,15.012a39.657,39.657,0,0,0-8.331-5.826c-1.2-.641-1.515-1.146-.8-2.311Zm5.826,11.963a22.353,22.353,0,0,1,5.185,14.953c-.117,3.146-1.942,4.214-4.1,6.176-3.3,2.971-6.6,3.224-10.351,3.457a3.324,3.324,0,0,1-.738-.252c.194-1.67,1.825-1.651,2.8-2.175,8.661-4.583,9.962-13.808,2.913-20.6-4.02-3.884-8.428-6.176-14.235-4.855-9.885,2.253-11.477,7.011-9.224,16.429.932,3.884,3.515,7.011,6.04,11.031a11.147,11.147,0,0,1-9.011-6.02c-3.146-5.321-2.35-11.166-2.505-16.915a2.563,2.563,0,0,1,.99-1.942c9.827-9.574,24.974-8.292,32.179.719Zm-29.732-34.121c5.3-1.126,7.166-.408,9.283,3.379a74.181,74.181,0,0,1,5.826,16.2c.486,1.67.388,2.505-1.787,2.583a23.305,23.305,0,0,0-10.118,1.942,1.457,1.457,0,0,1-2.175-.854c-2.428-5.341-5.185-10.545-5.729-16.526-.252-3.418.932-5.9,4.641-6.719ZM249.912,723.98a4.559,4.559,0,0,1-.621-.446c-2.117-2.195-5.418-5.011-4.35-7.457,1.243-2.816,5.088-4.661,8.8-4.505a106.771,106.771,0,0,1,17.3,2.835c1.476.311,2.913.893,5.418,1.67-6.816,3.534-4.661,9.224-4.913,14.08-.175,3.126-.408,4.078-3.884,2.874a67.179,67.179,0,0,1-17.808-9.05ZM252.32,760.7c-5.826,2.486-6.719,1.942-6.525-5.3-.427-4.641,2.408-8.545,7.418-11.147a38.511,38.511,0,0,1,17.964-4.991c1.34,0,1.942.136,2.6,1.456.8,1.709-.427,1.942-1.359,2.505-3.5,1.942-5.671,5.107-8.234,7.962a35.15,35.15,0,0,1-11.924,9.516Zm26.994,12.876-.291-.291a3.083,3.083,0,0,1,.524-.233s.175.155.252.233Zm.777-1.5s-.214-.194-.214-.291.155-.155.252-.253.214.194.194.291-.214.156-.291.253Zm3.36-16.915c-2.175,12.506-11.477,18.022-21.847,22.566-1.67.738-2.292,0-2.719-1.5-1.4-4.8.66-8.758,2.835-12.739,3.515-6.428,9.555-10.545,14.293-15.866,1.282-1.456,1.942-.272,2.738.427,1.942,1.554,3.263,4.059,6.875,2.583a21.365,21.365,0,0,0-2.136,4.525Zm10.215,4.1c.835,7.923-1.01,15.672-1.592,23.5-.194,2.544-1.126,6.331-3.884,6.35-2.505,0-3.379-3.884-3.534-6.1-.6-8.331-.35-16.643,5.263-23.692,1.243-1.554,2.311-3.3.99-5.243-2.059-3.049-.155-3.088,2.1-2.971,1.223,0,2.466.233,3.69.35a7.613,7.613,0,0,0-3.088,7.807Zm1.049-17.07c-4.719,0-10.662-6.622-10.312-12.06.252-4.195,3.36-7.38,8.622-7.4,6.078,0,12.642,5.418,12.7,10.273s-5.535,9.186-11.069,9.186Zm16.837,38.413a24.623,24.623,0,0,1-6.7-9.283,63.851,63.851,0,0,1-5.943-17.769c-.136-.854-.952-1.942.466-1.942,2.835-.175,5.321-2.059,8.292-1.612,1.146-.311,2.156-.408,2.7,1.126,2.622,7.4,5.981,14.546,7.768,22.275a10.408,10.408,0,0,1,0,4.952,4.059,4.059,0,0,1-6.642,2.253ZM249.64,868c-.408-2.136-3.4-4.272-1.146-6.234,1.787-1.554,3.884,1.126,6,1.534q19.983,3.9,39.5,9.71c1.787.524,2.932.835,2.427,3.3a57.541,57.541,0,0,0,4,35.636c.272.583.6,1.126.893,1.709-.369,1.942-1.515,1.262-2.525.8a54.608,54.608,0,0,0-15.691-4.777,55.955,55.955,0,0,0-19.867.311c-2.505.524-3.282,0-3.884-2.447-3.884-13.05-7.185-26.178-9.768-39.5Zm-65.931,194.2c-1.107,1.942-.719,5.049-3.651,5.3-12.06-2.233-23.887-3.03-35.306-6.816-16.643-5.554-33.014-11.652-49.288-18.332-7.943-3.243-14.7-8.428-21.75-13.128a7.572,7.572,0,0,0-4.408-1.942c-.738,0-1.3-.155-1.2-1.01a1.025,1.025,0,0,1,.621-.8c5.36-.757,8.894-4.8,13.089-7.516a145.194,145.194,0,0,1,24.45-12.079c13.866-5.651,28.023-10.506,42.238-15.167a119.922,119.922,0,0,1,23.3-4.273c1.282-.155,2.544-.272,3.884-.388,1.942-.175,4.467-1.942,5.826-.253a25.249,25.249,0,0,1,3.263,7.322c.544,1.476-.5,1.67-1.67,1.728a11.011,11.011,0,0,0-5.418,1.631c-3.651,2.311-4.836,5.282-2.719,9.03a21.362,21.362,0,0,0,4.933,6.8c1.942,1.573,2.311,2.933,0,4.875a12.7,12.7,0,0,0,0,18.41c1.942,1.767,2.059,3.127,0,4.583a18.815,18.815,0,0,0-3.884,5.146c-4.1,5.943-1.942,11.4,5.2,12.2,3.942.524,4.039,2.02,2.428,4.777Zm6.04,12.079a3.437,3.437,0,0,1-3.476-4.991c.369-1.088.408-2.272.68-3.379,1.379-5.826,4.272-9.574,11.05-10,4.564-.272,8.622-3.185,12.526-5.671a4.1,4.1,0,0,0,2.292-4.505,5.166,5.166,0,0,0-4.039-3.709,10.935,10.935,0,0,0-7.768,1.437,36.9,36.9,0,0,0-11.516,8.254c-1.709,1.942-8.1,2.156-10.1.641-1.243-.952-.816-1.942-.486-3.107a11.827,11.827,0,0,1,12.487-8.428c5.476.738,10.39-.971,15.322-2.874,1.728-.66,3.049-1.729,2.68-3.67s-1.942-2.758-4-2.8c-5.088,0-9.846,1.534-14.7,2.622a8.215,8.215,0,0,1-9.011-3.554,10.157,10.157,0,0,1,1.631-10.37c3.884-4.156,8.118-1.243,12.1-.466a66.946,66.946,0,0,0,9.827,1.437c2.078,0,3.632-.544,4.117-2.622s-.835-3.107-2.505-3.729c-4.68-1.787-9.322-3.884-14.1-3.01-7.069.485-11.322-2.175-13.594-7.768-1.146-2.719,0-4.234,2.292-4.389,3.146-.233,6.331-.757,9.147,2.35a30.352,30.352,0,0,0,13.944,8.6,8,8,0,0,0,4.175.175,5.225,5.225,0,0,0,4.156-3.593,4.175,4.175,0,0,0-2.6-4.739c-4.544-2.66-9.05-5.34-14.449-6.039s-7.768-3.321-9.263-10.448c-1.4-6.389-.175-7.943,6.447-7.36,10.429.913,18.779,5.049,23.518,15.167,2.563,5.457,7.768,9.127,10.642,14.584.7,1.379,1.088,1.806-.738,2.7-10.623,5.34-11.866,19.75-4.583,27.421.952.99,1.845,2.466,3.01,2.777,3.593.952,3.107,2.563,1.4,4.913-1.126,1.554-2.1,3.2-3.379,4.68a81.989,81.989,0,0,0-7.884,11.283c-5.69,9.186-14.817,12.545-25.3,12.273Zm6.525-24.2c3.884-.214,6.719-3.748,10.739-3.437-2.952,2.369-6.816,2.913-9.419,5.71-.5.544-.874.194-1.2-.233s-.524-1.922-.175-1.942Zm.408-49.851c.874-.621.913.505,1.359.738,3.03,1.592,6.078,3.127,9.5,4.894-2.175,1.126-3.3,0-4.622-.7a41.528,41.528,0,0,0-5.632-2.253c-.621-.213-1.165-.136-1.262-.99a1.729,1.729,0,0,1,.6-1.593Zm8.972-23.828.136-.214H206a.816.816,0,0,1,0,.233Zm28.45,39.384c3.379,4.68,8.448,7.069,13.225,10.584a58.575,58.575,0,0,0-13.594,10.778c-1.728,1.942-5.826,1.728-7.768-.253-5.146-5.088-5.146-16.157,0-21.148,2.136-2,6.389-2.214,8.079.136Zm-27.984,60.493-.272.272c-.1.1-.233-.194-.233-.291s.175-.175.272-.272.175.233.175.389Zm91.526,72.009a56.9,56.9,0,0,0-1.379,27.324c.5,2.68,0,3.515-2.564,4.253-13.05,3.729-26.2,7.011-39.52,9.594-1.942.408-4.078,3.185-5.826,1.281s.932-3.884,1.34-5.943q3.884-19.983,9.71-39.5c.563-1.942.835-3.146,3.515-2.622a57.231,57.231,0,0,0,35.616-4.117c2.369-1.068,2.816-.952,2.835.66a60.006,60.006,0,0,0-3.787,9.166Zm.99,151.262a67.1,67.1,0,0,1,9.283-23.3,38.95,38.95,0,0,1,2.971-3.515,4.1,4.1,0,0,1,4.894-1.068,3.884,3.884,0,0,1,2.486,3.884,24.256,24.256,0,0,1-1.767,9.71c-1.748,5.146-3.884,10.157-5.826,15.264-.66,1.786-1.379,3.068-3.263,2.233-3.068.272-5.438-1.515-8.156-1.612C298.345,1301.24,298.442,1300.541,298.636,1299.55Zm2.466,13.011c5.069,3.787,5.379,8.486,1.767,13.031a14.428,14.428,0,0,1-10.254,4.544c-5.826,0-8.914-4.6-7.418-10.332,2.292-8.8,10.351-11.341,15.9-7.186Zm-15.07-46.86c.35-.952.757-2.253,1.826-2.292s2.039,1.107,2.525,2.136a14.217,14.217,0,0,1,1.69,4.661c.583,7.962,2.389,15.847,1.5,23.887a6.234,6.234,0,0,0,3.262,6.622c-.971,1.185-2.117.874-3.01.952-2.427.175-5.34.583-2.894-3.5,1.262-2.1-.544-3.535-1.534-5.146-5.3-8.525-7.011-17.575-3.36-27.266Zm-5.981,15.012.233.272-.252.233c-.1-.1-.233-.175-.233-.272s.155-.1.252-.175Zm-21.265-4.02c.5-1.748,1.107-2.175,2.971-1.573,7.321,2.408,12.856,7.244,17.866,12.778a11.051,11.051,0,0,1,2.971,6.1,11.5,11.5,0,0,0,3.651,7.962,8.8,8.8,0,0,0-7.768,3.029c-.7.835-1.4,1.34-2.466.194-4.855-5.321-10.914-9.613-14.448-16.1-2.156-3.787-4.136-7.671-2.777-12.332Zm-7.885,30.334a14.157,14.157,0,0,1-4.952-15.07c.641-1.942,1.942-1.243,3.088-.99,6.195,1.4,10.564,5.651,14.643,10.06,2.952,3.185,5.34,6.894,9.36,8.933,1.126.563.932,1.146.66,2.136-.66,2.427-2.408,1.165-4.078,1.34a34.957,34.957,0,0,1-18.721-6.35Zm2.544,34.2c-3.263.233-5.69-1.942-8.234-3.709-1.3-.874-.583-1.631-.136-2.563a19.944,19.944,0,0,1,8.409-8.681,58.6,58.6,0,0,1,17.478-7.4c2.1,5.942-2.408,13.3,5.263,17.925a93.029,93.029,0,0,1-22.78,4.486Zm40.918,4.7a117.76,117.76,0,0,1-5.515,15.536c-1.767,3.67-3.884,4.467-9.322,3.4-3.729-.738-4.816-2.35-4.816-7.768.408-4.875,3.263-10.059,5.651-15.419.466-1.088,1.262-1.437,2.486-.8a20.063,20.063,0,0,0,9.36,1.942c2.932-.136,2.758,1.243,2.156,3.165Zm-17.595-14.6a2.641,2.641,0,0,1-.854-2.059c.233-5.593-.563-11.283,2.427-16.526a10.079,10.079,0,0,1,9.594-5.535,21.5,21.5,0,0,0-7.127,19.673,5.826,5.826,0,0,0,2.428,3.884c4.738,3.418,10,5.03,15.536,2.6s9.438-6.234,10.506-12.37a11.652,11.652,0,0,0-6.68-11.652,5.321,5.321,0,0,1-3.651-3.185c3.709.583,7.2-.447,10.254,2.777,1.942,2.117,5.2,2.68,5.185,6.817a25.4,25.4,0,0,1-4.486,14.06c-6.428,9.846-23.032,11.73-33.13,1.573Zm48.861,25.615c2.253,6.875.7,8.525-6.525,8.02-5.379-.369-6.8-4.758-9.108-8.273-2.913-4.428-3.884-9.827-6.816-14.215-.893-1.32.194-1.612,1.088-2.214,2.758-1.942,5.826-3.185,8.1-5.826a66.025,66.025,0,0,1,13.264,22.566Zm8.118-75.272a3.709,3.709,0,0,1,4.836-.757,3.631,3.631,0,0,1,1.631,4.311,31.751,31.751,0,0,1-10.331,17.944c-2.777,2.661-5.593,5.321-8.448,7.9-1.379,1.262-2.33,2.758-1.088,4.35s2.971.99,4.486,0a35.132,35.132,0,0,1,14.7-6.156c3.476-.5,6.486-.272,8.331,3.088a9.322,9.322,0,0,1-2.272,10.176,7.264,7.264,0,0,1-2.6,1.612c-9.089,2.058-17.828,5.612-27.926,6.292,3.437-6.719,5.962-13.5,2.369-19.692-3.2-5.574-.8-9.127,1.942-13.109a80.3,80.3,0,0,1,14.371-15.9Zm29.13-48.2-.214-.136.272-.291.194.253Zm82.263,67.232c-4.913,13.885-9.807,27.771-15.808,41.229a160.49,160.49,0,0,1-13.866,23.809,8.951,8.951,0,0,0-1.864,3.729c-.1.777.155,1.612-1.01,1.554-.874,0-.757-.738-.8-1.4-.175-2.6-1.942-4.37-3.4-6.292a135.046,135.046,0,0,1-16.352-30.761c-5.5-13.807-10.331-27.848-15.012-41.928a120.4,120.4,0,0,1-4.214-22.877c-.155-1.262-.214-2.544-.388-3.884-.854-6.447.311-8.02,6.719-9.419,1.631-.349,1.942.175,2.078,1.67a10.448,10.448,0,0,0,1.631,5.418c2.292,3.631,5.3,4.8,9.05,2.661a22.178,22.178,0,0,0,7.069-5.224c1.4-1.806,2.68-1.825,4.35,0a12.661,12.661,0,0,0,18.663.117c1.554-1.729,2.855-2.175,4.311-.233a20.916,20.916,0,0,0,5.438,4.253c5.826,3.884,11.264,1.942,12.06-4.972.524-4.525,2.253-4.292,5.2-2.622,1.806,1.029,4.8.757,4.738,3.884a193.619,193.619,0,0,1-8.7,41.345Zm15.536-51.075a3.36,3.36,0,0,1-4.855,3.243c-1.068-.35-2.272-.389-3.379-.661-5.826-1.4-9.593-4.175-10.079-10.972-.33-4.7-3.224-8.875-5.826-12.856a4,4,0,0,0-4.234-2.117,5.186,5.186,0,0,0-3.884,3.884,10.583,10.583,0,0,0,1.359,7.768,37.168,37.168,0,0,0,8.215,11.535c1.942,1.767,2.272,7.885.777,10.079-.893,1.321-1.942.952-3.03.641a12.04,12.04,0,0,1-8.545-12.39c.718-5.632-.971-10.662-2.991-15.692-.66-1.651-1.767-2.932-3.884-2.389a3.438,3.438,0,0,0-2.544,3.884c-.1,5.2,1.534,10.1,2.719,15.05a8.351,8.351,0,0,1-3.534,8.739,10.468,10.468,0,0,1-10.409-1.457c-4.35-3.884-1.379-8.117-.6-12.079a60.834,60.834,0,0,0,1.515-10.234,3.379,3.379,0,0,0-2.525-3.884c-1.942-.544-3.165.7-3.884,2.369-1.69,4.428-3.632,8.817-2.991,14.759,2.253,5.574-1.942,9.05-6.447,12.351-1.2.894-2.874,1.942-4.272,1.068a4.6,4.6,0,0,1-1.767-4.331,9.885,9.885,0,0,1,2.991-7.768,30.838,30.838,0,0,0,8.137-13.361,7.884,7.884,0,0,0,0-4.913,5.127,5.127,0,0,0-3.709-3.612,4.059,4.059,0,0,0-4.253,2.1,38.843,38.843,0,0,0-6,12.856c-1.806,8.215-3.068,9.71-11.031,11.283-6.253,1.262-7.671.136-7.127-6.311.874-10.448,4.952-18.838,15.07-23.576,5.36-2.505,8.972-7.632,14.254-10.448,1.942-1.049,2.233-1.049,3.4,1.049a17.692,17.692,0,0,0,27.052,4.078c1.534-1.4,3.515-2.641,3.884-5.107.155-1.224.893-1.379,1.942-.622.719.524,1.592.854,2.292,1.418,6.447,5.243,13.924,9.205,20.119,14.662s8.545,13.634,8.021,22.023Zm-22.314-6.8c-.719.388-1.942.466-1.942-.155-.233-3.884-3.5-6.661-3.437-10.584,2.544,2.933,3.049,6.952,5.943,9.594.35.466-.078.952-.621,1.2Zm-51.774-1.126c2.913-2.641,3.4-6.68,5.826-9.71.369,4.02-3.282,6.7-3.36,10.6,0,.6-1.262.544-1.942.175s-1.029-.621-.583-1.01Zm16.022-37.17a48.547,48.547,0,0,0,10.118-12.914c3.36,5.321,6.428,10.351,11.147,14.138,1.825,1.456,1.4,5.826-.7,7.438-6.875,5.185-13.594,5.476-20.76,0a5.826,5.826,0,0,1,.136-8.6Zm60.066,29.266-.621-.272c-.33-.155-.35-.369,0-.447a2.991,2.991,0,0,1,.913,0Zm39.986,95.7c-6.214-1.476-12.409-3.107-18.566-4.8a8.933,8.933,0,0,1-7.108-8.428c-.214-5.36,2.932-7.982,8.292-7.166a34.47,34.47,0,0,1,14.157,5.5c.524.35,1.049.738,1.592,1.049,1.457.854,3.049,1.224,4.117-.33s.35-2.932-.971-4.059a112.145,112.145,0,0,1-12.895-12.681,28.062,28.062,0,0,1-6.04-13.011,3.729,3.729,0,0,1,1.651-4.641,3.671,3.671,0,0,1,4.8.854A72.488,72.488,0,0,1,508,1301.026a7.651,7.651,0,0,1,0,8.1,19.167,19.167,0,0,0-.583,14.526c.641,2.175,1.612,4.272,2.563,6.758a64.663,64.663,0,0,1-7.38-.854Zm19.42,13.3c-3.476,5.962-5.3,12.759-9.38,18.449-2.136,2.991-9.419,5.224-12.468,3.243a3.379,3.379,0,0,1-1.243-3.418,24.062,24.062,0,0,1,3.2-10.234c3.165-5.69,6-11.652,10.972-16.274a34.356,34.356,0,0,0,8.02,5.671c1.165.816,1.67,1.166.816,2.622Zm-2.505-8.894c-6.409-4.641-8.7-11.652-8.428-19.634.1-3.166,3.127-3.185,4.389-4.777,2.622-3.3,5.826-3.068,9.205-3.3a2.655,2.655,0,0,1,.777.272,6.621,6.621,0,0,1-2.719,2.447c-7.943,4.544-9.03,13.594-2.486,20,4.039,3.981,8.525,6.467,14.507,5.108,9.846-2.253,11.419-6.972,9.244-16.449a14.137,14.137,0,0,0-3.01-5.826c-1.282-1.534-2.544-3.088-3.884-4.719,7.224.563,11.866,5.554,12.235,13.109a19.689,19.689,0,0,0,0,3.884c1.69,6.253-1.942,9.185-6.8,11.652a21.187,21.187,0,0,1-23.11-1.709Zm26.469,30.936c-5.263,1.126-7.166.388-9.283-3.34-2.835-4.971-4.059-10.448-5.709-15.827-.583-1.942-.621-2.99,2.058-3.01a21.5,21.5,0,0,0,9.38-1.806c1.146-.582,1.942-.544,2.544.622,2.427,5.34,5.166,10.564,5.826,16.507-.039,3.554-1.087,6.079-4.894,6.914Zm31.965-33.519c4.156,4.525,3.69,5.651-1.5,8.681a10.137,10.137,0,0,1-7.419,1.146c-6.331-1.418-12.972-1.515-19.808-4.6,6.661-3.4,4.408-9.108,4.661-13.963.175-3.243.6-3.884,4.02-2.777,7.36,2.68,14.565,5.671,19.964,11.575Zm-1.767-40.355c2.136-.66,3.2-.272,3.418,2.35.68,8.506-1.476,12.468-9.263,16.138a33.186,33.186,0,0,1-14.953,3.884c-.524,0-1.282.214-2.039.252-1.2,0-1.359-.932-1.709-1.748s-.5-1.262.233-1.651c7.088-3.593,10.273-11.341,16.759-15.536a29.507,29.507,0,0,1,7.477-3.631Zm-12.293-15.885c2.117-.913,3.243.874,3.165,5.826a13.692,13.692,0,0,1-2.583,7.069c-3.4,5.049-6.6,10.351-11.982,13.807-3.651,2.35-4.331,1.631-8.467.971-5.069-.816-2.563-2.583-2.078-5.185,2.272-12.409,11.419-17.963,21.867-22.43Zm-32.121,18.391c-.835-7.923,1.049-15.672,1.612-23.5.194-2.525,1.107-6.234,4.02-6.331,2.389,0,3.224,3.69,3.418,5.826.777,8.331.427,16.624-4.971,23.731-1.282,1.689-2.583,3.437-1.2,5.554,2.1,3.185,0,2.991-2.156,2.932a33.551,33.551,0,0,1-3.67-.369c3.03-2.058,3.185-4.893,2.874-7.787Zm-4.505,17.478a9.322,9.322,0,0,1,11.652,5.574c1.029,2.447,2.855,4.758,1.67,7.768a8.312,8.312,0,0,1-8.059,5.709,13.07,13.07,0,0,1-12.254-9.244c-1.165-3.126,2.719-8.525,6.914-9.671ZM514.1,1272.362a25.246,25.246,0,0,1,6.467,8.972,71.855,71.855,0,0,1,6.117,18.1c.233,1.126.311,1.787-.893,1.826-2.719.1-5.049,1.942-7.9,1.554-1.068.175-2.175.583-2.758-1.029-2.7-7.651-6.253-15.012-7.768-23.013a11.012,11.012,0,0,1,0-3.884,4.059,4.059,0,0,1,6.739-2.524ZM525,1175.01a3.068,3.068,0,0,1-2.661,2.8c-2.059.447-2.544,1.942-.854,3.282s1.049,2.117.544,3.593c-4.389,12.953-10.448,25.246-13.594,38.7A134.41,134.41,0,0,0,504,1252.263a3.884,3.884,0,0,0,.7,2.544c.6.757,1.185,1.5,0,2.175a1.748,1.748,0,0,1-2.408-.524c-7.244-8.914-17.323-14.216-26.45-20.7a81.568,81.568,0,0,0-12.1-7.457c-4.117-1.942-8.234-4.311-10.739-8.506a3.243,3.243,0,0,0-2.874-1.748c-4.544.35-7.147-2.8-10.1-5.34-3.593-3.088-7.554-5.71-11.3-8.6-5.981-4.661-9.555-10.836-12.934-17.264-.757-1.457-1.359-2.835-3.243-2.8s-2.447,1.437-3.127,2.932a52.085,52.085,0,0,1-20.352,22.741c-2.039,1.282-3.515,3.438-5.554,4.68-2.622,1.612-4.777,4.467-8.545,3.709a2.953,2.953,0,0,0-2.292,1.2c-4.738,7.418-13.206,9.535-19.925,14.079-8.914,6.02-17.478,12.429-26.314,18.624a15.826,15.826,0,0,0-3.476,4.02c-1.359,1.942-2.6,1.34-4.6,0,3.263-.913,2.855-3.049,2.758-5.282-.893-19.867-7.011-38.452-14.39-56.668-1.146-2.816-2.175-5.651-3.185-8.525-.66-1.942-1.592-3.5.757-4.933.719-.447.893-1.942-.214-2.253-5.962-1.786-4.234-6.991-4.583-10.875a53.269,53.269,0,0,1,3.612-23.3c.893-2.486,2.272-4.8,3.34-7.2.66-1.515,1.515-3.127,0-4.6s-2.932-.544-4.311,0c-7.4,3.476-14.9,6.564-23.3,6.875a61.233,61.233,0,0,1-14.837-.7,3.049,3.049,0,0,1-2.8-2.641c-.427-2.058-1.942-2.563-3.263-.874s-2.117,1.049-3.612.563c-12.856-4.292-25.091-10.331-38.354-13.419a150.658,150.658,0,0,0-29.13-4.564,3.4,3.4,0,0,0-3.729,2.816c-1.476-1.942-2.078-3.379-.369-4.719,7.768-6.117,12.409-14.817,18.061-22.644a117.421,117.421,0,0,0,10.215-16.274,22.781,22.781,0,0,1,8.118-10.1,3.4,3.4,0,0,0,1.942-3.2c-.486-3.34,1.534-5.5,3.3-7.768,4.544-5.826,8.933-11.652,13.9-17.187,3.884-4.136,8.972-6.642,13.982-9.166,1.457-.719,2.835-1.359,2.8-3.224s-1.437-2.466-2.932-3.146a52.086,52.086,0,0,1-22.741-20.352c-1.282-1.942-3.437-3.515-4.68-5.554-1.612-2.622-4.486-4.777-3.709-8.545a2.951,2.951,0,0,0-1.2-2.291c-7.418-4.719-9.458-13.245-14.1-19.925-5.826-8.389-11.652-16.876-17.828-24.974a37.814,37.814,0,0,0-5.069-4.6,1.942,1.942,0,0,1-.621-2.719c.8-1.185,1.5-.35,2.194.175a5.283,5.283,0,0,0,3.729.485c18.274-.854,35.5-6.1,52.434-12.468,4.292-1.612,8.137-4.292,12.8-5.088,1.942-.311,3.709-1.631,5.282.8a1.262,1.262,0,0,0,2.214-.369c1.69-5.826,6.816-4.195,10.545-4.505,10.972-.951,21.168,2.33,30.936,7.108,1.34.641,2.894,1.3,4.292-.117s.68-2.952,0-4.292c-3.632-7.5-6.68-15.186-6.991-23.634a81.119,81.119,0,0,1,.7-14.856c.466-3.01,4.156-1.592,4.467-4.059.252-1.942-2.7-2.33-1.592-5.263,4.836-12.778,10.467-25.246,13.594-38.665a139.436,139.436,0,0,0,4.467-29.13,2.952,2.952,0,0,0-.835-2.466c-.583-.544-2.563-.6-.816-1.942a1.942,1.942,0,0,1,2.971.311c7.2,8.312,16.74,13.594,25.576,19.905a105.463,105.463,0,0,0,13.711,8.487,23.3,23.3,0,0,1,10.39,8.331,3.282,3.282,0,0,0,2.874,1.728c4.525-.33,7.185,2.758,10.079,5.341,3.534,3.146,7.477,5.826,11.225,8.661,6.1,4.583,9.458,10.8,12.973,17.07.777,1.418,1.282,2.874,3.146,2.932s2.563-1.282,3.243-2.8a51.6,51.6,0,0,1,20.255-22.547c2.68-1.69,4.913-4.059,7.438-6,1.787-1.379,3.515-2.874,6.137-2.389a3.631,3.631,0,0,0,3.554-1.942c2.641-4.253,6.991-6.35,11.108-8.681a233.522,233.522,0,0,0,35.228-24.508c1.379-1.146,1.845-3.068,3.69-3.748a1.689,1.689,0,0,1,1.767,0c.486.349.66.912.311,1.3-2.7,3.068-1.243,6.913-.952,9.962a137.882,137.882,0,0,0,4.6,23.906,267.314,267.314,0,0,0,9.5,27.188c1.2,2.952,2.369,5.826,3.34,8.894.583,1.942,1.612,3.5-.757,4.952-.719.427-.913,1.942.194,2.253,5.981,1.767,4.272,6.972,4.6,10.856.971,11.011-2.408,21.148-7.185,30.917a3.166,3.166,0,0,0,.117,3.884c1.515,1.554,3.107.757,4.583,0,7.516-3.593,15.225-6.622,23.654-6.913a53.257,53.257,0,0,1,14.468.816c1.165.291,2.214.563,2.505,1.942.544,2.68,1.845,3.437,3.787,1.146,1.068-1.262,1.942-.6,3.01-.311,8.817,2.33,16.837,6.739,25.46,9.71a206.181,206.181,0,0,0,30.878,7.516A101.7,101.7,0,0,0,638.913,935c1.69,0,3.224-3.4,4.428-.583.8,1.942-1.942,2.835-3.185,4.156A226.938,226.938,0,0,0,620,966.109c-3.03,4.583-5.671,9.457-8.428,14.215a17.052,17.052,0,0,1-5.069,5.2c-1.223.893-2.389,2.039-2.156,3.437.68,3.884-2.1,6.486-4.156,8.72-3.884,4.253-6.972,9.147-10.681,13.594-4.525,5.379-10.37,8.526-16.255,11.788-1.4.777-2.855,1.282-2.894,3.146s1.3,2.544,2.816,3.224a52.086,52.086,0,0,1,22.8,20.294c1.631,2.563,3.884,4.758,5.71,7.166,1.592,1.942,3.224,3.884,2.7,6.913a3.146,3.146,0,0,0,1.728,2.855c4.758,3.107,6.816,8.137,9.535,12.8a243.167,243.167,0,0,0,15.187,22.7c3.709,4.991,6.952,10.39,12.021,14.2a1.942,1.942,0,0,1,.233,2.971c-1.379,1.709-1.321-.427-1.942-.913a4,4,0,0,0-2.894-.757,134.992,134.992,0,0,0-22.683,3.224,187.1,187.1,0,0,0-34.276,11.031c-3.2,1.3-6.312,2.622-9.71,3.631-1.845.544-3.185,1.165-4.583-.8a1.359,1.359,0,0,0-2.486.369c-1.767,5.826-6.894,4-10.6,4.35a53.91,53.91,0,0,1-23.3-3.534c-2.6-.932-4.991-2.447-7.535-3.535-1.359-.6-2.894-1.321-4.292,0s-.641,2.913,0,4.292c3.185,7.535,6.758,14.934,6.972,23.3a64.321,64.321,0,0,1-.758,15.07Zm52.026,15.9c-1.69,1.554-3.67-.971-5.612-1.359q-19.779-3.932-39.131-9.535c-2.661-.777-3.69-1.34-3.088-4.564a56.318,56.318,0,0,0-4.35-34.839c-.485-1.049-1.612-2.292.466-2.8l4.02,1.709a55.812,55.812,0,0,0,32.393,3.36c3.127-.583,3.884.252,4.622,3.01,3.709,12.914,6.914,25.945,9.516,39.131.388,2.078,3.165,4.1,1.165,5.943Zm21.362,32.432a44.434,44.434,0,0,1-13.206-20.294c-.466-1.554-1.4-3.884-.718-4.7,1.223-1.379,3.321,0,4.933.5,11.924,3.5,20.1,11.361,26.567,21.77,2.874,4.6,3.884,9.516,6.1,14.9a52.433,52.433,0,0,1-23.692-12.118Z" transform="translate(-1496.957 16694.229)" fill="#043052"/>
    <path id="Path_1170" data-name="Path 1170" d="M357.257,884.6a1.834,1.834,0,0,0,0-.311.737.737,0,0,0-.117.311h.117Z" transform="translate(-1181.937 16927.506)" fill="#043052"/>
    <path id="Path_1171" data-name="Path 1171" d="M176.43,703.766h0a.583.583,0,0,0,.35-.136,1.474,1.474,0,0,0-.35.116Z" transform="translate(-1352.166 16757.322)" fill="#043052"/>
    <path id="Path_1172" data-name="Path 1172" d="M89.944,790.26a3.889,3.889,0,0,0-.194.427.485.485,0,0,0,.233-.408h0Z" transform="translate(-1433.818 16838.93)" fill="#043052"/>
    <path id="Path_1173" data-name="Path 1173" d="M270.36,703.56a.427.427,0,0,0,.272.233h0a.814.814,0,0,0-.272-.233Z" transform="translate(-1263.684 16757.258)" fill="#043052"/>
    <path id="Path_1174" data-name="Path 1174" d="M357.19,790.26h0a.544.544,0,0,0,.214.427,2.5,2.5,0,0,0-.175-.427Z" transform="translate(-1181.89 16838.93)" fill="#043052"/>
    <path id="Path_1175" data-name="Path 1175" d="M413.749,965.142c.99-5.341,1.825-10.429,6.02-14.837,8.389-8.817,8.739-17.342,2.272-27.848-3.69-5.981-7.321-11.963-13.788-15.536-1.67-.952-3.884-2.6-.485-5.185a60.2,60.2,0,0,0,14.546-16.954c6.137-10.079,4.972-20.974-3.573-28.974a11.265,11.265,0,0,1-4.078-8.157c-.117-3.884-.447-7.981-2.971-10.972-5.03-5.943-10.623-11.3-19.42-10.079-5.224,0-6.234-.466-7.049-3.34-1.592-5.612-9.147-12.972-14.8-14.856-1.379-.466-4-.583-3.437-3.2a35.587,35.587,0,0,0,.136-4.971c.544-8.991-6.991-18.721-15.866-20.333a28.432,28.432,0,0,1-14.779-6.331c-6.913-6.02-15.536-9.166-24.489-4.078-6.739,3.884-13.38,7.923-18.119,14.448-3.612,4.971-4.389,5.146-6.739,1.476-4.486-6.933-11.38-10.836-17.808-15.361-8.37-5.826-20.7-1.942-27.5,4.544A12.9,12.9,0,0,1,233.1,779a17.848,17.848,0,0,0-10.856,3.34c-6.758,5.69-11.147,12.545-9.438,21.712.6,3.146-1.34,3.884-2.971,4.272-7.049,1.845-10.992,7.457-14.565,12.817s-2.932,5.826-9.205,5.418c-8.331-.544-18.565,7.321-19.983,15.536-.952,5.535-2.1,10.565-6.331,15.186-5.826,6.331-8.8,14.623-4.855,23.129a59.036,59.036,0,0,0,17.478,21.809c2.35,1.825,1.787,2.641,0,3.884a44.96,44.96,0,0,0-13.186,14.138c-2.6,4.02-5.826,7.768-5.71,13.128a26.8,26.8,0,0,0,7.768,18.973,11.653,11.653,0,0,1,4.039,8.176,17.711,17.711,0,0,0,3.4,11.205c5.612,6.642,12.371,10.992,21.362,9.38,3.5-.621,3.884,1.418,4.641,3.418a24.294,24.294,0,0,0,13.225,14.118c3.981,1.942,5.612,3.3,4.933,7.38v1.942c-.544,8.292,7.457,18.119,15.536,19.964,4.292.971,9.458-.194,12.623,4.136a18.08,18.08,0,0,0,7.457,5.5c7.418,3.4,14.584,4.467,22.119-.68a76.96,76.96,0,0,0,17.983-15.711c1.107-1.4,1.787-1.515,2.913,0a54.823,54.823,0,0,0,14.177,13.167c4.525,2.816,8.661,6.525,14.526,6.215a26.587,26.587,0,0,0,17.653-7.224,13.846,13.846,0,0,1,9.361-4.6,17.79,17.79,0,0,0,11.419-3.884c6.02-5.612,10.157-12.079,8.622-20.6-.641-3.573,1.2-4.214,3.573-4.874,5.069-1.4,12.914-9.438,14.584-14.7.466-1.456.563-4.02,3.107-3.554,1.825.311,3.573,0,5.36.155C402.292,981.493,412.157,973.706,413.749,965.142Zm-30.7-129.279c-.311,6.04-2.8,9.419-10.021,13.206-.719-5.127,4.175-13.38,8.545-14.817C383.338,833.668,383.1,834.717,383.046,835.863ZM338.38,783.914c1.787,6.68-7.2,15.284-12.176,17.148a2.777,2.777,0,0,1-3.185-.757,3.107,3.107,0,0,1-.116-3.612,25.635,25.635,0,0,1,9.05-9.71,15.187,15.187,0,0,1,6.428-3.068Zm-81.875,12.157c.854,1.4,1.573,3.185-.136,4.525a3.437,3.437,0,0,1-4.292-.214c-5.943-3.884-10.933-8.37-11.05-16.721a29.13,29.13,0,0,1,15.478,12.409Zm-59.542,38.18c.777-.6,1.418.136,1.942.583a17.75,17.75,0,0,1,8.292,14.429c-6.389-2.7-9.982-6.583-10.487-12.875C196.731,835.649,196.207,834.795,196.964,834.251Zm-.272,137.241a13.594,13.594,0,0,1,10.1-12.875c.583,4.913-4.37,13.205-8.661,14.546-1.806.563-1.5-.563-1.437-1.67Zm44.666,51.89c-1.806-6.506,7.147-15.109,12.157-17.051a2.855,2.855,0,0,1,3.2.719,3.068,3.068,0,0,1,.136,3.632,24.722,24.722,0,0,1-9.05,9.71,11.982,11.982,0,0,1-6.467,3.01Zm82.049-11.827c-.874-1.418-1.728-3.127-.214-4.564s3.243-.757,4.894.291c5.826,3.748,10.273,8.35,10.8,16.6a30.722,30.722,0,0,1-15.5-12.332Zm58.1-38.452c-3.515-1.321-8.914-9.05-8.914-12.817,0-1.34,0-2.311,1.942-1.379a14.681,14.681,0,0,1,8.584,12.72c.039,1.282.019,2.1-1.631,1.476Zm9.71,3.5c-2.35-.311-3.418-1.029-3.457-3.534-.136-8.953-4.156-15.381-12.545-18.993-3.884-1.728-7.011-.194-7.166,4.214-.272,8.254,4.447,13.749,10.526,18.488,1.165.893,3.729.427,3.476,2.33-.33,2.466-.8,5.34-2.971,6.933a29.5,29.5,0,0,0-6.719,6.739c-1.573,2.233-4.467,2.408-6.894,3.107-1.631.486-1.223-1.243-1.709-1.942-4.292-6.8-9.826-11.827-18.352-12-5.418-.117-7.011,2.8-4.836,7.768a18.721,18.721,0,0,0,17.769,11.9c3.282,0,4.078,1.3,4.525,4.544,1.4,10.273-8.37,17.905-17.478,18.546-2.117.155-1.942-1.262-2.292-2.719-1.942-9.147-6.914-15.827-15.866-19.148a6.156,6.156,0,0,0-7.593,1.942,6.68,6.68,0,0,0-.311,7.943,37.23,37.23,0,0,0,16.915,15.011h.544l-.544.447c-1.728,4.136-10.662,8.467-16,8-8.331-.738-14.021-5.962-19.672-11.264a81.965,81.965,0,0,1-5.729-6.176c-1.534-1.767-2.777-3.5-1.515-6.214.68-1.476.563-3.884-2.525-2.738a2.427,2.427,0,0,1-1.845,0c-3.088-1.165-3.185,1.282-2.505,2.758a4.971,4.971,0,0,1-1.262,5.826,61.343,61.343,0,0,1-18.391,15.711c-8.914,4.525-15.886,1.107-21.848-3.729-1.942-1.573-1.01-2.835.777-3.884a45.309,45.309,0,0,0,11.652-9.244,2.855,2.855,0,0,1,2.292-2.66c1.282-3.049,3.165-6.04.952-9.419s-7.418-3.884-11.652-1.107c-6.7,4.486-11.3,10.332-12.312,18.546a1.942,1.942,0,0,1-2.292,1.942c-9.166-.68-18.876-8.409-17.381-18.585.427-2.874.777-4.389,4.156-4.447,8.817-.136,14.973-4.505,18.507-12.623,1.631-3.767,0-6.681-4.078-7.05-6.1-.544-10.8,2.466-15.07,6.292-1.321,1.165-2.233,2.816-3.515,4.039s-.524,3.884-2.6,3.632c-2.563-.408-5.476-.835-7.127-3.321a22.39,22.39,0,0,0-6.214-6.176c-2.428-1.67-2.486-4.661-3.36-7.166-.233-.7.388-.99,1.049-1.282,6.428-2.758,10.137-7.923,12.526-14.235a5.129,5.129,0,0,0,.5-1.826c0-2.816.6-5.826-2.078-7.768s-5.146,0-7.438,1.243a18.721,18.721,0,0,0-10.157,17.362c0,3.088-1.32,3.709-4.156,4-11.322,1.243-17.653-7.438-18.818-17.187-.291-2.408,1.262-2.156,2.835-2.505,8.953-1.942,15.536-6.875,18.915-15.536a6.234,6.234,0,0,0-1.942-7.9,6.991,6.991,0,0,0-8.273,0,38.122,38.122,0,0,0-13.089,13.749c-2.059,3.4-2.7,3.457-5.107.33-6.622-8.584-6.389-15.691,0-25.11a72.531,72.531,0,0,1,12.662-13.691c1.748-1.554,3.457-2.719,6.214-1.534,1.845.816,3.418.447,2.835-2.913-.447-2.525.447-4.777-3.321-4.195-1.321,1.942-2.583,2.214-3.767-.117A48.548,48.548,0,0,1,163.484,886.8c-2.932-3.884-5.5-7.865-5.826-13.011-.447-6.467,2.68-11.264,6.583-15.788,1.4-1.612,1.942-.388,2.6.913a38.644,38.644,0,0,0,12.118,14.118,11.477,11.477,0,0,0,5.185,2.408,6.234,6.234,0,0,0,6.564-3.166,8.991,8.991,0,0,0-1.107-9.438c-4.389-6.739-10.293-11.3-18.527-12.312-1.4-.155-1.942-.815-1.845-2.292,1.088-9.574,7.438-18.721,19.206-17.323,2.466.311,3.729.854,3.767,3.612a19.42,19.42,0,0,0,12.584,18.954c3.884,1.709,6.991.116,7.127-4.292.272-8.273-4.505-13.73-10.564-18.468-1.146-.893-3.709-.388-3.437-2.35.35-2.466.8-5.321,2.971-6.914a29.6,29.6,0,0,0,6.739-6.739c1.554-2.214,4.467-2.311,6.875-3.107.7-.233,1.049.214,1.359.913a23.421,23.421,0,0,0,13.827,12.448,12.584,12.584,0,0,0,7.147.485c3.418-.68,4.408-3.476,2.952-6.816-3.534-8.156-9.71-12.506-18.507-12.642-3.36,0-3.729-1.573-4.156-4.447-1.5-10.176,8.215-17.905,17.381-18.585,2.1-.155,2.039,1.165,2.33,2.66a24.527,24.527,0,0,0,15.07,18.954c3.029,1.3,6.059,1.223,8.331-1.69s1.806-5.69,0-8.584a7.609,7.609,0,0,1-.5-1.418c-1.223-.485-2.272-1.126-2.292-2.66a45.205,45.205,0,0,0-11.652-9.244c-2.466-1.34-2.272-2.641-.233-4.311,8.02-6.486,16.721-7.224,25.4-.738a90.841,90.841,0,0,1,14.021,12.856,6,6,0,0,1,1.942,4.467l.544.544-.563.175c-.738,1.34-1.146,3.3.175,3.768a9.885,9.885,0,0,0,5.826,0c1.107-.349.932-2.194.233-3.437-1.01-1.806,0-3.263,1.029-4.564A60.92,60.92,0,0,1,313.581,773c6.486-3.321,17.012-1.049,21.517,4.408,1.476,1.806.447,2.719-1.068,3.573a51.172,51.172,0,0,0-12.448,10c.544,1.4-.583,1.573-1.437,1.942-1.243,2.8-2.855,5.573-1.379,8.778,1.748,3.729,7.2,4.874,11.458,2.156,6.855-4.389,11.769-10.254,12.875-18.643.214-1.5.6-2.369,2.369-2.214,9.3.8,18.837,8.2,17.3,19.012-.369,2.622-.874,3.884-3.884,3.981A19.226,19.226,0,0,0,340.225,818.4c-1.825,4.195-.233,7.185,4.408,7.3A19.42,19.42,0,0,0,362.5,815.084c2.408-4.311,5.049-3.884,7.224-1.845,4.117,3.768,9.224,6.739,11.477,12.312.893,2.233.952,3.34-1.69,4.874-6.8,3.884-11.516,9.71-11.652,18.158,0,5.166,2.874,6.68,7.574,4.622,8.137-3.554,11.9-9.865,12.1-18.449,0-2.932,1.321-3.457,3.884-3.884,10.8-1.534,18.216,7.943,19.032,17.284.175,2.1-1.068,2.1-2.583,2.389-9.147,1.942-15.847,6.836-19.226,15.769a6.214,6.214,0,0,0,2.156,7.768,6.68,6.68,0,0,0,7.943,0A31.285,31.285,0,0,0,412.6,858.254c.757-2.1,2.078-1.379,2.738-.621,6.855,7.982,9.807,16.41,2.272,26.9a83.19,83.19,0,0,1-13.05,14.2c-1.787,1.554-3.515,2.738-6.234,1.476-1.515-.68-3.884-.485-2.7,2.6a2.272,2.272,0,0,1,0,1.476c-1.3,3.651,1.088,3.457,3.107,2.641a4.506,4.506,0,0,1,4.952,1.01,62.554,62.554,0,0,1,16.565,19.42c3.632,6.875.854,18.449-5.2,22.644-.777.544-1.942,1.087-2.525-.777-2.214-6.583-6.972-11.186-12.468-15.07-4.02-2.835-7.438-2.758-10.157,0s-2.389,6.991,0,10.623c4.467,6.7,10.312,11.322,18.546,12.332,1.4.175,2.039.815,1.942,2.292-.66,9.516-7.593,18.7-19.206,17.206Zm-33.558,20.275c-6.428-.5-10.565-3.884-13.109-10.118,5.243-.524,12.584,3.884,14.643,8.37.816,1.9-.117,1.845-1.573,1.748Zm-136.95-1.942a18.332,18.332,0,0,1,12.2-8.545c1.107-.194,2.991-.563,1.767,1.806-2.68,5.146-6.661,8.37-12.74,8.545-1.612.369-2.292-.155-1.262-1.709ZM169.737,952.6a30.586,30.586,0,0,1,12.332-15.536c1.418-.874,3.146-1.729,4.564-.175s.738,3.243-.33,4.894c-3.787,5.885-8.389,10.409-16.6,10.914Zm.427-97.566c6.719-1.515,14.9,6.952,17.051,12a2.913,2.913,0,0,1-.524,3.263c-1.243,1.3-2.719.777-3.884.194a25.867,25.867,0,0,1-9.574-9.127,13.109,13.109,0,0,1-3.107-6.234Zm52.182-44.491c5.826.214,9.477,3.321,12.157,8.137.932,1.709.719,2.253-1.223,2.214-3.884,0-11.652-5.477-12.778-8.953-.738-2.02.738-1.5,1.806-1.3Zm136.872,1.573c-1.942,4.486-9.341,8.895-14.681,8.467,2.544-6.176,6.661-9.71,13.089-10.137,1.359-.019,2.408-.194,1.554,1.767Zm50.609,43.015a28.78,28.78,0,0,1-12.934,15.42,2.952,2.952,0,0,1-3.612-.1,2.835,2.835,0,0,1-.738-3.2c1.864-4.894,10.448-13.866,17.245-12.021Zm-.175,97.1c-6.778,1.476-14.934-7.03-17.051-12.04a2.855,2.855,0,0,1,.544-3.243c1.243-1.32,2.7-.757,3.884-.175A25.42,25.42,0,0,1,406.6,945.9a12.953,12.953,0,0,1,3.01,6.389Z" transform="translate(-1374.137 16816.961)" fill="#043052"/>
    <path id="Path_1176" data-name="Path 1176" d="M303.548,862.946a8.35,8.35,0,0,0-4.719,8.855c1.573,5.515,7.088,10.7,10.661,9.982a5.418,5.418,0,0,0,2.136-.835c3.01-2.233,5.049-5.068,5.108-7.613C316.617,865.16,309.723,860.441,303.548,862.946Zm8.506,9.419a4.913,4.913,0,0,1-3.593,4.913c-1.4.349-5.593-5.826-5.127-7.554.233-.874.233-2.991,2.369-1.126C309.432,866.889,312.151,867.568,312.054,872.365Z" transform="translate(-1236.961 16906.764)" fill="#043052"/>
    <path id="Path_1177" data-name="Path 1177" d="M305.273,821.634c7.438.136,11.516-3.243,11.516-9.5,0-4.622-4.272-9.71-8.176-9.826s-9.982,7.438-9.943,11.846C298.709,817.536,302.263,821.575,305.273,821.634Zm3.534-14.623a6.292,6.292,0,0,1,3.457,5.224c-.427,1.942-.952,4.894-3.165,4.078-1.942-.7-5.71,2.214-5.826-2.447C303.292,811.924,307.6,806.486,308.807,807.01Z" transform="translate(-1237.016 16850.279)" fill="#043052"/>
    <path id="Path_1178" data-name="Path 1178" d="M198.728,912.633c-4.661,1.223-10.429,6.622-10.215,9.71a6.253,6.253,0,0,0,1.049,3.243,11.128,11.128,0,0,0,7.613,4.933c8.292,0,13.342-7.768,9.962-13.769a8.272,8.272,0,0,0-8.409-4.117Zm-.719,13.361a5.826,5.826,0,0,1-4.874-3.554c-.447-1.146,5.243-5.341,6.991-5.341,1.146,0,2.369.291,2.408,1.554.252,5.593-.719,7.244-4.525,7.341Z" transform="translate(-1340.789 16954.121)" fill="#043052"/>
    <path id="Path_1179" data-name="Path 1179" d="M188.482,761.406c.175,3.709,7.923,9.846,12.137,9.593a7.768,7.768,0,0,0,6.8-8.72c-.408-6.428-3.884-9.807-9.865-9.361C193.065,753.249,188.326,757.7,188.482,761.406Zm4.738-.738a5.826,5.826,0,0,1,6.1-3.088c1.942.388,3.612,1.321,3.34,3.884-1.942,1.049,1.942,5.438-2.913,4.875C197.532,766.105,192.5,761.794,193.22,760.668Z" transform="translate(-1340.816 16803.717)" fill="#043052"/>
    <path id="Path_1180" data-name="Path 1180" d="M152.493,821.116a8.118,8.118,0,0,0,4.428-8.933c-1.767-5.574-6.836-10.429-10.37-9.807a5.515,5.515,0,0,0-2.486.932,11.244,11.244,0,0,0-4.952,7.554C138.9,819.174,146.142,824.088,152.493,821.116Zm-8.758-9.283a6.8,6.8,0,0,1,3.282-5.03c1.554,0,5.574,5.438,5.574,7.108,0,1.146-.291,2.35-1.554,2.389-6.176.272-7.749-.7-7.4-4.389Z" transform="translate(-1387.323 16850.291)" fill="#043052"/>
    <path id="Path_1181" data-name="Path 1181" d="M268,922.251c0-3.5-7.3-9.71-11.652-9.71-3.515-.117-7.768,3.534-7.768,6.7,0,8.526,3.03,10.565,9.3,11.4C262.8,930.641,268.039,926.271,268,922.251Zm-4.7,0c-.66,2.486-2.855,3.3-5.263,3.884-1.651-.777-5.166-.641-4.117-2.952.893-1.942-2.233-5.671,2.233-6.059,1.612-.155,7.477,3.962,7.147,5.146Z" transform="translate(-1284.2 16954.115)" fill="#043052"/>
    <path id="Path_1182" data-name="Path 1182" d="M257.888,770.806c4.661-1.224,10.409-6.642,10.215-9.71a6.039,6.039,0,0,0-1.068-3.243,11.07,11.07,0,0,0-7.593-4.933c-8.292,0-13.361,7.768-9.962,13.769a8.254,8.254,0,0,0,8.409,4.117Zm.816-13.264a4.738,4.738,0,0,1,4.739,3.651c.252,1.282-5.574,5.282-7.166,5.146s-2.7-.408-1.554-2.641c-1.9-3.826-.854-6.37,3.981-6.156Z" transform="translate(-1284.361 16803.756)" fill="#043052"/>
    <path id="Path_1183" data-name="Path 1183" d="M148.425,862.693c-6.447.388-9.71,3.884-9.341,9.885.33,4.467,4.836,9.225,8.525,9.03s9.71-8.234,9.555-12.1a7.768,7.768,0,0,0-8.739-6.817Zm3.884,8.215a17.476,17.476,0,0,1-2.7,4.117c-.777.854-1.631,2.622-2.971,1.767a5.826,5.826,0,0,1-3.01-5.4,4.292,4.292,0,0,1,2.253-4.117,1.943,1.943,0,0,1,.757,0c1.5,0,2.816,1.806,4.641.272.388-.31,1.69,2.02,1.068,3.36Z" transform="translate(-1387.372 16907.098)" fill="#043052"/>
    <path id="Path_1184" data-name="Path 1184" d="M311.378,810.384c2.7.641,3.593,3.068,5.379,4.544a5.534,5.534,0,0,0,4.913,1.476c3.69-.777,5.4-3.262,5.651-9.3a10.72,10.72,0,0,0-1.709-6.739,7.146,7.146,0,0,0-6.778-3.593c-2.6,0-3.787,1.826-4.661,3.884a19.964,19.964,0,0,1-3.36,6.739C309.941,808.345,310.174,810.112,311.378,810.384Zm7.5-8.894c.738-1.126,1.942,0,2.855.816a3.729,3.729,0,0,1,1.165,3.884,8.314,8.314,0,0,1,0,1.554c-.33,1.554,0,3.884-1.787,4.234s-3.5-1.787-4.156-3.379C315.9,805.976,317.5,803.529,318.875,801.49Z" transform="translate(-1226.07 16845.041)" fill="#043052"/>
    <path id="Path_1185" data-name="Path 1185" d="M141.347,801.162c-.874-2.233-1.942-4.292-4.738-4.428a7.2,7.2,0,0,0-6.642,3.185,11.5,11.5,0,0,0-1.942,7.283,17.13,17.13,0,0,0,.835,4.913c1.651,4.642,6.564,6.156,9.846,2.563,1.806-1.942,4.661-2.952,5.826-5.049,1.5-2.835-2.738-4.505-2.816-7.36a3.768,3.768,0,0,0-.369-1.107Zm-4.661,9.36c-.835.524-1.379,1.825-2.486,1.476s-1.34-1.728-1.515-2.855-.272-1.942-.408-3.03a4.292,4.292,0,0,1,1.3-3.884c1.728-1.67,3.068-1.728,3.884.8s2.6,5.379-.777,7.554Z" transform="translate(-1397.792 16845)" fill="#043052"/>
    <path id="Path_1186" data-name="Path 1186" d="M200.932,930.415c-1.942-1.825-2.991-4.6-5.049-5.826-2.874-1.651-4.486,2.758-7.36,2.8a4.048,4.048,0,0,0-1.456.427c-2.117.854-4,1.942-4.117,4.544a7.166,7.166,0,0,0,3.418,6.875,11.205,11.205,0,0,0,6.583,1.825,18.837,18.837,0,0,0,5.282-.816C202.893,938.611,204.447,933.736,200.932,930.415Zm-2.8,4.583c-.447,1.087-1.806,1.243-2.932,1.4l-3.029.369a4,4,0,0,1-3.515-1.126c-1.825-1.767-2.058-3.243.757-4.078,2.447-.719,5.01-2.6,7.127.641.6.932,2.078,1.5,1.592,2.8Z" transform="translate(-1346.061 16965.119)" fill="#043052"/>
    <path id="Path_1187" data-name="Path 1187" d="M269.779,928.017a19.521,19.521,0,0,1-6.758-3.359,1.767,1.767,0,0,0-2.932.582c-.621,2.68-3.049,3.573-4.525,5.36a5.534,5.534,0,0,0-1.515,4.952c.777,3.69,3.263,5.4,9.3,5.651a10.6,10.6,0,0,0,6.739-1.709,7.146,7.146,0,0,0,3.593-6.778C273.7,930.076,271.9,928.891,269.779,928.017Zm-.641,5.826a3.67,3.67,0,0,1-4.447,2.952,10.036,10.036,0,0,1-2.136-.155c-1.456-.6-4.02.272-4-2.35,0-1.942,4.02-4.195,5.826-3.69a5.51,5.51,0,0,1,1.029.485c1.418.816,4.175.292,3.729,2.816Z" transform="translate(-1279.143 16965.012)" fill="#043052"/>
    <path id="Path_1188" data-name="Path 1188" d="M255.806,752.529c1.942,1.826,2.991,4.622,5.049,5.826,2.874,1.631,4.486-2.758,7.36-2.8a4.039,4.039,0,0,0,1.456-.427c2.117-.854,4-1.942,4.117-4.563a7.166,7.166,0,0,0-3.437-6.855,10.992,10.992,0,0,0-6.039-1.942,23.6,23.6,0,0,0-5.826.874C253.844,744.334,252.271,749.208,255.806,752.529Zm2.874-4.564c.5-1.631,2.777-1.456,4.389-1.651,3.437-.408,6.409,1.185,6.35,3.03A1.514,1.514,0,0,1,268,751.072c-2.136.408-4.156,2.719-6.409.952-1.3-1.029-3.593-2.156-2.913-3.981Z" transform="translate(-1279.211 16793.25)" fill="#043052"/>
    <path id="Path_1189" data-name="Path 1189" d="M187.109,755.091a18.022,18.022,0,0,1,6.428,3.2,1.942,1.942,0,0,0,3.2-.738,12.662,12.662,0,0,1,4.02-4.777,5.826,5.826,0,0,0-.8-9.458,12.566,12.566,0,0,0-6.331-1.437,10.681,10.681,0,0,0-7.3,1.806,7.107,7.107,0,0,0-3.379,6.894C183.089,753.149,185.031,754.237,187.109,755.091Zm.33-5.943c0-1.787,2.408-3.01,5.826-2.913a1.838,1.838,0,0,1,.854,0c1.5.563,4-.253,4.1,2.311,0,1.806-4.02,4.234-5.826,3.748a4.277,4.277,0,0,1-1.049-.485C189.905,751.071,187.322,751.887,187.439,749.149Z" transform="translate(-1346.065 16793.291)" fill="#043052"/>
    <path id="Path_1190" data-name="Path 1190" d="M143.654,873.761a11.964,11.964,0,0,1-4.777-4.04,6.35,6.35,0,0,0-2.971-1.942c-3.2,0-5.03.68-6.292,2.427-2.389,3.263-1.942,11.652.563,14.623,3.612,4.292,9.089,3.379,11.186-1.942a14.429,14.429,0,0,1,2.835-5.826,1.942,1.942,0,0,0-.544-3.3Zm-5.282,4.68c-.175.35-.291.719-.466,1.068-.66,1.34-.272,3.884-2.525,3.5a3.535,3.535,0,0,1-3.088-4.311,16.976,16.976,0,0,1,.1-2.156c.291-1.476.155-3.3,1.554-4.136s1.942.8,2.777,1.5c1.418,1.185,2.7,2.447,1.651,4.544Z" transform="translate(-1397.749 16911.951)" fill="#043052"/>
    <path id="Path_1191" data-name="Path 1191" d="M314.065,883.423c.874,2.1,1.942,4.02,4.525,4.175a7.166,7.166,0,0,0,6.894-3.379,10.663,10.663,0,0,0,1.845-6.758,17.071,17.071,0,0,0-.932-5.437c-1.651-4.331-5.826-5.651-9.419-2.738-1.942,1.534-3.049,3.884-5.671,4.758a1.806,1.806,0,0,0-.427,2.971,17.282,17.282,0,0,1,3.185,6.408Zm4.583-9.593c.835-.524,1.379-1.942,2.486-1.476s1.34,1.728,1.5,2.855.291,1.942.408,3.03a4.233,4.233,0,0,1-1.3,3.884c-1.728,1.67-3.049,1.709-3.884-.816S315.269,876.024,318.648,873.83Z" transform="translate(-1226.077 16911.902)" fill="#043052"/>
    <path id="Path_1192" data-name="Path 1192" d="M340.7,873.765c4.739-5.671,3.437-17.478-5.729-19.672-3.224-.8-6.583,0-10.448-1.146,2.272-2.1,3.884-3.884,5.671-5.2a13.089,13.089,0,0,0,5.263-12.021c-.233-6.564-9.321-13.361-15.536-10.6-2.194.952-4.408,1.942-6.622,2.816-.66.291-1.418.874-2.059,0s0-1.2.233-1.787c.932-2.214,1.942-4.389,2.816-6.622,1.942-4.719,0-9.71-5.185-13.594a12.118,12.118,0,0,0-14.584.486c-2.7,2.486-5.3,5.068-8.059,7.768a10.643,10.643,0,0,1-.5-5.127c-.175-4.874-1.456-9.71-6.059-11.652s-10.409-2.6-14.74,1.826c-1.942,1.942-3.2.99-4.68-.272-6.2-5.341-18.41-3.554-20.119,6.37-.524,2.971.466,6.117-1.185,9.341-1.767-1.942-3.418-3.476-4.816-5.243a13.594,13.594,0,0,0-11.924-5.5c-6.739.155-13.788,9.477-10.817,15.711a27.528,27.528,0,0,0,2.136,4.875c.621.854,1.728,2.486.777,3.457s-2.816,0-3.748-.738a23.046,23.046,0,0,0-5.632-2.292c-4.156-1.612-9.71.971-12.817,5.5s-2.68,10.953.408,14.312c2.544,2.777,5.2,5.438,8.04,8.37a20.515,20.515,0,0,1-5.826.388c-5.243.175-9.982,2.292-12,7.011a11.438,11.438,0,0,0,2.544,13.594c2.039,1.826,1.3,3.3-.272,4.972a11.924,11.924,0,0,0,6.214,19.925c3.068.7,6.35-.388,9.71,1.224-1.942,1.806-3.515,3.515-5.321,4.913a13.108,13.108,0,0,0-5.379,12.351c.427,6.448,9.283,13.012,15.419,10.429l6.991-2.971c1.942-.8,2.466-.233,1.67,1.67-1.029,2.466-2.136,4.874-3.068,7.36-1.651,4.408.874,9.9,5.535,13.167a12.371,12.371,0,0,0,14.312-.544c2.719-2.544,5.3-5.282,8.661-8.661v6.214c0,5.438,2.253,10.273,7.108,12.332a11.769,11.769,0,0,0,13.594-2.641c1.457-1.534,2.777-1.942,4.35,0,4.331,4.913,9.846,4.136,14.759,1.942s6.02-7.011,6.137-12.04c0-1.67-.6-3.5.932-5.107a68.982,68.982,0,0,1,4.8,5.224,13.166,13.166,0,0,0,12.021,5.282c6.564-.213,13.38-9.3,10.642-15.536-.913-2.078-1.845-4.156-2.68-6.273-.291-.757-1.2-1.612-.214-2.408s1.456,0,2.117.35c2.214.913,4.389,1.942,6.642,2.8,4.544,1.69,9.516-.311,13.225-5.282a12.118,12.118,0,0,0-.466-14.584c-2.466-2.719-5.049-5.321-7.768-8.1,1.69-.932,3.632-.369,5.476-.485,4.719-.272,9.438-1.554,11.3-6.04,1.942-4.855,2.719-10.39-1.787-14.74C338.094,876.581,339.356,875.261,340.7,873.765Zm-22.061-44.142c6.02-3.146,13.808,1.942,12.487,8.409a6,6,0,0,1-2.719,5.632c-4.233,3.534-8.156,7.438-12.72,10.564-1.3.893-2.35,1.456-3.593,0a31.36,31.36,0,0,0-10.681-8c-1.67-.777-2.738-1.942-.757-3.263,6.176-4.292,11.225-9.885,17.983-13.439Zm-33.694-5.612a176.212,176.212,0,0,1,12.118-14.468c1.437-1.689,3.36-.913,4.913-1.379,7.108,0,10.2,5.826,7.554,12.157-2.971,7.127-8.7,12-12.817,18.158-1.34,1.942-2.583,1.573-3.534-.485a31.071,31.071,0,0,0-8-10.836c-1.282-1.029-1.068-1.942-.233-3.243Zm-40.374-17.478a7.2,7.2,0,0,1,9.186-6.311c1.437.33,3.2-1.165,4.117.466a16.136,16.136,0,0,1,2.272,7.088c0,1.942.272,4.078.369,6.117,0,1.67.777,2.8,2.525,2.719s2.156-1.107,2.253-2.6c.155-2.544.272-5.108.621-7.651s.6-5.127,3.651-5.962,6.311-1.262,8.953,1.3a8.487,8.487,0,0,1,2.874,5.3c.136,1.534,0,3.088,0,4.622h0a21.162,21.162,0,0,1,0,3.884,13.788,13.788,0,0,1-1.787,5.826c-1.942,2.447-3.321-.913-5.088-1.34-8.778-2.136-17.478-3.029-25.77,1.457-1.806.971-2.408.835-3.243-1.2a26.45,26.45,0,0,1-.932-13.769Zm-27.518,4.505c2.117-3.107,9.147-4.136,11.652-1.476a119.456,119.456,0,0,1,12.137,14.41,17.492,17.492,0,0,1,.952,1.826,11.436,11.436,0,0,1-1.146,1.418,32.276,32.276,0,0,0-7.982,10.7c-.932,1.942-1.942,2.544-3.554.583-3.729-4.68-7.613-9.244-11.147-14.079-3.865-5.3-3.942-8.914-.913-13.439ZM195.92,842.111c-2.428-2.369-1.748-5.826-.7-8.72,1.282-3.418,4.719-4.408,8.351-5.107,2.175,1.068,4.583,2.175,6.933,3.437,5.418,2.874,9.36,7.768,14.468,11.05,1.728,1.126,1.631,2.389-.388,3.321a32.061,32.061,0,0,0-11.011,8.215c-1.126,1.34-2.136.816-3.282,0a100.581,100.581,0,0,1-14.449-12.273Zm2.136,52.881c-4.855.369-8.894-.233-11.186-5.088a6.913,6.913,0,0,1,4.525-10.118,73.437,73.437,0,0,1,8.778-.893c1.612-.117,2.855-.6,2.874-2.389s-1.262-2.136-2.816-2.466c-3.69-.8-7.5,0-11.225-1.728s-2.932-5.5-2.913-7.768c0-3.709,4.6-6.622,8.642-6.622s7.9-.5,11.769,1.185c1.767.777,2.408,1.087,1.4,3.165a31.072,31.072,0,0,0,0,28.411c.777,1.612.971,2.33-1.049,3.029a18.623,18.623,0,0,1-8.8,1.2Zm12.021,26.586c-3.224,2.1-6.739,4.331-11.244,1.631a8.176,8.176,0,0,1-4.214-8.389,6.078,6.078,0,0,1,2.68-5.437c4.253-3.476,8.156-7.418,12.72-10.565,1.437-1.01,2.544-1.456,3.884.136a29.129,29.129,0,0,0,10.37,7.768c2.389,1.087,2.369,2.311.408,3.884-4.836,3.534-9.419,7.574-14.6,10.895Zm29.615,9.011c-3.185,4.389-7.166,8.079-10.467,12.351-1.554,1.942-3.593,1.573-5.671,1.942-6.312,0-9.846-5.224-7.9-11.283s6.525-10.39,10.487-15.051c1.534-1.825,2.389-5.243,4.777-5.146s2.311,3.67,3.709,5.457a25.245,25.245,0,0,0,4.6,5.632c2.991,2.02,2.253,3.651.466,6.02Zm35.772,22.139a6.991,6.991,0,0,1-9.3-4.641,79.3,79.3,0,0,1-.952-9.147c-.116-1.67-.816-2.758-2.563-2.68s-1.942,1.185-2.253,2.622c-.835,4.039.369,8.37-2.214,12.235-.816,1.223-.8,1.437-2.389,1.34-2.389-.155-4.7,1.573-7.283-.291a8.565,8.565,0,0,1-4.059-5.826c-.408-4.68-.816-9.438,1.165-14.021.7-1.651,1.2-1.825,2.738-1.068a31.208,31.208,0,0,0,29.13,0c1.359-.68,1.942-.544,2.505.971a18.158,18.158,0,0,1,1.379,9.089C281.814,946.513,280.979,950.727,275.464,952.727Zm-8.04-22.916c-4.505-1.806-9.865,1.243-15.012-1.029a31.305,31.305,0,0,1-16.624-17.614c-.1-.233,0-.66-.214-.7-4.117-1.185-4.972-5.962-8.991-7.768-8.933-3.884-19.42-13.982-16.818-25.537.913-4.059-.854-8.506,1.321-12.759a33.015,33.015,0,0,1,16.682-15.051h.369c2.253-3.068,6-4.855,7.768-8.312,3.884-7.768,8.875-15.264,17.478-17.128,9.943-2.156,20.76-2.544,28.819,5.593a31.3,31.3,0,0,1,7.477,11.186c.175.466,0,1.34.35,1.437,3.884,1.437,5.049,5.943,8.914,7.768,8.215,3.884,15.653,9.457,16.8,18.954,1.088,8.817,2.059,18.274-5.224,25.731a37.849,37.849,0,0,1-12.06,8.584c-1.651.719-3.049,1.2-3.437,3.107,0,.369-.1.951-.33,1.068-6.447,3.36-7.535,10.778-11.885,15.711-2.02,2.331-11.438,6.739-15.3,6.758ZM309.1,941.172c-1.67,3.185-4.467,3.515-8.409,3.554a5.825,5.825,0,0,1-5.01-2.8c-3.534-4.234-7.457-8.137-10.584-12.74-.874-1.282-1.5-2.311,0-3.593a30.062,30.062,0,0,0,7.982-10.681c1.2-2.622,2.544-2.078,3.884-.175,4.02,6.059,9.593,10.914,12.642,17.847a8.622,8.622,0,0,1-.427,8.584ZM329.258,910.1c1.942,1.573,1.592,3.612,1.942,5.573,0,6.37-5.107,9.827-11.186,8.1-6.389-1.806-10.215-6.933-15.148-10.6-1.942-1.418-5.263-2.35-5.107-4.777s3.67-2.291,5.457-3.67a25.944,25.944,0,0,0,5.632-4.622c2.136-2.99,3.69-2.214,6.156-.446,4.408,3.243,8.079,7.127,12.332,10.409Zm8.253-17.983a8.486,8.486,0,0,1-5.321,2.835c-1.534.1-3.088,0-4.622,0h0a24.237,24.237,0,0,1-4.6,0,10.411,10.411,0,0,1-5.36-1.942c-1.515-1.65,1.185-2.971,1.612-4.622,2.369-8.875,3.185-17.653-1.379-26.139-.835-1.554-.971-2.214,1.01-3.03a27.811,27.811,0,0,1,14.06-1.107,7.36,7.36,0,0,1,6.117,9.321c-.427,1.456,1.223,3.165-.427,4.02a16.994,16.994,0,0,1-7.069,2.253c-2.058,0-4.1.272-6.137.369-1.67,0-2.777.757-2.719,2.525s1.107,2.156,2.6,2.253c2.544.155,5.107.272,7.651.621s5.243.583,5.943,3.67,1.4,6.292-1.262,8.933Z" transform="translate(-1347.167 16844.252)" fill="#043052"/>
  </g>
</svg>
