<svg xmlns="http://www.w3.org/2000/svg" width="41.424" height="36.821" viewBox="0 0 41.424 36.821">
  <path id="Icon_awesome-hand-holding-heart" data-name="Icon awesome-hand-holding-heart" d="M19.8,18.014a1.253,1.253,0,0,0,1.834,0L29.463,9.8a5.961,5.961,0,0,0-.4-8.543,5.466,5.466,0,0,0-7.544.554l-.805.841-.8-.834a5.46,5.46,0,0,0-7.544-.561,5.967,5.967,0,0,0-.4,8.543Zm20.855,5.58a2.38,2.38,0,0,0-3.063,0l-6.645,5.314a4.578,4.578,0,0,1-2.877,1.007H19.56a1.151,1.151,0,0,1,0-2.3h5.631A2.394,2.394,0,0,0,27.586,25.7a2.3,2.3,0,0,0-2.272-2.69H13.807A8.464,8.464,0,0,0,8.478,24.9L5.135,27.614H1.151A1.154,1.154,0,0,0,0,28.765v6.9a1.154,1.154,0,0,0,1.151,1.151H26.809a4.608,4.608,0,0,0,2.877-1.007l10.873-8.7A2.3,2.3,0,0,0,40.652,23.595Z" transform="translate(0 0.002)" fill="#fff"/>
</svg>
