<svg xmlns="http://www.w3.org/2000/svg" width="62.397" height="62.397" viewBox="0 0 62.397 62.397">
  <g id="Group_157" data-name="Group 157" transform="translate(-0.001)">
    <g id="Rectangle_1225" data-name="Rectangle 1225" transform="translate(0.001 0)" fill="none" stroke="#fff" stroke-width="5">
      <rect width="62.397" height="62.397" rx="4" stroke="none"/>
      <rect x="2.5" y="2.5" width="57.397" height="57.397" rx="1.5" fill="none"/>
    </g>
    <g id="instagram" transform="translate(0.786 1.574)">
      <path id="Path_1228" data-name="Path 1228" d="M125.106,90.041V121.4c-.036.153-.084.3-.105.457-.973,6.688-4.642,11.193-10.995,13.464a28.969,28.969,0,0,1-3.631.811H79.014a3.722,3.722,0,0,0-.4-.1c-6.717-.952-11.241-4.628-13.525-11a30.176,30.176,0,0,1-.811-3.628V90.041c.038-.19.093-.378.112-.569A16.054,16.054,0,0,1,75.6,76.035c1.113-.323,2.274-.488,3.412-.725h31.358c.153.035.3.082.458.105a15.77,15.77,0,0,1,13.41,10.826A29.021,29.021,0,0,1,125.106,90.041Zm-10.692,15.692V96.885A10.682,10.682,0,0,0,103.557,86q-8.879-.012-17.757,0a10.906,10.906,0,0,0-2.065.181,10.659,10.659,0,0,0-8.758,10.672q-.008,8.818,0,17.638a10.68,10.68,0,0,0,10.916,10.942q8.787.008,17.579,0a10.679,10.679,0,0,0,10.942-10.916Q114.418,110.127,114.414,105.733Z" transform="translate(-64.28 -75.31)" fill="#fff"/>
      <path id="Path_1229" data-name="Path 1229" d="M202.1,196.958V205.8a7.117,7.117,0,0,1-7.319,7.308q-8.847.008-17.7,0a7.125,7.125,0,0,1-7.295-7.277q-.008-8.878,0-17.753a7.126,7.126,0,0,1,7.295-7.279q8.875-.008,17.752,0a7.12,7.12,0,0,1,7.265,7.246C202.112,191.021,202.1,193.99,202.1,196.958Zm-25.064-.007a8.916,8.916,0,1,0,8.916-8.9,8.916,8.916,0,0,0-8.916,8.9Zm20.907-10.18a1.78,1.78,0,1,0-1.787,1.756A1.8,1.8,0,0,0,197.948,186.771Z" transform="translate(-155.537 -166.55)" fill="#fff"/>
      <path id="Path_1230" data-name="Path 1230" d="M255.2,260.87a5.344,5.344,0,1,1-5.328,5.331A5.344,5.344,0,0,1,255.2,260.87Z" transform="translate(-224.799 -235.803)" fill="#fff"/>
    </g>
  </g>
</svg>
