<svg xmlns="http://www.w3.org/2000/svg" width="51.188" height="45.5" viewBox="0 0 51.188 45.5">
  <path id="Icon_awesome-shopping-cart" data-name="Icon awesome-shopping-cart" d="M46.933,26.777l4.2-18.484a2.133,2.133,0,0,0-2.08-2.605H14.148l-.815-3.982A2.133,2.133,0,0,0,11.244,0H2.133A2.133,2.133,0,0,0,0,2.133V3.555A2.133,2.133,0,0,0,2.133,5.688h6.21l6.243,30.52a4.977,4.977,0,1,0,5.958.761H39.175a4.975,4.975,0,1,0,5.652-.925l.49-2.157a2.133,2.133,0,0,0-2.08-2.605H19.383L18.8,28.437H44.853A2.133,2.133,0,0,0,46.933,26.777Z" fill="#043052"/>
</svg>
