<svg xmlns="http://www.w3.org/2000/svg" width="720.221" height="720.173" viewBox="0 0 720.221 720.173">
  <g id="Group_144" data-name="Group 144" transform="translate(1474.234 -17330.879)" opacity="0.52">
    <path id="Path_1166" data-name="Path 1166" d="M270.765,971h0a.522.522,0,0,0-.3.125l.323-.108Z" transform="translate(-1300.226 16959.74)" fill="#ff4c4c"/>
    <path id="Path_1167" data-name="Path 1167" d="M176.43,971.016l.341.125a.466.466,0,0,0-.323-.161h0Z" transform="translate(-1374.896 16959.725)" fill="#ff4c4c"/>
    <path id="Path_1168" data-name="Path 1168" d="M89.919,884.415a.574.574,0,0,0-.179-.215.878.878,0,0,0,.144.215Z" transform="translate(-1443.738 16890.811)" fill="#ff4c4c"/>
    <path id="Path_1169" data-name="Path 1169" d="M733.474,1031.982c-1.794-8.558-7.535-14.245-13.043-20.094a175.76,175.76,0,0,0-13.259-11.716l-2.566.2c-.664,2.6.718,4.306,2.512,5.831a138.135,138.135,0,0,1,17.331,16.793,30.5,30.5,0,0,1,5.777,13.635c1.669,8.145,4.844,15.86,6.549,23.951a85,85,0,0,1-.269,36.277c-1.256,5.669-1.615,11.464-3.337,17.08-2.835,9.186-8.4,16.972-12.326,25.566s-9.85,15.071-15.627,21.87a84.019,84.019,0,0,1-37.676,25.961c-5.1,1.794-10.424,3.032-15,6.208-1.023.718-2.727.341-4.055.718-11.052,3.086-22.1,5.705-33.783,5.49-4.557,0-9.15-.233-13.743-.179-11.213.161-19.036-3.768-22.839-16.56-3.247-10.872-10.962-18.6-19.323-25.746a2.458,2.458,0,0,0-2.332-.538c-.108,1.435-.61,2.135-1.794.682a14.551,14.551,0,0,1-1.346-2.817l-6.818-2.4c-.556.233-1.094.431-1.525-.233-3.463,0-5.723-1.6-5.687-5.257,0-5.1-4.18-8.97-3.588-14.245a1.13,1.13,0,0,1-.395-1.471l-.251-1.417a1.166,1.166,0,0,1-.395-1.435c-.933-3.588-1.884-7.176-2.817-10.765-.449-.61-1.346-1.059-.754-2.063-.807-3.229-1.453-6.495-2.458-9.652a2.835,2.835,0,0,1,1.794-4.144,204.049,204.049,0,0,1,20.417-7.643c2.709-.861,5.239-2.1,7.93-2.978,9.509-3.086,19.359-4.216,29.154-5.634,5.239-.754,10.3.646,15.393,1.561a1.668,1.668,0,0,1,1.453,1.794c.449,5.059,4.055,7.463,8.02,9.58,2.368,1.274,4.719,2.584,7.464,4.073-2.512,1.794-5.006,1.525-7.338,1.543-4.593,0-8.971.5-12.7,3.588s-3.588,6.782.682,9.419c4.593,2.871,9.706,2.458,14.748,2.53h1.686c.592,1.364-.52,1.794-1.13,2.4-4.557,4.091-6.208,9.652-7.93,15.214-.736,2.368.215,3.732,2.117,5.041,4.252,2.924,8.737,2.314,13.689.807-.664,2.62-1.31,4.719-1.7,6.872-.5,2.709.377,4.665,3.391,5.2,9.814,1.7,16.829.861,21.709-8.666a34.967,34.967,0,0,0,3.8-8.719c1.794,3.014,3.319,5.526,4.772,8.091a22.39,22.39,0,0,0,12.092,10.908c2.458.843,3.875,0,5.382-1.794a19.143,19.143,0,0,0,3.75-18.336c-.807-2.978-1.094-6.082-1.668-9.114-.126-.664-.771-1.364-.143-1.991s1.507.126,2.225.341c3.265,1.041,6.3,2.727,9.778,3.176,6.118.807,10.549-1.525,11.877-6.405,2.3-8.361.7-12.38-5.759-15.286a91.931,91.931,0,0,0-15.286-5.562c3.319-1.543,5.813-2.906,8.432-3.857,3.3-1.2,5.867-3.588,8.791-5.382,4.055-2.476,6.082-12.559,3.911-16.954-1.292-2.566-5.705-4.109-9.473-3.265a58.2,58.2,0,0,0-21.8,10.765c-1.561-6.567-3.3-12.918-4.557-19.377s-7.661-12.164-13.42-12a10.585,10.585,0,0,0-10.765,12.451,9.152,9.152,0,0,1,.395,4.108,42.29,42.29,0,0,0-8.791-5.885,26.91,26.91,0,0,0-7.966-2.942c-4.97-.789-7.464.664-9.67,5.185a6.01,6.01,0,0,0,.843,7.177c2.1,2.422,4.252,4.79,6.387,7.176.646.754,2.386.7,2.063,2.189a.466.466,0,0,1,.52-.108c.161,0,.251.341.377.52l-.969-.126a.342.342,0,0,0,0,.126v-.126l-3.893-1.507c-4.36-.305-8.755-.879-12.433,2.422-1.058.951-2.1,0-2.8-.7-1.094-1.041-2.871-1.094-3.588-2.619a6.459,6.459,0,0,1-4.234-4.27c-4.575-4.665-7.786-10.388-11.823-15.483a111.918,111.918,0,0,1-8.468-13.043c-.467-.771-1.382-1.6-.7-2.53s1.7-.323,2.6,0c1.579.5,3.158.969,4.754,1.453a1.04,1.04,0,0,1,1.507.18c5.526.7,10.424,0,12.936-5.921.108-.269.789-.3,1.22-.448.395-.628.933-.52,1.489-.251l9.2-1.22c.682-.592,1.453-.323,2.225-.215l2.763-.52a1.059,1.059,0,0,1,1.507-.341l5.669-.969c.628-.736,1.417-.556,2.189-.413a2.691,2.691,0,0,1,2.045-.413c.323-.789.951-.52,1.525-.431a83.456,83.456,0,0,1,13.51-4.5c.341-.7.915-.52,1.489-.394a45.781,45.781,0,0,1,8.684-3.3c.7-1.794,2.243-.9,3.445-.987a3.839,3.839,0,0,1,3.086-1.059,2.458,2.458,0,0,1,2.637-1l6.261-2.458a2.4,2.4,0,0,1,3.014-1.184,2.511,2.511,0,0,1,2.117-.951c.233-.861.843-.682,1.453-.556l9.311-4.378c.7-1,1.346-2.081,2.835-1.938l.7-.215a7.176,7.176,0,0,1,5.723-3.588c4.2-2.4,7.679-6.01,12.559-7.338l1.615-2.009v-2.709l-1.615-2.045c-4.844-1.292-8.289-4.952-12.559-7.32-4.216-.771-7.176-3.588-10.1-6.369a42.868,42.868,0,0,1-8.468-3.714c-.61.126-1.22.305-1.453-.556a2.511,2.511,0,0,1-2.117-.951,2.4,2.4,0,0,1-3.014-1.184l-6.261-2.458a2.458,2.458,0,0,1-2.637-1c-6.961-2.261-13.922-4.5-20.866-6.818-3.14-1.059-6.244-2.279-9.347-3.427-.574,0-1.2.359-1.507-.431a2.709,2.709,0,0,1-2.063-.412c-.771.143-1.561.323-2.189-.413l-5.669-.969a1.059,1.059,0,0,1-1.507-.341l-2.763-.52c-.754.108-1.543.377-2.225-.215l-9.2-1.22c-.556.269-1.094.377-1.489-.251-.431-.144-1.112-.179-1.22-.448-2.494-5.956-7.41-6.62-12.936-5.921a1.04,1.04,0,0,1-1.507.179l-5.059,1.6c-.771.251-1.651.736-2.3,0s.143-1.794.556-2.494c4.593-8.271,10.478-15.645,15.968-23.323a24.079,24.079,0,0,1,4.467-5.382,4.449,4.449,0,0,1,3.588-3.588c1.13-2.261,3.714-2.655,5.382-4.126a1.148,1.148,0,0,1,1.615,0c3.588,3.373,8.056,2.763,12.415,2.458l3.929-1.525h0l.951-.108c-.126.179-.2.448-.359.5a.5.5,0,0,1-.431,0c.341,1.058-.987,1.041-1.543,1.507-2.153,2.368-4.27,4.79-6.477,7.176-2.727,2.835-2.691,5.741-.825,9.06a7.3,7.3,0,0,0,7.894,4.162c6.1-.736,11.177-3.75,15.968-7.356.538-.413,1.041-.879,1.794-1.525a3.462,3.462,0,0,1,.161,2.87c-1.094,5.382.933,10.567,5.024,12.559a13.348,13.348,0,0,0,15.214-3.588,15.752,15.752,0,0,0,3.588-7.948c.753-6.261,3.588-12.039,4.288-18.695,2.8,1.794,5.382,3.445,8.091,5.077a45.031,45.031,0,0,0,13.474,5.472c6.477,1.507,10.011-1.4,10.621-7.876.825-8.971-5.041-13.061-11.662-16.649-3-1.615-6.19-2.871-9.939-4.593a101.9,101.9,0,0,0,15.555-6.351c8.648-4.539,6.943-8.971,4.378-16.524-1.525-4.521-8.791-6.01-14.748-3.588-2.081.843-4.2,1.651-6.3,2.44-.61.233-1.256.915-1.9.251s0-1.31.108-1.973c1.256-4.844,1.686-9.832,2.458-14.748.9-5.867-2.584-9.868-5.687-14.03-1.059-1.453-2.673-1.059-4.252-.574-5.293,1.668-8.791,5.382-11.626,9.939-1.794,2.763-3.247,5.687-5.113,8.971a56.494,56.494,0,0,0-5.023-10.46c-4.88-8.791-14.73-8.486-21.978-6.441-2.207.628-2.476,2.763-2.081,4.754s1.023,4.144,1.561,6.244c-.879.789-1.794.144-2.583,0a15.93,15.93,0,0,0-5.669-.466c-6.513.646-8.54,3.929-6.495,10.065A29.208,29.208,0,0,0,618.22,874.1c-4.037.251-7.177.556-10.406.592a14.138,14.138,0,0,0-7.338,2.422c-3.75,2.332-4.2,5.741-.969,8.737a14.911,14.911,0,0,0,9.67,3.929c3.086.162,6.154.413,9.222.664a5.579,5.579,0,0,1,1.471.61c-1.956,2.3-4.593,3.158-6.907,4.378-4.216,2.26-7.948,4.683-8.45,10.047a2.045,2.045,0,0,1-1.9,2.117c-7.984.664-15.806,1.256-23.88-.377-7.392-1.507-14.945-2.476-22-5.077-8.971-3.265-18.1-5.921-26.679-10.1-1.633-.789-2.243-1.507-1.794-3.5,2.512-10.765,5.885-21.206,7.876-32.061.718-3.893,2.476-7.7,3.3-11.68a3.032,3.032,0,0,1,2.314-2.422c2.512-.718,4.97-1.6,7.517-2.117,2.871-.592,5.149-1.7,5.813-5.544,1.633,3.229,3.122,2.135,4.683.753,8.361-7.356,15.788-15.5,18.8-26.517,2.924-10.765,12.29-14.748,21.224-14.981,13.259-.359,26.553-.628,39.471,2.727a104.07,104.07,0,0,1,17.941,5.651c8.971,4.126,18.515,6.692,27.019,11.769a92.249,92.249,0,0,1,17.654,14.819c4.216,4.2,7.41,9.186,11.644,13.366s5.669,9.8,8.576,14.658c5.239,8.773,10.227,17.708,12.254,27.863,3.265,16.291,6.208,32.671,2.009,49.248-2.458,9.742-5.059,19.466-8.091,29.047-2.279,7.176-7.84,12.272-13.366,17.152-2.853,2.494-5.382,5.382-8.45,7.625a4.719,4.719,0,0,0-1.991,5.382l2.566.2,13.635-11.841c4.252-3.732,6.531-8.971,10.316-13.115a11.25,11.25,0,0,0,1.794-4.593c1.22-4.342,2.225-8.737,3.481-13.061,3.588-12.308,7.266-24.579,6.495-37.676a189.721,189.721,0,0,0-3.032-22.462c-1.417-7.894-2.727-15.968-6.71-22.731-6.854-11.7-11.59-24.759-21.709-34.519-2.53-2.44-4.737-5.382-7.32-7.966a141.052,141.052,0,0,0-10.765-10.28c-8.827-7.069-19.376-10.765-29.746-14.568-14.514-5.382-29.029-10.46-44.978-10.352-10.334,0-20.614-.377-30.859,1.794,2.817-12.559,2.4-25.279,1.561-37.874s-4.952-24.831-9.688-36.69c-3.588-8.971-6.746-18.049-11.841-26.409-4.521-7.392-10.765-13.079-16.919-18.8-6.584-6.172-13.294-12.559-21.942-16.147-7-2.942-12.9-8.092-20.04-10.765a119.76,119.76,0,0,0-38.107-7.643c-.574,0-1.2,0-1.561-.556a80.733,80.733,0,0,0-28.168,2.924,153.835,153.835,0,0,1-15.07,4.162,48.01,48.01,0,0,0-24.938,12.218c-4.324,4.18-8.091,8.971-12.056,13.474-1.346,1.543-3.391,2.835-2.386,5.382,2.745.5,4.378-1.076,6.046-2.924,4.414-4.934,8.971-9.814,13.653-14.353a33.137,33.137,0,0,1,16.578-8.361c8.02-1.794,15.627-4.754,23.611-6.459a89.079,89.079,0,0,1,36.636.161c7.446,1.489,14.981,2.368,22.121,5.185s13.653,7.661,20.794,10.765c8.253,3.588,14.73,9.563,21.278,15.232,10.334,8.971,19.107,19.3,24.077,32.545,2.548,6.818,4.288,14.03,8.4,20.238.754,1.13.341,2.978.754,4.414,3,10.765,5.526,21.673,5.382,33.083,0,5.042-.52,10.119-.161,15.16a21.745,21.745,0,0,1-3.588,13.2,20.542,20.542,0,0,1-12.559,8.45c-11.034,2.906-18.695,10.765-25.925,19-.377.431-.933,1.364-.807,1.489,2.942,3.158-1.2,3.068-1.974,4.485a25.692,25.692,0,0,0-2.44,7.41c-1.094,5.562-1.4,5.221-6.871,6.925-9.473,2.942-19.3,4.431-28.706,7.517-4.019,1.328-8.271,1.974-12.379,3.086-1.92.52-2.225-.861-2.745-1.991a153.6,153.6,0,0,1-7.84-20.722c-.807-2.727-2.117-5.221-2.978-7.93-3.086-9.509-4.162-19.376-5.651-29.154-.807-5.2,1.2-10.262,1.059-15.447,0-.861.969-1.2,1.794-1.238,5.293-.2,7.786-3.929,10.011-7.966.843-1.543,1.579-3.158,2.458-4.683.449-.771.736-2.081,1.794-1.794s1.041,1.417,1.094,2.35c.144,2.6.2,5.221.377,7.822a14.944,14.944,0,0,0,3.839,9.347c3.014,3.283,6.351,2.87,8.773-.771,3.463-5.2,2.584-11.088,2.835-16.811,1.238-.664,1.794.467,2.3,1.059,4.18,4.665,9.85,6.351,15.537,8.073a3.786,3.786,0,0,0,4.539-1.794c3.122-4.288,2.583-8.971,1.13-13.994,2.494.61,4.593,1.238,6.71,1.633,2.709.52,4.7-.287,5.257-3.319,1.794-9.742.9-16.883-8.612-21.745a49.082,49.082,0,0,0-8.719-3.947c4.647-2.853,9.132-4.916,12.954-8.092a20.076,20.076,0,0,0,6.1-8.971,3.821,3.821,0,0,0-1.346-4.719,19.251,19.251,0,0,0-18.21-4.36c-3.445.915-7.069.861-10.5,2.028-2.153.735-1.651-.646-1.184-1.9a44.853,44.853,0,0,0,3.463-10.765c.736-6.549-2.045-10.3-8.576-11.393-6.854-1.148-10.89-.108-12.559,4.288S489.439,693,488.47,697.56c-.251,1.112-.682,2.189-1.023,3.283-1.274-.431-1.4-1.525-1.686-2.35a71.763,71.763,0,0,0-7.338-13.761c-2.583-4.144-13.384-6.531-17.564-4.037-2.368,1.417-3.768,5.723-2.96,9.293a58.077,58.077,0,0,0,10.765,21.834c-6.566,1.561-12.918,3.283-19.359,4.539s-12.182,7.679-12.021,13.42a10.6,10.6,0,0,0,12.433,10.765,9.225,9.225,0,0,1,4.126-.395,42.182,42.182,0,0,0-5.418,8.36,27.271,27.271,0,0,0-2.942,7.984c-.789,4.97.646,7.464,5.185,9.67a6.028,6.028,0,0,0,7.176-.843c2.422-2.1,4.79-4.252,7.176-6.387l1.346-1.579c.2-.287.287-.825.682-.646a.485.485,0,0,1,.126-.484c.09-.108.341-.108.52-.144l-.395.807h0c-.09.341-.161.664-.233.987-.359.987-.718,1.974-1.059,2.96-.305,4.36-.879,8.737,2.422,12.415.951,1.076-.108,1.991-.664,2.817a40.493,40.493,0,0,1-2.817,3.588c.161.484-.108.628-.538.628l-.807.735a2.96,2.96,0,0,1-2.763,2.835c-4.557,4.485-10.173,7.607-15.142,11.572a110.29,110.29,0,0,1-13.294,8.648c-.843.5-1.794,1.651-2.781.754s-.161-1.794.126-2.6c.5-1.579.969-3.158,1.453-4.736a1.04,1.04,0,0,1,.18-1.507c.556-5.382.287-10.227-5.616-12.7-.987-.413-1.059-1.489-1.166-2.422-.592-4.916-1.2-9.814-1.794-14.712a1.794,1.794,0,0,1-.377-2.225c-.377-1.794-.771-3.732-1.166-5.6-.449-.467-.287-1-.179-1.543a2.637,2.637,0,0,1-.413-2.063c-.484-1.166-1.561-2.189-1.059-3.588a47.709,47.709,0,0,1-3.875-11.357c-.7-.341-.52-.933-.413-1.489-2.727-5.6-4.18-11.68-6.441-17.457-.861-2.189-1.579-4.449-2.35-6.656a2.4,2.4,0,0,1-1.184-3.014,2.511,2.511,0,0,1-.951-2.117c-.861-.233-.682-.861-.556-1.453a42.879,42.879,0,0,1-3.714-8.468c-.843-.161-1.489-.5-1.274-1.543a2.118,2.118,0,0,1-1.094-1.561c-.664-.5-1.292-1.023-1.059-1.991-.861-.843-2.153-1.417-1.794-2.978-.592-.556-1.328-1.023-1.094-2.027-2.673-4.27-5.956-8.181-7.769-12.971a4.773,4.773,0,0,0-5.956,0c-2.619,6.243-7.069,11.41-10.065,17.421a3.588,3.588,0,0,1-1.92,1.991l-.269.682a1.489,1.489,0,0,1-1.184,2.117l-4.378,9.311c.126.592.3,1.22-.556,1.453a2.566,2.566,0,0,1-.951,2.117,2.44,2.44,0,0,1-1.184,3.014c-3.05,7.984-5.382,16.273-8.809,24.113.108.556.3,1.148-.395,1.489a48.8,48.8,0,0,1-3.875,11.357c.449,1.453-.5,2.512-1.059,3.588a2.709,2.709,0,0,1-.413,2.063c.108.538.251,1.076-.179,1.543l-1.184,5.6a1.794,1.794,0,0,1-.359,2.225l-1.92,13.474c.215.556.341,1.077-.2,1.525a1.471,1.471,0,0,1-.52,1.9c-5.974,2.494-6.638,7.392-5.939,12.936a1.041,1.041,0,0,1,.179,1.507c.52,1.686,1.058,3.373,1.6,5.059.233.771.736,1.651,0,2.3s-1.794-.144-2.512-.574c-8.253-4.575-15.627-10.46-23.323-15.968a23.607,23.607,0,0,1-5.382-4.449,6.369,6.369,0,0,1-4.216-4.252c-1.041-1.4-2.135-2.763-3.122-4.18-.395-.556-.969-1.292-.413-1.956,3.893-4.414,2.924-9.491,2.063-14.55l-1-2.009h0l-.108-.969c.179.126.449.2.5.359a.449.449,0,0,1,0,.5c1.292-.341,1.292,1.2,1.938,1.794,2.3,2.081,4.611,4.109,6.854,6.244,2.727,2.566,5.49,2.62,8.755.843a7.356,7.356,0,0,0,4.378-7.786c-.7-6.351-3.839-11.626-7.7-16.542-.359-.448-.933-.754-.825-1.525.682-.753,1.525-.251,2.243-.108,5.956,1.148,11-.933,12.918-5.382a12.989,12.989,0,0,0-4.073-15A16.148,16.148,0,0,0,315.5,715.9c-6.154-.79-11.805-3.588-18.3-4.234,1.794-2.835,3.5-5.382,5.113-8.127a45.355,45.355,0,0,0,5.58-13.815c1.364-5.992-1.7-9.6-7.7-10.208-9.168-.933-13.366,4.88-16.972,11.68-1.6,3.014-2.871,6.172-4.719,10.173a72.654,72.654,0,0,0-5.687-14.837c-4.36-9.85-10.155-8.271-18.228-4.719-3.588,1.561-4.521,8.845-2.476,14.03l2.44,6.3c.233.628.879,1.274.323,1.938s-1.292.126-1.974,0a96.352,96.352,0,0,0-16.147-2.548c-5.508-.413-9.258,3.086-13.1,6.208-1.094.9-.61,2.4-.2,3.7,1.794,5.382,5.562,8.971,10.191,11.823,2.709,1.668,5.526,3.158,8.719,4.952a53.11,53.11,0,0,0-11.2,5.615c-6.3,4-9.15,15.16-5.616,21.673a3.911,3.911,0,0,0,4.593,1.794c2.171-.413,4.306-1.076,6.746-1.687-.341,2.153-.718,4.091-.951,6.046a11.662,11.662,0,0,0,2.548,8.325,3.3,3.3,0,0,0,3.588,1.6,36.994,36.994,0,0,0,14.73-6.728c.861-.682,1.328-2.279,2.817-1.6s.771,2.117.951,3.211a11.752,11.752,0,0,1-.233,3.14c.628.377.574.9.341,1.471a23.988,23.988,0,0,0,1.794,6.961,3.7,3.7,0,0,1,1.435,2.279c3.839,3.1,8.163,1.543,10.46-3.588a22.428,22.428,0,0,0,1.794-9.617,12.559,12.559,0,0,1,.484-4.539,4.575,4.575,0,0,1,.556-3.158,5.383,5.383,0,0,1,2.135,3.176c2.261,3,3.032,6.943,6.082,9.437,1.364,1.112,2.584,2.781,4.431,2.745,2.691,0,3.283,1.381,3.714,3.588a50.325,50.325,0,0,1,.413,19.179c-1.651,8.63-2.583,17.421-5.849,25.674a2.3,2.3,0,0,1-1.238,2.53,24.938,24.938,0,0,1-2.512,7.464.987.987,0,0,1-.484,1.435,122.92,122.92,0,0,1-5.921,15.07c-.736,1.561-1.543,2.117-3.283,1.543-2.906-.969-5.885-1.794-8.845-2.566a2.907,2.907,0,0,1-3.481-.807l-10.083-2.691a1.148,1.148,0,0,1-1.507-.341l-5.633-1.094c-.574.233-1.13.341-1.525-.3a90.892,90.892,0,0,0-13.617-3.714c-1.292-.251-1.6-1.561-1.561-2.817a1.148,1.148,0,0,1-.592-1.525l-1.507-5.634a1.364,1.364,0,0,1-.377-1.525l-.233-1.022c-.52-.467-.969-1.238-1.561-1.382-3.086-.718-2.548-2.225-1.023-4.019-8.038-10.029-17.529-17.941-30.141-21.655-1.13.359-2.314.843-2.476-1.076-3.821-2.386-7.679-4.772-8.343-9.85-1.686-.538-1.13-1.956-1.22-3.122l-.251-1.364c-.718-.646-.538-1.435-.341-2.207l-.431-12.056a1.041,1.041,0,0,1,0-1.6c.377-4.719-.395-9.491.556-14.191-.161-.753-.5-1.525.179-2.225l1.184-6.333a1.256,1.256,0,0,1,.377-1.471l.718-3.588c-.807-.879-.449-1.525.431-2.045,1-3.1,1.148-6.441,2.691-9.383-.359-1.328-1.023-2.763,1.094-3.283,5.149-13.348,8.971-27.324,18.336-38.663,5.992-7.177,13.312-13.061,20.166-19.412,5.526-5.131,12.4-7.715,18.623-11.536,8.289-5.1,16.936-9.616,26.571-11.554,16.291-3.283,32.653-6.226,49.23-2.027,9.724,2.476,19.448,5.077,29.029,8.092,7.176,2.279,12.308,7.8,17.152,13.33,2.494,2.853,5.382,5.382,7.625,8.45a5.005,5.005,0,0,0,5.382,2.117,4.126,4.126,0,0,0-1.184-4.162c-6.19-7.051-11.967-14.443-19.843-19.9a29.8,29.8,0,0,0-8.4-4.378c-4.2-1.238-8.5-2.117-12.684-3.391-13.456-4.091-26.912-7.769-41.265-6.369-.395.179-.825.556-1.2.52-7.392-.933-14.353,1.9-21.368,2.978a69.976,69.976,0,0,0-27.073,10.316c-8.863,5.6-18.946,9.2-26.427,17.169-2.494,2.637-5.616,4.844-8.253,7.535a144.675,144.675,0,0,0-10.28,10.765c-7.284,9.114-10.944,20-14.963,30.715-5.382,14.353-10.191,28.706-10.011,44.333.108,9.545-.431,19.071,1.417,28.509.341,1.794,0,2.135-1.794,1.794-10.89-2.53-22.014-1.794-32.994-1.489-12.182.359-23.862,3.983-35.218,8.307-5.382,2.063-10.765,4.037-16.147,6.261-6.351,2.655-12.684,5.382-17.941,9.67A225.5,225.5,0,0,0,53.935,833.93c-9.778,10.37-15.519,23.055-21.529,35.362s-8.181,26.337-9.419,40.332c0,10.083.251,20.148,3.373,29.908a136.238,136.238,0,0,1,3.947,13.994c1.92,9.6,5.6,18.336,12.451,25.369,4.091,4.216,8.791,7.858,13.259,11.733,1.543,1.346,2.835,3.391,5.382,2.368a5.508,5.508,0,0,0-2.3-5.58,142.976,142.976,0,0,1-17.349-16.739,30.5,30.5,0,0,1-5.974-13.94c-1.651-8.02-4.754-15.609-6.459-23.593a90.01,90.01,0,0,1,.144-36.636c1.579-8.02,2.655-16.147,5.867-23.754,2.727-6.477,6.961-12.128,9.742-18.533,3.7-8.54,9.886-15.3,15.752-22.193a84.323,84.323,0,0,1,37.282-25.8c5.382-1.794,10.478-4.485,15.7-6.208a148.531,148.531,0,0,1,18.713-4.647c12.218-2.368,24.49-1.794,36.761-1.292a19.573,19.573,0,0,1,16.972,10.926c1.794,3.588,2.871,7.8,4.431,11.7,3.319,8.325,10.316,13.4,16.326,19.376,1.471,1.471,2.422.431,3.588-1.328,1.435,5.49,5.974,5.526,9.85,6.315a7.607,7.607,0,0,1,6.674,6.423c2.6,9.473,4.449,19.143,7.284,28.562,1.292,4.288,2.135,8.7,3.337,13.025.52,1.92-.825,2.243-1.974,2.763a162.372,162.372,0,0,1-20.614,7.84c-2.709.807-5.221,2.081-7.93,2.96-9.509,3.086-19.358,4.144-29.154,5.669-5.221.807-10.244-1.2-15.429-1.023-1.094,0-1.346-1.238-1.4-2.171-.251-5.005-3.875-7.32-7.571-9.545-1.794-1.094-3.75-1.956-5.616-2.96-.61-.323-1.453-.628-1.346-1.471s1.22-1.076,1.956-1.13c2.727-.2,5.382-.233,8.181-.395a14.712,14.712,0,0,0,9.616-4.037c3.05-3,2.566-6.19-.915-8.54-4.629-3.122-9.85-2.745-15.017-2.853-.664,0-1.381.377-2.314-.628,2.6-2.727,5.382-5.382,6.71-9.15.52-1.579,1.256-3.068,1.794-4.629,2.261-6.387-.359-10.029-7.284-10.316a40.342,40.342,0,0,0-7.5,1.112c.646-2.547,1.346-4.682,1.794-6.889a3.821,3.821,0,0,0-3.283-4.97c-9.581-1.794-17.026-.951-21.781,8.5a31.67,31.67,0,0,0-3.857,8.971c-3.05-4.9-5.041-9.581-8.414-13.33a10.763,10.763,0,0,0-2.189-2.314c-3.032-1.9-6.459-5.687-9.76-3.337a14.909,14.909,0,0,0-6.6,12.792,93.4,93.4,0,0,0,2.476,16.147c.179.771.933,1.633,0,2.261s-1.525-.287-2.279-.538c-3.265-1.059-6.315-2.691-9.8-3.14-3.893-.52-7.858,0-9.957,3.158-2.53,3.8-4,8.522-2.009,13.133,1.166,2.673,3.588,4.109,6.495,5.49A128.4,128.4,0,0,0,86.767,891.9c-.52,1.382-1.794,1.543-2.871,1.794a66.383,66.383,0,0,0-13.4,7.284c-4.073,2.53-6.279,13.007-3.947,17.277,1.31,2.386,5.705,3.929,9.222,3.158a58.4,58.4,0,0,0,21.978-10.854c1.6,6.692,3.176,13.079,4.611,19.52,1.525,6.818,6.423,11.393,12.81,11.734a10.28,10.28,0,0,0,11.088-12.828,6.387,6.387,0,0,1-.179-3.5,47.2,47.2,0,0,0,10.173,6.638,24.143,24.143,0,0,0,6.728,2.243c4.306.682,6.907-.43,8.773-3.75,2.422-4.306,2.225-6.172-1.13-9.9-1.974-2.207-4-4.378-6.01-6.566-.556-.466-1.794-.448-1.543-1.507a.484.484,0,0,1-.395,0c-.161,0-.269-.341-.395-.52l.969.108v-.108a.27.27,0,0,1,0,.126l3.911,1.507c4.36.305,8.737.879,12.415-2.422,1.059-.951,1.991.108,2.817.664a40.538,40.538,0,0,1,3.588,2.817c.52-.179.628.108.628.538l.754.807c.879,0,1.794.126,1.794,1.328a256.118,256.118,0,0,1,21.3,29.98c.449.754,1.364,1.579.664,2.512s-1.794.3-2.6,0c-1.561-.5-3.158-.969-4.736-1.453a1.041,1.041,0,0,1-1.507-.179c-5.382-.556-10.226-.287-12.7,5.616-.413.987-1.489,1.059-2.44,1.166l-14.694,1.794a1.794,1.794,0,0,1-2.225.359l-5.6,1.184c-.466.431-1,.287-1.543.179a2.71,2.71,0,0,1-2.063.413c-1.184.484-2.189,1.561-3.588,1.059l-1.31.431c-.233,1-.807.951-1.525.52a26.269,26.269,0,0,1-8.522,2.924c-.341.7-.933.521-1.489.395-5.562,2.835-11.7,4.144-17.439,6.459-2.189.879-4.449,1.579-6.692,2.35a2.4,2.4,0,0,1-3.014,1.184,2.458,2.458,0,0,1-2.1.951c-.233.861-.861.682-1.453.556-5.885,2.314-10.962,6.1-16.542,8.971-.556.592-1.023,1.328-2.027,1.094-4.27,2.673-8.181,5.956-12.971,7.751a4.808,4.808,0,0,0,0,5.974A143.262,143.262,0,0,1,82.426,1012a1.507,1.507,0,0,1,2.135,1.184l9.24,4.45c.592-.125,1.22-.3,1.435.556a2.475,2.475,0,0,1,2.117.951,2.386,2.386,0,0,1,3.014,1.184c8,3.05,16.291,5.382,24.131,8.809.556-.126,1.148-.3,1.489.395a48.8,48.8,0,0,1,11.357,3.875c1.453-.466,2.494.5,3.588,1.059a2.709,2.709,0,0,1,2.063.412c.52-.108,1.058-.269,1.525.18l5.616,1.184a1.794,1.794,0,0,1,2.225.359l14.694,1.794c.951.108,2.009.179,2.422,1.166,2.494,5.9,7.41,6.172,12.72,5.616a1.041,1.041,0,0,1,1.507-.179c1.92-.61,3.821-1.328,5.777-1.794,1.561-.395,2.476.179,1.489,1.794a199.016,199.016,0,0,1-21.637,30.285,3.032,3.032,0,0,1-2.817,2.781,26.48,26.48,0,0,1-5.131,4c-.556.413-1.256.754-1.938.144-3.588-3.373-8.056-2.763-12.415-2.476l-2.96,1.076-1,.215h0l-.754.413c0-.161,0-.413.108-.5a.467.467,0,0,1,.52-.126c-.215-.413.323-.5.628-.682,0-.538.484-.682.933-.754,2.153-2.368,4.27-4.772,6.477-7.087,2.727-2.835,2.727-5.723.843-9.06a7.32,7.32,0,0,0-7.894-4.18c-6.082.735-11.159,3.75-15.95,7.338-.556.413-1.059.879-1.794,1.507a3.229,3.229,0,0,1-.2-2.817c1.13-5.669-.987-10.765-5.382-12.667a13.1,13.1,0,0,0-14.873,3.588,16.254,16.254,0,0,0-3.57,8.289c-.736,6.154-3.588,11.805-4.216,18.372-2.8-1.794-5.382-3.445-8.074-5.059a45.442,45.442,0,0,0-13.456-5.49c-6.513-1.507-10.065,1.381-10.657,7.84-.825,8.971,5.006,13.1,11.626,16.667,3,1.615,6.208,2.87,10.155,4.683a113.181,113.181,0,0,0-14.353,5.239c-8.091,3.427-10.5,12.254-5.006,19.233,2.332,2.96,9.132,3.875,14.012,1.92,2.637-1.041,5.382-2.009,8.971-3.427-1.794,4.557-1.794,8.7-2.871,12.559a19.52,19.52,0,0,0,4.4,18.228,3.929,3.929,0,0,0,4.736,1.345,21.978,21.978,0,0,0,12.218-10.765l4.79-8.271a51.44,51.44,0,0,0,5.221,10.765c4.88,8.486,14.927,8.038,21.834,6.028,2.027-.592,2.368-2.619,2.045-4.467-.395-2.207-1.076-4.36-1.633-6.566,1.076-.682,2.027.09,3.032.269a13.726,13.726,0,0,0,8.056-.395c4.952-2.1,5.669-3.7,3.929-8.755a31.182,31.182,0,0,0-9.419-14.909c4.055-.233,7.176-.538,10.46-.574a13.976,13.976,0,0,0,7.32-2.476c3.732-2.314,4.109-5.723.861-8.737a14.927,14.927,0,0,0-9.347-3.875c-2.835-.2-5.687-.215-8.522-.431-.628,0-1.579-.161-1.794-.987s.682-1.148,1.256-1.543c3.355-2.189,7.446-3.14,10.209-6.279,1.184-1.346,2.906-2.6,2.853-4.378-.108-3.122,1.651-3.588,4.055-4a53.643,53.643,0,0,1,21.386.126c7.446,1.363,14.909,2.4,22.05,5.023,9.168,3.355,18.461,6.315,27.414,10.262,1.794.771,2.063,1.668,1.615,3.588-2.458,10.6-5.616,21.027-7.894,31.7-.861,4-2.4,8.056-3.319,12.164-.484,2.117-2.35,2.207-3.821,2.745-1.991.718-4.126,1.076-6.154,1.687-3.947,1.184-3.947,1.22-5.741,4.934-1.346-2.332-2.709-1.92-4.414-.395-8.307,7.392-15.734,15.447-18.856,26.481s-12,14.855-21.529,15.142c-13.133.413-26.266.449-39.076-2.637a153.665,153.665,0,0,1-22.893-7.643c-10.388-4.342-21.135-7.876-29.944-15.34-7.176-5.992-12.846-13.2-19.143-19.951-4.916-5.257-7.481-11.733-11.052-17.69-5.185-8.63-10.065-17.51-12.092-27.54-3.265-16.291-6.208-32.653-2.027-49.231,2.458-9.742,5.077-19.466,8.091-29.047,2.261-7.177,7.786-12.308,13.33-17.17,2.853-2.494,5.382-5.382,8.432-7.625a4.988,4.988,0,0,0,2.135-5.382,4,4,0,0,0-4.144,1.184c-4.019,3.588-8.54,6.746-12.236,10.675-4.7,4.988-9.85,9.975-11.769,16.775-2.314,8.307-4.378,16.685-6.961,24.92-3.068,9.742-3.337,19.735-3.355,29.836-.969,7.984,2.853,15.178,3.875,22.857a67.782,67.782,0,0,0,10.37,27.019c5.508,8.791,9.222,18.641,16.954,26.158,2.853,2.781,5.382,6.046,8.271,8.971,5.795,6.082,11.859,11.823,19.5,15.663a221.08,221.08,0,0,0,27.845,11.285c12.056,4.126,24.185,7.84,37.318,7.553,6.907-.161,13.869-.3,20.812-.233,3.588,0,6.818-1.292,10.388-1.579-.377,1.543-.736,2.781-.969,4.055-1.938,10.244-1.417,20.632-1.112,30.895.359,12.29,4,24.095,8.414,35.541,2.045,5.293,3.929,10.621,6.136,15.842,2.691,6.459,5.382,12.918,9.832,18.3a238.114,238.114,0,0,0,19.323,19.448c10.244,9.76,22.947,15.2,34.985,21.529,11.339,6.01,24.364,7.428,37.084,8.863a84.324,84.324,0,0,0,34.088-2.8c7.176-2.153,14.263-4.611,21.529-6.082,8.432-1.794,14.048-7.41,19.861-12.774a165.238,165.238,0,0,0,11.931-13.528l-.2-2.566c-2.6-.664-4.306.718-5.831,2.512a139.1,139.1,0,0,1-16.775,17.313,30.59,30.59,0,0,1-13.653,5.8c-7.769,1.6-15.2,4.413-22.893,6.315a77.145,77.145,0,0,1-27.522,1.417c-15.465-1.794-30.715-4.145-44.261-12.774-6.082-3.875-13.169-6.351-18.766-10.765-11.321-8.971-22.624-18.1-30-30.895a147.574,147.574,0,0,1-9.294-21.529c-1.076-2.889-2.1-5.8-3.14-8.684-2.117-.52-1.453-1.956-1.094-3.283a62.417,62.417,0,0,1-3.839-14.963,1.256,1.256,0,0,1-.377-1.471c-2.44-8.971-1.991-18.156-1.794-27.306v-8.127a24.023,24.023,0,0,1,4.127-12.469c.2-1.328,1.292-1.328,2.261-1.543a6.638,6.638,0,0,1,4.019-3.588c.161-1.92,1.346-1.453,2.476-1.076,9.437-3.194,18.049-7.661,24.508-15.537a7.338,7.338,0,0,1,1.794-1.184c.269-.861.628-1.632,1.633-1.794l2.279-3.122c.2-1.346-1.6-1.328-1.794-2.53,1.2-1.256,3.211-1.382,4.27-2.889l.251-1a29.621,29.621,0,0,1,2.476-8.666c.341-4.216,3.7-3.247,6.261-3.588,1.92-1.794,4.7-1.381,6.871-2.548.556-.735,1.328-.484,2.045-.395.395-.646.951-.556,1.525-.3l2.1-.287a1.13,1.13,0,0,1,1.471-.395l1.417-.251a2.009,2.009,0,0,1,2.153-.5,10,10,0,0,1,4.27-.915,1.22,1.22,0,0,1,1.435-.556,7.176,7.176,0,0,1,3.588-.969,4.36,4.36,0,0,1,4.324-1.058l1.4-.323a1.274,1.274,0,0,1,1.453-.449,22.126,22.126,0,0,1,6.423-1.632c1.059-.736,1.938-.969,2.243.718,3.032,4.862,4.449,10.37,6.315,15.717a.987.987,0,0,1,.484,1.435,123.884,123.884,0,0,1,9.706,37.677c.646.377.538.933.3,1.507a20.417,20.417,0,0,1,0,9.258.915.915,0,0,1-.144,1.543l-1.292,7.033c0,1.651-.969,1.238-1.9,1-5.939,1.238-8.181,6.172-10.657,10.765a11.069,11.069,0,0,1-1.956,3.283c-.2.628-.215,1.6-1.041,1.507s-.574-.969-.466-1.6c-1.184-3.068-.628-6.279-.861-9.419a15.321,15.321,0,0,0-3.768-9.293c-3.014-3.409-6.566-3.032-8.971.771a21.33,21.33,0,0,0-2.512,5.795c.126,1.238.574,2.512-.449,3.588v5.687c.359.61.61,1.31-.215,1.687s-.987-.287-1.256-.807c-4.162-4.324-9.652-6.226-15.035-8.325a1.2,1.2,0,0,1-1.453-.359c-3.588.431-6.136,3.588-6.531,7.93a23.161,23.161,0,0,0,.771,7.015c.179.592.3,1.13-.646.933-1.256-.341-2.512-.682-3.786-.987-5.6-1.274-7.356,0-7.751,5.849-.861,12.559,2.314,16.344,16.649,22.355.233.162.646.287.664.467.09.538-.395.556-.771.628-3.947,2.548-8.289,4.467-11.841,7.625a11.144,11.144,0,0,0-2.063,1.92c-1.938,3.122-5.885,6.584-3.463,10.011a14.532,14.532,0,0,0,12.756,6.531c5.382-.413,10.765-1.435,16.147-2.189a2.171,2.171,0,0,1,2.476-.664c.323.144.215.807-.2,1.13-.987,3.588-2.906,6.746-3.463,10.406-1.453,9.258,4.97,15.214,14.353,13.581,3.086-.556,4.108-3.211,6.208-4.736.969-2.924,1.686-5.992,4.055-8.235.718-2.261,1.435-4.539,2.135-6.8,0-.61-.2-1.543.628-1.543.5,0,.9.879.825,1.6,2.225,4.162,4.144,8.45,6.638,12.559,3.373,5.508,7.966,7.015,13.922,6.925,3.588,0,6.333-.807,7.481-4.485a11.087,11.087,0,0,0,.305-5.938,56.153,56.153,0,0,0-8.863-18.892c-1.417-2.063-1.471-2.781,1.328-3.319,5.813-1.13,11.446-3.014,17.259-4.234a13.062,13.062,0,0,0,10.621-10.6c1.794-8.97-5.077-14.909-14.245-12.792-.61.233-1.525.7-1.669-.144s.807-1.471,1.6-1.9c2.763-4.539,5.795-8.971,6.782-14.353.879-4.719-.233-7.41-3.8-9.347-4.4-2.368-6.136-2.117-10.119,1.525l-5.992,5.544c-.538.628-.646,1.794-1.794,1.615a.448.448,0,0,1,0,.466c0,.161-.341.251-.52.377a2.981,2.981,0,0,1,.108-.969h.018c.359-.807.736-1.6,1.112-2.4.7-4.826,1.633-9.652-2.009-13.869-.951-1.094,0-2.081.646-2.817.987-1.13,1.31-2.763,2.709-3.588a6.333,6.333,0,0,1,4.216-4.252c4.647-4.575,10.262-7.858,15.447-11.751,4.126-3.086,8.612-5.705,12.971-8.468.825-.52,1.794-1.651,2.8-.754s.161,1.794-.126,2.6c-.52,1.579-.969,3.158-1.453,4.737a1.04,1.04,0,0,1-.179,1.507c-.7,5.526,0,10.442,5.921,12.936.269.108.3.789.449,1.22.789.646.484,1.435.287,2.207l1.166,8.486c.592.682.341,1.471.215,2.225l.538,2.763a1.794,1.794,0,0,1,.359,2.225c.323,1.651.628,3.3.951,4.952.718.628.538,1.417.413,2.189a2.709,2.709,0,0,1,.413,2.063c.484,1.166,1.561,2.189,1.059,3.588a48.944,48.944,0,0,1,3.875,11.375c.7.341.5.933.395,1.489a86.009,86.009,0,0,1,5.382,15.214,2.458,2.458,0,0,1,1,2.638c.825,2.1,1.633,4.18,2.458,6.261a2.44,2.44,0,0,1,1.184,3.014,2.566,2.566,0,0,1,.951,2.117c.843.233.682.861.556,1.453a8.575,8.575,0,0,1,1.651,3.588c.538.413.395.951.341,1.489l.431.951a1.938,1.938,0,0,1,1.041,1.9l.9,1.471a1.686,1.686,0,0,1,1.2,2.1l.269.682c1.381,1.489,3.768,2.332,3.283,5.041,2.835,4.593,6.62,8.63,8.289,13.922.682.538,1.363,1.076,2.027,1.633h2.745l2.027-1.633c1.328-4.826,4.934-8.307,7.338-12.559.843-4.18,3.588-7.176,6.369-10.1a42.885,42.885,0,0,1,3.714-8.468c-.126-.592-.3-1.22.556-1.453a2.512,2.512,0,0,1,.951-2.117,2.4,2.4,0,0,1,1.184-3.014c.807-2.081,1.633-4.162,2.44-6.261a2.512,2.512,0,0,1,1-2.637c2.279-6.961,4.521-13.922,6.836-20.847,1.059-3.158,2.279-6.244,3.409-9.365,0-.574-.341-1.184.449-1.507a2.637,2.637,0,0,1,.413-2.063c-.108-.538-.269-1.077.179-1.543l1.2-6.315a1.076,1.076,0,0,1,.341-1.507l.52-2.763c-.108-.754-.377-1.525.215-2.225.413-3.068.807-6.136,1.22-9.2-.287-.556-.377-1.094.251-1.489.144-.413.179-1.094.449-1.22,5.956-2.494,6.6-7.41,5.921-12.936a1.041,1.041,0,0,1-.179-1.507c-.61-1.92-1.328-3.821-1.794-5.777-.395-1.561.2-2.494,1.794-1.489a198.664,198.664,0,0,1,30.285,21.637,1.852,1.852,0,0,1,2.063,2.1l.807.736c.431,0,.7.144.538.646a23.238,23.238,0,0,0,1.507,1.938c1.794,1.938,2.745,3.481.771,6.315-2.584,3.714-1.507,8.235-.7,12.469l.987,2.009h.018l.108.969c-.179-.126-.449-.2-.5-.359a.413.413,0,0,1,0-.5c-1.292.323-1.292-1.2-1.956-1.794-2.279-2.081-4.593-4.126-6.836-6.244-2.727-2.566-5.508-2.619-8.755-.843a7.356,7.356,0,0,0-4.378,7.786c.718,6.351,3.839,11.626,7.7,16.542.359.449.933.771.807,1.525-.7.718-1.6.341-2.243.09a11.106,11.106,0,0,0-12.828,5.131,13.258,13.258,0,0,0,3.427,14.945,14.909,14.909,0,0,0,7.553,3.588c6.495.79,12.559,3.714,19.412,4.432a87.628,87.628,0,0,0-7.751,12.882,45.245,45.245,0,0,0-3.158,9.437c-1.22,5.58,1.956,9.2,7.5,9.814,9.293,1.023,13.671-4.755,17.3-11.751,1.561-3.014,2.871-6.154,4.719-10.137,1.328,6.333,3.965,11.2,5.831,16.344a10.657,10.657,0,0,0,8,5.92c10.531.861,16.4-7.176,12.344-17.1-.861-2.1-1.6-4.234-2.44-6.315s0-2.027,1.6-1.579a98.008,98.008,0,0,0,16.147,2.6c5.6.538,9.276-3.014,13.187-5.992,1.256-.969.771-2.548.305-3.983-1.794-5.634-5.9-9.293-10.872-12.11l-7.607-4.127a51.342,51.342,0,0,0,10.46-5.024c8.791-4.88,8.468-14.748,6.423-21.978-.628-2.189-2.745-2.458-4.754-2.063s-4.144,1.023-6.226,1.561c-.789-.879-.143-1.794.09-2.6a15.429,15.429,0,0,0,.448-5.651c-.646-6.531-3.911-8.54-10.065-6.495a29.494,29.494,0,0,0-14.353,9.186c-.233-4.037-.538-7.176-.574-10.406a13.994,13.994,0,0,0-2.44-7.338c-2.314-3.75-5.723-4.2-8.719-.969a15.3,15.3,0,0,0-3.947,9.67c-.251,3.481.359,7.176-1.238,10.765-2.332-1.956-3.176-4.611-4.4-6.907-2.314-4.378-4.844-8.181-10.406-8.432-1.13,0-1.561-.718-1.794-1.794-2.225-14.174.251-27.9,4.2-41.444a310.521,310.521,0,0,1,10.765-30.159c1.077-2.655,2.3-3.373,5.382-2.6,10.083,2.566,20.076,5.382,30.285,7.607,4.162.879,8.253,2.6,12.559,3.427,1.417.269,1.794,1.346,2.189,2.512.7,2.386,1.453,4.754,2.045,7.176.664,2.763,1.364,5.382,6.028,5.526-3.588,1.794-2.727,3.337-1.292,4.97,7.392,8.325,15.483,15.788,26.517,18.784s14.676,12.38,15.017,21.314c.5,13.258.61,26.553-2.709,39.47a102.621,102.621,0,0,1-5.687,17.941c-4.091,8.97-6.674,18.515-11.751,27.019a92.92,92.92,0,0,1-14.819,17.654c-4.216,4.2-9.186,7.392-13.384,11.626s-9.778,5.651-14.658,8.576c-8.755,5.257-17.708,10.208-27.845,12.254-16.291,3.265-32.671,6.208-49.249,1.991-9.742-2.458-19.466-5.059-29.047-8.091-7.176-2.279-12.272-7.84-17.134-13.366-2.512-2.853-5.382-5.382-7.643-8.45a4.719,4.719,0,0,0-5.382-1.991l-.2,2.565c7.015,7.392,12.792,15.95,21.529,21.673a31.289,31.289,0,0,0,8.127,4.127c4.2,1.256,8.45,2.314,12.7,3.373,7.176,1.794,14.353,4.647,21.691,5.723,17.475,2.512,34.393-.736,51.24-4.988,9.652-2.422,17.439-8.486,26.158-12.7a86.316,86.316,0,0,0,17.564-11.967c4.9-4.091,9.2-8.666,13.779-13.007a54.861,54.861,0,0,0,12.164-16.847c3.5-7.517,6.244-15.286,9.329-22.965,6.046-15.124,9.634-30.643,9.114-46.97-.269-8.271.359-16.649-2.261-24.992,1.686.395,2.924.754,4.162.987,10.37,1.956,20.866,1.453,31.271,1.112,12.056-.377,23.646-3.911,34.878-8.235,5.382-2.063,10.765-4.019,16.147-6.261,6.566-2.781,13.151-5.382,18.6-10.047a250.25,250.25,0,0,0,19.179-19.107c9.76-10.244,15.2-22.947,21.529-34.985,5.956-11.213,7.374-24.131,8.827-36.725a84.216,84.216,0,0,0-2.655-34.734C737.385,1046.425,734.963,1039.32,733.474,1031.982ZM604.118,1113.74c-.879-.341-2.063-.7-2.135-1.687s1-1.794,1.956-2.332a12.562,12.562,0,0,1,4.306-1.579c7.338-.5,14.622-2.207,22.05-1.382,2.691.287,4.79-.574,6.549-3.768a29.651,29.651,0,0,1,.5,3.588c0,2.135.664,5.041-3.229,2.691-1.938-1.166-3.265.484-4.754,1.4-7.93,4.88-16.291,6.441-25.243,3.1Zm10.155,25.118c-1.615-.431-2.045-1-1.471-2.745,2.207-6.8,6.746-11.9,11.841-16.578a11.769,11.769,0,0,1,7.087-2.978,13.817,13.817,0,0,0,5.705-2.386c-.915,3.229,1.256,4.485,2.619,6.172.718.843,1.794,1.471.359,2.8-4.826,4.288-8.576,9.742-14.353,12.953-3.732,2.1-7.338,4.037-11.787,2.835Zm34.088-12.092c-.108.825-.179,1.651-.269,2.476a32.061,32.061,0,0,1-5.813,16.883,13.025,13.025,0,0,1-13.9,4.593c-1.794-.574-1.184-1.794-.951-2.835,1.292-5.723,5.221-9.76,9.293-13.528,2.942-2.727,6.369-4.952,8.253-8.648.5-1,1.059-1.023,1.956-.628s1.579.664,1.435,1.758Zm25.512,17.564c-.359,3.086-1.794,6.351-4.18,7.41-2.027.9-4.719-1.651-6.369-3.588a52.281,52.281,0,0,1-9.939-19.376c-.359-1.274.2-1.417,1.2-1.435,1.651,0,3.3-.233,4.952-.215,5.9,0,5.9,0,10.406-3.821a97.025,97.025,0,0,1,3.911,19.627,5.384,5.384,0,0,1,.018,1.471Zm19.933-32.563c3.588,2.027,2.207,5.382,1.794,8.289-.52,3.427-3.086,4.18-6.1,4.126-5.544-.431-10.334-3.068-15.268-5.275-1.023-.448-1.292-1.184-.718-2.314a21.277,21.277,0,0,0,1.794-8.97c0-1.9.682-2.171,2.332-1.794a68.646,68.646,0,0,1,16.165,6.01Zm-8.181-33.729a9.412,9.412,0,0,1,2.35-.825c2.6-.377,5.741-2.709,7.517.915s-.5,8.971-3.373,11.016c-5.149,3.75-11.357,5.275-16.739,8.486-1.256.754-1.669.467-2.4-.735a28.829,28.829,0,0,0-5.382-7.517,67.236,67.236,0,0,1,18.031-11.267ZM669.37,1099.4c3.158,8.271,1.471,15.537-4.055,22.175-.61.736-1.238,1.525-2.314,1.435-4.449-.377-8.971.52-13.33-1.292a10.98,10.98,0,0,1-7.643-9.437,36.921,36.921,0,0,0,8.971,5.257c5.382,2.171,11.734,1.148,13.689-1.794,3.588-5.382,3.857-12.146.126-16.937-5.221-6.71-9.6-8.163-16.147-5.221a10.46,10.46,0,0,0-5.58,5.921c-.3.771-.574,1.794-1.615,1.471-1.346-.413-.108-1.292-.161-1.956-.377-4.252,3.068-6.782,4.665-10.1,1-2.045,4.126-1.794,6.208-1.382,7.464,1.346,14.138,3.965,17.188,11.931Zm-21.852,0a7.984,7.984,0,0,1,11.841-1.4,12.721,12.721,0,0,1,4.252,9.437c0,5.382-4.2,8.271-9.455,6.943-8.379-1.955-10.585-9.509-6.584-14.819Zm-28.544-29.764c-1.13-1.346-1.956-2.548-.9-4.431a3.463,3.463,0,0,1,4.234-1.651,29.568,29.568,0,0,1,16.291,9.383c2.476,2.548,4.9,5.167,7.284,7.8,1.13,1.238,2.422,2.314,3.983,1.22s1.041-2.871,0-4.36a32.293,32.293,0,0,1-5.562-13.259c-.592-3.965.215-6.71,2.942-7.966a8.558,8.558,0,0,1,9.563,2.6,6.024,6.024,0,0,1,1.112,1.794c2.081,8.45,5.185,16.685,5.92,26.015-5.382-2.942-10.765-4.324-16.47-3.1-.466.09-1.076,0-1.4.251-5.9,4.844-10.352.395-14.64-2.655a65.785,65.785,0,0,1-12.361-11.482Zm-9.4,16.488a3.875,3.875,0,0,1,4.342-2.332,31.634,31.634,0,0,1,11.267,2.853c3.588,1.543,7.41,2.835,11.141,4.126,1.669.574,2.871,1.238,2.081,3,.251,2.853-1.4,5.023-1.489,7.535,0,.9-.664.843-1.543.646a62.365,62.365,0,0,1-21.529-8.558,36.391,36.391,0,0,1-3.014-2.494,3.929,3.929,0,0,1-1.256-4.611Zm50.11-160a18.318,18.318,0,0,1-2.655,8.056,8.7,8.7,0,0,1-9.509,2.942c-2.835-1.148-3.768-4.126-3.158-8.181a32.168,32.168,0,0,1,5.382-12.971c.987-1.471,1.92-3.14.3-4.431s-3.194,0-4.485,1.471c-4.988,5.382-9.6,11.2-16.4,14.5a20.418,20.418,0,0,1-7.733,2.422,3.176,3.176,0,0,1-3.445-1.9,2.978,2.978,0,0,1,.377-3.588,75.584,75.584,0,0,1,20.578-17.277,2.566,2.566,0,0,1,2.745-.251c7.177,5.634,14.353,3.068,21.87,0C664.149,913.786,660.794,919.706,659.682,926.129Zm32.294-21.888c3.068,2.207,5.293,8.45,3.445,11.644a2.906,2.906,0,0,1-3.086,1.256,24.67,24.67,0,0,1-10.765-3.588c-4.808-2.8-9.939-5.149-13.8-9.527a36.892,36.892,0,0,0,5.239-7.589c.628-1.076,1.076-1.346,2.171-.7,5.4,3.211,11.608,4.719,16.775,8.45Zm-4.7-34.662c6.261-1.076,8.845,1.166,8.971,8.4.484,3.839-3.588,4.431-6.369,5.723a102.828,102.828,0,0,1-11.787,3.839c-2.261.754-2.781,0-2.853-2.243a18.946,18.946,0,0,0-1.633-8.307c-.682-1.328-.269-2.1.843-2.566,4.144-1.866,8.217-4.109,12.81-4.9Zm-33.514-5.956a56.154,56.154,0,0,1,8.5-16.99,11.751,11.751,0,0,1,1.92-2.081c4.826-4.252,7.7-3.373,9.347,2.942a10.621,10.621,0,0,1,.323,4.9c-1.435,5.813-1.453,11.967-4.162,18.067-3.463-6.154-9.222-3.588-14.12-4.18-2.063-.305-2.476-.556-1.83-2.709Zm2.3,6.871a5.417,5.417,0,0,1,1.417.126c2.422.179,5.131-1.238,7.176.646a18.426,18.426,0,0,1,5.58,9.365c3.409,14.586-6.226,25.728-21.063,25.118-1.938,0-2.906-1.023-4.109-2.906a21.351,21.351,0,0,1-3.857-8.612c-.09-.646-.861-1.381,0-1.794s1.453.484,1.794,1.274a11.339,11.339,0,0,0,7.8,6.925c6.172,1.973,13.635-2.44,16.021-9.581a14.55,14.55,0,0,0-2.53-13.779c-1.974-2.709-7.822-3.5-12.182-1.956a40.744,40.744,0,0,0-10.872,6.513c2.745-7.894,7.84-11.554,14.8-11.321Zm-10.442,16.362c.807-5.544,9.957-9.9,13.671-7.93a8.79,8.79,0,0,1,4.431,6.477,13.187,13.187,0,0,1-4.916,10.406c-3.014,2.44-6.279,1.973-9.419.126-2.207-1.256-4.2-6.315-3.786-9.132Zm-12.164-44.3c4.18-.395,7.822,2.189,10.208,6.818a35.345,35.345,0,0,1,4.647,16.578c0,1.22,0,1.884-1.31,2.458-1.543.7-1.794-.323-2.35-1.22-1.794-3.229-4.683-5.257-7.338-7.607a32.868,32.868,0,0,1-8.971-11.267c-2.153-5.005-1.525-5.974,5.1-5.813Zm-20.686,14.658c-.52-1.561-.108-2.135,1.328-2.566,4.431-1.292,8.091.592,11.787,2.6,5.956,3.229,9.742,8.827,14.658,13.187,1.346,1.184.287,1.794-.323,2.548-1.346,1.794-3.983,2.978-2.548,6.566a14.982,14.982,0,0,0-7.822-3.014,8.971,8.971,0,0,1-5.023-2.494,39.2,39.2,0,0,1-12.075-16.882Zm-5.167,27.97c-2.207-.2-5.526-1.13-5.382-3.7.108-2.081,3.588-2.924,5.526-3.086,7.715-.646,15.376-.359,21.906,4.719,1.794,1.328,3.445,2.171,5.382.825,1.686-1.13,2.332-.771,2.261,1.238a11.589,11.589,0,0,1-.736,4.916c-1.794-3.947-5.023-3.588-8.02-3.283-7.069.574-13.958-1.112-20.955-1.686Zm2.673,17.941a23.017,23.017,0,0,1,8.289-5.974,66.882,66.882,0,0,1,16.721-5.669c1.041-.2,1.651-.287,1.686.843.09,2.494,1.794,4.665,1.435,7.32.161.969.538,1.991-.951,2.53-7.069,2.494-13.851,5.795-21.278,7.177a9.656,9.656,0,0,1-3.588,0,3.75,3.75,0,0,1-2.332-6.3Zm-68.553-67.656a42.037,42.037,0,0,1,10.765-18.784,86.828,86.828,0,0,1,13.223-9.832c2.763-1.794,6.531-2.1,10.478-3.265a50.235,50.235,0,0,1-11.572,22.014,41.767,41.767,0,0,1-20.22,12.4C542.006,838.595,540.858,838.5,541.719,835.473Zm-319.047,2.745c-7-1.991-13.528-4.539-18.856-10.011a74.132,74.132,0,0,1-10.639-13.94c-1.669-2.8-2.171-6.279-3.158-9.473-.215-.718.233-1.059,1.292-.915,3.05,1.417,6.746,1.794,9.993,3.732a70.816,70.816,0,0,1,13.061,10.065c5.58,5.221,8.038,11.841,10.029,18.838C224.878,838.218,224.376,838.612,222.672,838.218Zm-60.587,41.588c2.566,1,2.386,2.4.341,3.588a10.619,10.619,0,0,1-4.575,1.794c-7.176.448-14.353,2.225-21.709,1.435a7.177,7.177,0,0,0-7.176,2.691,23.106,23.106,0,0,1-.341-2.727c0-2.171-.449-4.736,3.14-2.476,1.9,1.2,3.283-.377,4.772-1.292C144.574,878.065,153.006,876.235,162.084,879.805ZM151.75,854.562c1.615.466,1.974,1.059,1.417,2.763-2.207,6.782-6.692,11.877-11.805,16.506a9.832,9.832,0,0,1-5.651,2.727,12.559,12.559,0,0,0-7.446,3.194,7.3,7.3,0,0,0-2.691-7.051c-.736-.682-1.22-1.31-.161-2.279,4.916-4.5,8.971-10.083,14.891-13.366C143.838,855.118,147.444,853.324,151.75,854.562Zm-33.963,10.765a9.885,9.885,0,0,0,0-1.561,32.868,32.868,0,0,1,6.423-17.3c2.476-3.481,9.742-5.382,13.581-3.786,1.794.7.933,1.991.682,2.978-1.435,5.777-5.382,9.85-9.652,13.671a38,38,0,0,0-7.266,7.176c-.52.807-.449,2.44-2.386,1.794s-1.633-1.561-1.381-2.906ZM95.523,842c.771-1.166,1.453-.61,2.35-.2a18.6,18.6,0,0,1,8.038,7.786,52.978,52.978,0,0,1,6.818,16.039c-5.382,2.117-12.308-2.4-16.488,5.059a86.994,86.994,0,0,1-4.126-21.081c-.215-2.943,1.83-5.2,3.409-7.553ZM72.038,881.474c-3.481-2.027-2.063-5.382-1.561-8.343.538-3.229,2.96-4,5.867-3.965,5.669.359,10.567,3.068,15.591,5.382a1.328,1.328,0,0,1,.646,2.045,22.39,22.39,0,0,0-1.794,9.347c0,1.794-.646,1.992-2.153,1.615a63.813,63.813,0,0,1-16.6-6.01Zm5.562,34.77c-6.351,2.1-7.876.628-7.41-6.028.341-4.988,4.4-6.279,7.643-8.414,4.091-2.691,9.078-3.588,13.133-6.3,1.238-.843,1.489.2,2.045,1.023,1.794,2.53,2.942,5.382,5.382,7.464A61,61,0,0,1,77.6,916.316ZM98.932,898.3A20.973,20.973,0,0,1,100.51,872c.61-.7,1.148-1.579,2.261-1.579,5.651,0,11.375-.5,16.6,2.691,3.086,1.9,3.086,5.113,4.27,7.93-3.158-1.794-5.616-4.252-8.971-5.382-5.382-1.794-11.177-1-13.151,1.794-3.409,4.79-4.126,12.11-.969,16.416,4.575,6.244,9.652,9.383,16.614,6.118a8.97,8.97,0,0,0,4.934-5.651c.3-.861.7-2.081,1.794-1.9s.789,1.561.646,2.386a17.134,17.134,0,0,1-2.476,6.584c-2.207,3.445-4.449,5.149-8.271,4.521C108.01,904.977,102.5,903.183,98.932,898.3Zm21.368-9.419a8.773,8.773,0,0,1-7.535,8.54c-3.337.646-5.939-1.507-7.894-4.144a12.325,12.325,0,0,1-2.494-7.177c0-5.58,4.216-8.7,9.634-7C117.859,880.864,120.766,884.327,120.3,888.884Zm26.714,34.842c1.13,1.346,1.794,2.583.843,4.449a3.588,3.588,0,0,1-4.27,1.579,29.443,29.443,0,0,1-16.255-9.4c-2.476-2.548-4.916-5.167-7.3-7.786-1.13-1.256-2.458-2.3-3.983-1.184s-.987,2.87,0,4.378a31.935,31.935,0,0,1,5.544,13.258c.592,3.929-.251,6.692-2.96,7.948a8.594,8.594,0,0,1-9.563-2.637,6.03,6.03,0,0,1-1.112-1.794c-2.063-8.45-5.185-16.667-5.9-25.961,5.382,2.853,10.765,4.36,16.47,3.068.466-.108,1.094,0,1.381-.251,5.885-5.382,10.137-.359,14.353,2.512a63.564,63.564,0,0,1,12.756,11.823Zm9.294-16.326c-.987,2.171-2.942,2.081-4.772,2.171a36.121,36.121,0,0,1-9.9-2.566c-4-1.651-8.074-3.086-12.146-4.539-1.543-.538-2.027-1.238-1.974-3.05,0-2.566,1.507-4.737,1.561-7.177,0-.807.449-1.076,1.435-.843a61.576,61.576,0,0,1,22.731,9.365c.574.413,1.076.915,1.615,1.381a4.216,4.216,0,0,1,1.489,5.257Zm-48.3,153.792a7.177,7.177,0,0,1,7.338-5.113c4.719,0,7.176,2.781,6.495,7.5a32.473,32.473,0,0,1-5.382,13.689c-1.041,1.543-2.314,3.283-.52,4.7s3.337-.269,4.683-1.686c4.934-5.239,9.455-11,16.147-14.227a21.53,21.53,0,0,1,7.715-2.44,3.247,3.247,0,0,1,3.588,1.794,3.1,3.1,0,0,1-.52,3.875,63.654,63.654,0,0,1-18.91,15.878,6.656,6.656,0,0,1-6.818-.179c-5.239-2.691-11.034-2.045-16.47.449l-3.086,1.489C102.7,1077.589,105.839,1069.479,108.01,1061.19Zm-34.429,27.863c-2.745-1.956-4.79-8.755-2.942-11.536a3.158,3.158,0,0,1,3.176-1.112,25.747,25.747,0,0,1,10.765,3.588c4.736,2.709,9.67,5.113,13.761,9.455a31.076,31.076,0,0,0-5.239,7.41c-.718,1.148-1.076,1.561-2.386.789C85.117,1094.525,78.837,1092.821,73.581,1089.053Zm2.871,35.2c-3.068,0-5.382-.843-6.118-4.18-1.13-4.862-.395-6.854,3.194-8.863a70.832,70.832,0,0,1,14.64-5.221c1.6-.484,2.548-.52,2.619,1.794a20.238,20.238,0,0,0,1.794,8.971,1.453,1.453,0,0,1-.789,2.3C86.785,1121.2,82,1123.877,76.451,1124.253Zm35.559,6.405a61.791,61.791,0,0,1-8.325,16.326,12.408,12.408,0,0,1-1.669,1.794c-4.988,4.5-8.181,3.445-9.634-3.229a10.084,10.084,0,0,1-.161-3.588,92.916,92.916,0,0,1,4.055-19.341c3.176,6.28,8.576,4.091,13.169,4.467C111.957,1127.429,113.123,1127.393,112.011,1130.658Zm-.879-7.661a34.193,34.193,0,0,1-4.378,0c-4.79,1.794-7.176-1.938-9.329-6.028a19.448,19.448,0,0,1,1.184-21.26c4.073-5.938,10.424-8.145,17.654-8.091,3.122,0,3.588,2.53,5.167,4.019,2.512,2.279,2.655,4.772,3.068,7.481,0,.664.323,1.579-.5,1.794s-1.507-.592-1.794-1.328c-1.669-5.6-6.01-7.733-11.159-7.392-5.867.395-9.581,4.575-11.769,9.706a13.312,13.312,0,0,0,2.889,14.694c3.068,3.588,7.464,2.494,11.285,1.615a14.622,14.622,0,0,0,7.93-4.467c.52-.592,1.094-2.009,2.153-1.112s-.161,1.651-.431,2.512C121.232,1121.006,116.317,1122.172,111.132,1123Zm3.839-9.814c-2.35.987-4.557,2.871-7.553,1.6a7.912,7.912,0,0,1-5.113-7.176,12.218,12.218,0,0,1,8.827-11.626c2.727-.754,7.553,2.6,8.773,6.1a8.648,8.648,0,0,1-4.88,11.105Zm17.69,37.82c-3.893.323-7.607-1.884-10.047-6.423a36.349,36.349,0,0,1-4.9-17.224c0-1.13,0-1.794,1.256-2.135.628-.161,1.364-.843,1.794.108,2.8,5.938,9.114,8.5,12.846,13.581a32.816,32.816,0,0,1,4.019,6.208C139.837,1150.178,139.227,1151.129,132.661,1151Zm18.838-18.731a13.115,13.115,0,0,1,.646,1.651c1.794,4.557.484,6.19-4.557,5.275-6.4-1.166-11.2-5.382-15.824-9.527-2.153-1.973-3.337-4.844-5.974-6.387-1.2-.7-1.274-1.561-.179-2.476a8.612,8.612,0,0,0,2.889-6.925,14.5,14.5,0,0,0,6.549,2.978c8.2,2.153,12.577,8.5,16.4,15.411Zm6.925-23.916c2.207.2,5.544,1.112,5.382,3.588,0,2.117-3.588,2.924-5.49,3.1-7.715.664-15.358.341-21.906-4.7-1.579-1.2-3.229-2.279-5.149-1-2.548,1.686-2.763.323-2.6-1.794.108-1.238.215-2.476.413-4.826,2.243,4.593,5.526,4.073,8.666,3.839,6.961-.395,13.761,1.166,20.632,1.794Zm-2.763-17.762c-3.875,4.019-8.827,6.225-13.869,8.253a65.194,65.194,0,0,1-10.926,3.1c-.879.179-1.794.682-1.794-.592-.126-2.512-1.794-4.683-1.489-7.446-.2-.987-.484-2.063,1.148-2.637,6.728-2.368,13.223-5.382,20.238-7.015a15.21,15.21,0,0,1,4.234-.269,3.3,3.3,0,0,1,3.229,2.315,3.839,3.839,0,0,1-.825,4.288Zm68.033,69.4c-3.229,11.016-10.352,18.838-20.2,24.436-1.31.736-2.386,2.745-3.588,2.727-3.588,0-6.226,2.673-9.975,2.458a47.938,47.938,0,0,1,11.106-21.278,40.762,40.762,0,0,1,18.731-12.2c1.453-.448,3.588-1.274,4.342-.646,1.256,1.076.054,3-.466,4.5Zm370.915-196.6c1.956-4.755,1.794-4.575,7.176-3.983A148.125,148.125,0,0,1,623.728,963a276.462,276.462,0,0,1,27.432,9.132c7.3,2.8,14.64,5.526,21.816,8.63a167.112,167.112,0,0,1,23.7,13.546,3.014,3.014,0,0,1,.126,4.718c-13.007,9.347-27.5,15.609-42.431,21.207-9.186,3.445-18.533,6.423-27.809,9.581-6.6,2.243-13.851,2.6-20.812,3.75-2.458.413-4.934.664-7.392,1a1.794,1.794,0,0,1-2.44-1.417,44.689,44.689,0,0,0-1.794-4.288c-1.094-2.243-.556-2.907,2.009-3.194,7.3-.843,9.347-5.669,5.382-11.751a21.047,21.047,0,0,0-4.539-5.382c-1.112-.843-1.417-1.023-.126-2.189,6.6-5.974,6.6-13.366.126-19.143-.951-.861-1.669-1.112-.108-2.171a19.736,19.736,0,0,0,4.97-5.956c3.588-5.382,1.6-10.406-4.808-11.07C592.941,967.573,593.5,966.066,594.609,963.393Zm-5.6-10.944a3.176,3.176,0,0,1,3.211,4.611c-.341,1-.377,2.1-.628,3.122-1.292,5.382-3.947,8.827-10.227,9.222-4.2.269-7.948,2.96-11.572,5.257a3.785,3.785,0,0,0-2.1,4.162,4.754,4.754,0,0,0,3.732,3.427,10.065,10.065,0,0,0,7.177-1.328,34.376,34.376,0,0,0,10.639-7.625c1.6-1.794,7.571-2.063,9.329-.556s.538,3.283-.3,4.431c-2.888,3.893-5.741,8.235-10.765,6.3-5.831-.843-10.119,1.041-14.353,2.691a2.817,2.817,0,0,0-2.171,3.247c.395,1.884,1.794,2.548,3.7,2.584,4.7,0,9.1-1.417,13.581-2.422a7.625,7.625,0,0,1,8.325,3.283,9.383,9.383,0,0,1-1.489,9.581c-3.588,3.839-7.482,1.13-11.177.448a62.314,62.314,0,0,0-8.737-1.345c-1.991,0-3.678.269-4.144,2.422s1.256,2.978,2.96,3.732a29.029,29.029,0,0,0,15.286,2.386c3.678-.431,10.209,5.49,10.209,9.078a1.794,1.794,0,0,1-.969,1.7,9.33,9.33,0,0,1-9.545-1.077,32.69,32.69,0,0,0-13.42-8.414,6.959,6.959,0,0,0-3.839-.162,4.7,4.7,0,0,0-3.911,3.588,3.929,3.929,0,0,0,2.314,4.091c4.216,2.44,8.379,4.934,13.366,5.58s7.087,3.05,8.54,9.652c1.31,5.9.179,7.338-5.938,6.8-9.634-.843-17.349-4.665-21.727-14.012-2.368-5.042-7.177-8.432-9.832-13.474-.646-1.256-1-1.668.664-2.494,9.814-4.934,10.98-18.246,4.252-25.333-.879-.933-1.7-2.279-2.8-2.566-3.3-.879-2.871-2.368-1.274-4.539,1.041-1.435,1.938-2.96,3.122-4.306a77.03,77.03,0,0,0,7.284-10.442c5.113-8.468,13.617-11.554,23.234-11.3Zm-6.19,22.462c-3.588,0-6.082,3.463-9.8,3.1,2.727-2.3,6.459-2.727,8.971-5.382.359-.413.825,0,1.041.52s.359,1.74-.215,1.758Zm.377,44.656a1.955,1.955,0,0,1-.538,1.238c-.736.682-.843-.323-1.274-.556-2.763-1.507-5.58-2.924-8.737-4.557a2.781,2.781,0,0,1,3.588.215,14.352,14.352,0,0,0,6.136,2.476c.807.108.861.646.825,1.184Zm-8.971,23.323c-.161,0-.341.179-.5.144s-.269-.2-.395-.3c.2,0,.377-.215.556-.2s.251.323.359.448Zm-26.643-36.869a47.774,47.774,0,0,0-11.9-9.365c4.97-3.158,9.634-6.208,13.133-10.765,1.2-1.561,5.526-.413,7.051,1.633a14.048,14.048,0,0,1,0,18.264,5.257,5.257,0,0,1-8.271.323ZM573.277,950.4a1.686,1.686,0,0,1,.592-.251c.161,0,.3.179.448.287-.179.108-.359.269-.538.269a.842.842,0,0,1-.484-.144Zm-82.924-92.917c-.395-1.92.7-2.153,2.045-2.566,11.913-3.5,23.951-6.495,36.134-8.881,2.207-.431,4.467-3.409,6.459-1.238,1.686,1.794-1.041,4.037-1.453,6.208q-3.588,18.264-8.971,36.134c-.395,1.328-.664,2.655-3.445,1.794a53.573,53.573,0,0,0-32.994,4.27c-.628.305-1.31.79-1.956.162s-.144-1.31.143-1.938a52.352,52.352,0,0,0,4.055-33.783ZM488.308,744.26a62.29,62.29,0,0,1-8.379,21.26,27.322,27.322,0,0,1-2.189,2.8c-1.417,1.615-3.014,2.637-5.382,1.669s-2.189-2.853-2.314-4.647a34.662,34.662,0,0,1,2.386-9.706c1.6-4.019,3.158-8.038,4.521-12.128.682-2.063,1.794-2.87,3.821-2.368s4.36,1,6.566,1.453c1.148.359,1.238.718.987,1.83Zm-2.512-12.2a8,8,0,0,1-1.4-11.859,12.756,12.756,0,0,1,9.437-4.234c5.382,0,8.271,4.2,6.943,9.455-2.117,8.5-9.652,10.746-14.963,6.8Zm14.227,43.346c-.341.861-.664,2.045-1.651,2.153s-1.9-.951-2.35-1.794a11.682,11.682,0,0,1-1.6-4.288c-.449-7.177-2.189-14.353-1.417-21.727a6.136,6.136,0,0,0-3.947-6.961c2.171-.287,3.086-.467,4-.5,2.35-.144,4.539-.2,2.422,3.194-1.184,1.9.413,3.265,1.346,4.772,4.916,7.984,6.549,16.344,3.212,25.315Zm25.118-10.226c-.466,1.794-1.076,2.1-2.96,1.489-6.692-2.117-11.626-6.638-16.147-11.59a10.065,10.065,0,0,1-2.817-5.615,11.177,11.177,0,0,0-2.853-7.069,8.97,8.97,0,0,0,6.584-3.14c.861-.825,1.471-1.274,2.53,0,4.27,4.808,9.706,8.54,12.9,14.353,2.009,3.732,3.965,7.3,2.817,11.733Zm9.222-26.32c2.727,2.3,2.6,5.669,2.888,9.114,0,4.808-.951,5.382-5.831,3.283a31.344,31.344,0,0,1-10.765-8.415c-2.727-2.978-4.97-6.351-8.666-8.271-.718-.377-1.148-.735-.7-1.633s.484-1.794,1.794-1.794a33.819,33.819,0,0,1,21.332,7.876Zm-4.019-33.137c2.871-.161,5.006,1.794,7.266,3.373,1.166.771.7,1.453.2,2.368a17.366,17.366,0,0,1-5.131,6.225,53.447,53.447,0,0,1-18.713,8.648c-2.045-5.382,2.386-12.308-4.988-16.506a83.082,83.082,0,0,1,21.422-3.947Zm-38.215-3.75a66.13,66.13,0,0,1,5.939-16.255c2.027-3.588,5.382-2.153,8.307-1.687,3.463.556,4.109,3.158,4,7.392-.413,4.27-3,9.1-5.239,14.012a1.328,1.328,0,0,1-2.009.789,21.529,21.529,0,0,0-9.329-1.794c-1.974.018-2.009-.772-1.615-2.3Zm15.106,11.751c.879.754,2.063,1.381,2.027,2.745-.161,5.167.538,10.406-2.081,15.3-2.009,3.75-5.1,5.239-9.9,5.8,4.485-4.36,7.535-8.486,7.679-14.03.2-7.643-5.956-12.81-13.653-11.446a15.753,15.753,0,0,0-11.877,9.2,11.429,11.429,0,0,0,5.293,14.64c.969.52,2.655.7,2.512,2.978-3.068-1.615-6.925-.215-9.276-3.929-.861-1.346-3.839-.987-4.073-3.588a24,24,0,0,1,1.238-9.742c4.79-14.281,22.229-16.345,32.168-7.769Zm-42.9-19.735A8.343,8.343,0,0,1,463.6,692c-.413-2.727-2.906-5.956.682-7.948s8.971.467,11.249,3.588c3.732,5.149,5.185,11.393,8.486,16.739.682,1.13.269,1.525-.754,2.153a32.773,32.773,0,0,0-7.661,5.382,66.847,66.847,0,0,1-11.213-17.69Zm-8.109,66.382c-1.4,1.184-2.655,2.243-4.719,1.076s-1.794-2.853-1.525-4.611a29.208,29.208,0,0,1,8.845-15.448c2.619-2.583,5.382-5.1,8.056-7.553,1.31-1.2,2.637-2.53,1.4-4.234s-2.906-.915-4.4,0a32.153,32.153,0,0,1-13.294,5.526c-3.875.574-6.71-.323-7.912-3.068a8.7,8.7,0,0,1,2.458-9.329,6.728,6.728,0,0,1,2.44-1.453c8.307-1.794,16.255-5.113,25.62-5.669a24.023,24.023,0,0,0-3.14,16.972,6.62,6.62,0,0,0,1.794,4.055c1.794,1.453,1.381,2.87.52,4.324a75.248,75.248,0,0,1-16.093,19.609Zm-27.2,44.62c.09,0,.2.287.287.448a1.8,1.8,0,0,1-.628.233c-.09,0-.2-.269-.287-.431a2.1,2.1,0,0,1,.682-.054ZM345.658,777.4a129.178,129.178,0,0,1,3.5-21.242c2.548-9.312,5.777-18.461,8.971-27.558,2.8-7.8,6.19-15.376,9.114-23.126,3.14-8.307,8.307-15.393,13.312-22.552,1.094-1.561.825-4.521,2.243-4.539,1.794,0,1.2,2.906,2.279,4.431a180.039,180.039,0,0,1,21.332,42.4c3.409,9.186,6.4,18.533,9.563,27.791,2.243,6.6,2.6,13.85,3.75,20.812.413,2.44.664,4.916,1,7.392a1.794,1.794,0,0,1-1.435,2.422A35.56,35.56,0,0,0,415,785.417c-2.225,1.076-2.889.556-3.176-2.009-.843-7.3-5.705-9.4-11.733-5.382l-.574.413c-3.427,2.817-6.064,5.813-10.944.861-3.588-3.588-10.765-1.543-14.676,2.584-1.22,1.274-2.3,2.153-3.588,0-1.112-1.9-3.194-2.781-4.952-3.983-5.651-3.839-10.657-1.794-11.393,5.077-.341,3.337-1.4,3.229-3.911,2.243-5.1-1.938-4.934-1.812-4.342-7.625Zm-7.015,13.061a3.1,3.1,0,0,1,4.342-3.193c1.471.431,2.96.789,4.467,1.094,5.257,1.041,7.553,4.144,8.056,9.545.413,4.36,3.014,8.181,5.382,11.9a3.786,3.786,0,0,0,4.216,2.045,4.916,4.916,0,0,0,3.3-3.463,9.132,9.132,0,0,0-1-6.872,34.465,34.465,0,0,0-7.715-11.016c-1.9-1.794-2.225-7.051-.9-9.276.879-1.489,1.938-1,3.068-.664a11.034,11.034,0,0,1,7.661,11.572c-.592,5.078.933,9.617,2.727,14.156.61,1.543,1.579,2.8,3.427,2.386s2.476-1.794,2.494-3.75c0-4.7-1.417-9.1-2.44-13.581a7.84,7.84,0,0,1,3.068-8.145,9.886,9.886,0,0,1,9.652,1.184c4.055,3.588,1.471,7.481.718,11.123a59.983,59.983,0,0,0-1.453,9.437,3.176,3.176,0,0,0,2.512,3.75c1.794.377,2.817-.861,3.409-2.422,1.633-4.324,3.5-8.63,2.745-13.043-.449-6.441,2.081-10.549,7.32-12.559,1.884-.718,3.409-.718,3.768,1.561.449,3.086,1.094,6.1-1.794,8.791a29.765,29.765,0,0,0-8.02,12.846,7.93,7.93,0,0,0-.323,3.839,4.88,4.88,0,0,0,3.481,4.127,3.857,3.857,0,0,0,4.378-2.35c2.386-4.216,5.257-8.325,5.382-13.366.269-6.226,5.221-7.033,9.473-8.307,5.992-1.794,7.607-.377,7.051,5.867-.843,9.509-4.575,17.152-13.779,21.529-5.149,2.44-8.648,7.356-13.761,10.029-1.435.735-1.794.7-2.476-.807-4.9-9.652-18.264-10.962-25.351-4.109-.825.825-2.171,1.525-2.386,2.494-1.041,4.575-3.265,2.35-5.382,1.094a16.649,16.649,0,0,1-2.637-1.794,82.785,82.785,0,0,0-11.5-8.235c-8.361-5.06-11.393-13.546-11.124-23.216Zm20.543,6.154c.646-.413,1.794-.431,1.794,0,.2,3.588,3.229,5.974,3.463,9.437,0,.126-.3.287-.646.592-1.938-2.835-2.422-6.531-5.041-8.971-.341-.2.054-.592.484-.861Zm47.239,1.543c-1.507,2.781-2.924,5.6-4.557,8.755-1.094-1.9-.09-2.96.61-4.162a13.312,13.312,0,0,0,2.1-5.526c0-.9.646-.9,1.184-.879a2.009,2.009,0,0,1,1.238.538c.718.951-.287,1.058-.52,1.471Zm-13.779,33.388c-4.324,3.122-6.513,7.8-9.688,12.11-3.3-4.647-6.046-9.4-10.514-12.792-1.794-1.328-.807-5.562,1.4-7.177,6.1-4.593,12.433-4.342,18.3,0,2.458,1.973,2.96,6.315.556,8.056Zm-55.779-26.3a1.578,1.578,0,0,1,.215.592c0,.108-.251.2-.377.3a2.044,2.044,0,0,1-.233-.628.989.989,0,0,0,.449-.072Zm-35.559-88.253c5.131,1.382,10.3,2.655,15.429,4.037,4.431,1.184,6.8,3.911,6.961,7.822.215,4.952-2.691,7.446-7.589,6.71A31.72,31.72,0,0,1,303.03,730.5c-.5-.341-.987-.682-1.489-.987-1.328-.807-2.8-1.148-3.821.233a2.637,2.637,0,0,0,.843,3.768,108.163,108.163,0,0,1,11.877,11.769,25.942,25.942,0,0,1,5.669,12.38,3.265,3.265,0,0,1-1.543,3.947,3.463,3.463,0,0,1-4.467-.753,75.854,75.854,0,0,1-16.506-19.735,3,3,0,0,1-.287-3.373c4.862-6.62,3.463-13.312.395-20.058-.2-.413-.323-.861-.574-1.525a32.891,32.891,0,0,1,8.181.825ZM282.021,704.52c3.247-5.382,4.754-11.59,8.486-16.757,2.207-3.05,8.45-5.275,11.644-3.427a2.888,2.888,0,0,1,1.256,3.068,25.459,25.459,0,0,1-3.588,10.765c-2.745,4.844-5.257,9.868-9.437,13.868a36.637,36.637,0,0,0-7.7-5.382c-1.112-.592-1.4-1.058-.736-2.135Zm5.382,11.052a20.65,20.65,0,0,1,4.79,13.815c-.108,2.906-1.794,3.893-3.786,5.705-3.05,2.745-6.1,2.978-9.563,3.193a3.071,3.071,0,0,1-.682-.233c.179-1.543,1.686-1.525,2.584-2.009,8-4.234,9.2-12.756,2.691-19.036-3.714-3.588-7.786-5.705-13.151-4.485-9.132,2.081-10.6,6.477-8.522,15.178.861,3.588,3.247,6.477,5.58,10.191a10.3,10.3,0,0,1-8.325-5.562c-2.906-4.916-2.171-10.316-2.314-15.627a2.368,2.368,0,0,1,.915-1.794c9.078-8.845,23.072-7.661,29.729.664Zm-27.468-31.523c4.9-1.041,6.62-.377,8.576,3.122a68.531,68.531,0,0,1,5.382,14.963c.449,1.543.359,2.314-1.651,2.386a21.53,21.53,0,0,0-9.347,1.794,1.346,1.346,0,0,1-2.009-.789c-2.243-4.934-4.79-9.742-5.293-15.268-.233-3.158.861-5.454,4.288-6.208ZM232.611,717.33a4.209,4.209,0,0,1-.574-.412c-1.956-2.027-5.006-4.629-4.019-6.89,1.148-2.6,4.7-4.306,8.127-4.162a98.649,98.649,0,0,1,15.986,2.619c1.364.287,2.691.825,5.006,1.543-6.3,3.265-4.306,8.522-4.539,13.007-.161,2.888-.377,3.768-3.588,2.655a62.063,62.063,0,0,1-16.452-8.361Zm2.225,33.927c-5.382,2.3-6.208,1.794-6.028-4.9-.395-4.288,2.225-7.894,6.854-10.3a35.578,35.578,0,0,1,16.6-4.611c1.238,0,1.794.126,2.4,1.346.736,1.579-.395,1.794-1.256,2.314-3.229,1.794-5.239,4.719-7.607,7.356a32.473,32.473,0,0,1-11.016,8.791Zm24.938,11.9-.269-.269a2.844,2.844,0,0,1,.484-.215s.161.144.233.215Zm.718-1.381s-.2-.179-.2-.269.144-.144.233-.233.2.179.179.269-.2.144-.269.234Zm3.1-15.627c-2.009,11.554-10.6,16.649-20.184,20.848-1.543.682-2.117,0-2.512-1.382-1.292-4.431.61-8.091,2.619-11.769,3.247-5.939,8.827-9.742,13.2-14.658,1.184-1.346,1.794-.251,2.53.395,1.794,1.435,3.014,3.75,6.351,2.386a19.736,19.736,0,0,0-1.974,4.181Zm9.437,3.786c.771,7.32-.933,14.479-1.471,21.709-.179,2.35-1.041,5.849-3.588,5.867-2.314,0-3.122-3.588-3.265-5.634-.556-7.7-.323-15.376,4.862-21.888,1.148-1.435,2.135-3.05.915-4.844-1.9-2.817-.144-2.853,1.938-2.745,1.13,0,2.279.215,3.409.323a7.033,7.033,0,0,0-2.853,7.213Zm.969-15.77c-4.36,0-9.85-6.118-9.527-11.141.233-3.875,3.1-6.818,7.966-6.836,5.616,0,11.68,5.005,11.733,9.491s-5.113,8.486-10.226,8.486Zm15.555,35.488a22.749,22.749,0,0,1-6.19-8.576,58.989,58.989,0,0,1-5.49-16.416c-.126-.789-.879-1.794.431-1.794,2.619-.162,4.916-1.9,7.661-1.489,1.059-.287,1.991-.377,2.494,1.041,2.422,6.836,5.526,13.438,7.176,20.578a9.615,9.615,0,0,1,0,4.575,3.75,3.75,0,0,1-6.136,2.081Zm-57.2,80.735c-.377-1.974-3.14-3.947-1.059-5.759,1.651-1.435,3.588,1.041,5.544,1.417q18.461,3.606,36.492,8.97c1.651.484,2.709.771,2.243,3.05a53.159,53.159,0,0,0,3.7,32.922c.251.538.556,1.041.825,1.579-.341,1.794-1.4,1.166-2.332.735a50.449,50.449,0,0,0-14.5-4.413,51.694,51.694,0,0,0-18.354.287c-2.314.484-3.032,0-3.588-2.261-3.588-12.056-6.638-24.184-9.024-36.492Zm-60.91,179.411c-1.023,1.794-.664,4.665-3.373,4.9-11.141-2.063-22.068-2.8-32.617-6.3-15.376-5.131-30.5-10.765-45.535-16.936-7.338-3-13.581-7.786-20.094-12.128a7,7,0,0,0-4.073-1.794c-.682,0-1.2-.144-1.112-.933a.947.947,0,0,1,.574-.736c4.952-.7,8.217-4.431,12.092-6.943A134.127,134.127,0,0,1,99.9,977.764c12.81-5.221,25.889-9.706,39.022-14.012a110.792,110.792,0,0,1,21.529-3.947c1.184-.144,2.35-.251,3.588-.359,1.794-.162,4.126-1.794,5.382-.233a23.325,23.325,0,0,1,3.014,6.764c.5,1.363-.466,1.543-1.543,1.6a10.173,10.173,0,0,0-5.006,1.507c-3.373,2.135-4.467,4.88-2.512,8.343a19.735,19.735,0,0,0,4.557,6.279c1.794,1.453,2.135,2.709,0,4.5a11.733,11.733,0,0,0,0,17.008c1.794,1.633,1.9,2.889,0,4.234a17.382,17.382,0,0,0-3.588,4.754c-3.786,5.49-1.794,10.532,4.808,11.267,3.642.484,3.732,1.866,2.243,4.414Zm5.58,11.159a3.176,3.176,0,0,1-3.211-4.611c.341-1,.377-2.1.628-3.122,1.274-5.382,3.947-8.845,10.209-9.24,4.216-.251,7.966-2.942,11.572-5.239a3.785,3.785,0,0,0,2.117-4.162,4.773,4.773,0,0,0-3.732-3.427,10.1,10.1,0,0,0-7.176,1.328A34.089,34.089,0,0,0,176.8,1020.1c-1.579,1.794-7.482,1.991-9.329.592-1.148-.879-.754-1.794-.449-2.871a10.926,10.926,0,0,1,11.536-7.787c5.059.682,9.6-.9,14.156-2.655,1.6-.61,2.817-1.6,2.476-3.391s-1.794-2.548-3.7-2.583c-4.7,0-9.1,1.417-13.581,2.422a7.589,7.589,0,0,1-8.325-3.283,9.383,9.383,0,0,1,1.507-9.581c3.588-3.839,7.5-1.148,11.177-.431a61.856,61.856,0,0,0,9.078,1.328c1.92,0,3.355-.5,3.8-2.422s-.771-2.87-2.314-3.445c-4.324-1.651-8.612-3.588-13.025-2.781-6.531.448-10.46-2.009-12.559-7.177-1.059-2.512,0-3.911,2.117-4.055,2.906-.215,5.849-.7,8.45,2.171a28.041,28.041,0,0,0,12.882,7.948,7.391,7.391,0,0,0,3.857.161,4.827,4.827,0,0,0,3.839-3.319,3.857,3.857,0,0,0-2.4-4.378c-4.2-2.458-8.361-4.934-13.348-5.579s-7.176-3.068-8.558-9.652c-1.292-5.9-.161-7.338,5.956-6.8,9.634.843,17.349,4.665,21.727,14.012,2.368,5.042,7.176,8.432,9.832,13.474.646,1.274,1,1.668-.682,2.494-9.814,4.934-10.962,18.246-4.234,25.333.879.915,1.7,2.279,2.781,2.566,3.319.879,2.871,2.368,1.292,4.539-1.041,1.435-1.938,2.96-3.122,4.324a75.747,75.747,0,0,0-7.284,10.424c-5.257,8.486-13.689,11.59-23.377,11.339Zm6.028-22.355c3.588-.2,6.208-3.463,9.921-3.176-2.727,2.189-6.3,2.691-8.7,5.275-.466.5-.807.179-1.112-.215s-.484-1.776-.161-1.794Zm.377-46.055c.807-.574.843.467,1.256.682,2.8,1.471,5.616,2.889,8.773,4.521-2.009,1.041-3.05,0-4.27-.646a38.361,38.361,0,0,0-5.2-2.081c-.574-.2-1.076-.125-1.166-.915a1.6,1.6,0,0,1,.556-1.471Zm8.289-22.014.126-.2h.2a.754.754,0,0,1,0,.215Zm26.284,36.385c3.122,4.324,7.8,6.531,12.218,9.778a54.115,54.115,0,0,0-12.559,9.958c-1.6,1.794-5.382,1.6-7.177-.233-4.754-4.7-4.754-14.927,0-19.538,1.974-1.848,5.9-2.045,7.464.126ZM192.154,1042.8l-.251.251c-.09.09-.215-.179-.215-.269s.161-.161.251-.251.162.216.162.359Zm84.557,66.526a52.568,52.568,0,0,0-1.274,25.243c.466,2.476,0,3.247-2.368,3.929-12.056,3.445-24.2,6.477-36.51,8.863-1.794.377-3.768,2.942-5.382,1.184s.861-3.588,1.238-5.49q3.588-18.461,8.971-36.492c.52-1.794.771-2.906,3.247-2.422a52.874,52.874,0,0,0,32.9-3.8c2.189-.987,2.6-.879,2.619.61a55.439,55.439,0,0,0-3.5,8.468Zm.915,139.744a61.986,61.986,0,0,1,8.576-21.529,35.98,35.98,0,0,1,2.745-3.247,3.785,3.785,0,0,1,4.521-.987,3.588,3.588,0,0,1,2.3,3.588,22.409,22.409,0,0,1-1.633,8.971c-1.615,4.754-3.588,9.383-5.382,14.1-.61,1.651-1.274,2.835-3.014,2.063-2.835.251-5.024-1.4-7.535-1.489C277.356,1250.631,277.446,1249.985,277.625,1249.07Zm2.279,12.021c4.683,3.5,4.97,7.84,1.633,12.039a13.329,13.329,0,0,1-9.473,4.2c-5.382,0-8.235-4.252-6.854-9.545,2.117-8.127,9.563-10.478,14.694-6.638ZM265.982,1217.8c.323-.879.7-2.081,1.686-2.117s1.884,1.023,2.332,1.974a13.134,13.134,0,0,1,1.561,4.306c.538,7.356,2.207,14.64,1.382,22.068a5.759,5.759,0,0,0,3.014,6.118c-.9,1.094-1.956.807-2.781.879-2.243.161-4.934.538-2.673-3.229,1.166-1.938-.5-3.265-1.417-4.755-4.9-7.876-6.477-16.237-3.1-25.189Zm-5.526,13.868.215.251-.233.215c-.09-.09-.215-.161-.215-.251s.144-.09.233-.161Zm-19.646-3.714c.466-1.615,1.023-2.009,2.745-1.453,6.764,2.225,11.877,6.692,16.506,11.805a10.209,10.209,0,0,1,2.745,5.634,10.621,10.621,0,0,0,3.373,7.356,8.127,8.127,0,0,0-7.176,2.8c-.646.771-1.292,1.238-2.279.179-4.485-4.916-10.083-8.881-13.348-14.873-1.991-3.5-3.821-7.087-2.566-11.393Zm-7.284,28.024a13.079,13.079,0,0,1-4.575-13.922c.592-1.794,1.794-1.148,2.853-.915,5.723,1.292,9.76,5.221,13.528,9.294,2.727,2.942,4.934,6.369,8.648,8.253,1.041.52.861,1.059.61,1.974-.61,2.243-2.225,1.076-3.768,1.238a32.3,32.3,0,0,1-17.3-5.867Zm2.35,31.594c-3.014.215-5.257-1.794-7.607-3.427-1.2-.807-.538-1.507-.126-2.368a18.426,18.426,0,0,1,7.769-8.02,54.135,54.135,0,0,1,16.147-6.836c1.938,5.49-2.225,12.29,4.862,16.56a85.946,85.946,0,0,1-21.045,4.144Zm37.8,4.342a108.786,108.786,0,0,1-5.1,14.353c-1.633,3.391-3.588,4.126-8.612,3.14-3.445-.682-4.449-2.171-4.449-7.177.377-4.5,3.014-9.293,5.221-14.245.431-1,1.166-1.328,2.3-.736a18.535,18.535,0,0,0,8.648,1.794c2.709-.125,2.548,1.148,1.991,2.924Zm-16.255-13.492a2.44,2.44,0,0,1-.789-1.9c.215-5.167-.52-10.424,2.243-15.268a9.312,9.312,0,0,1,8.863-5.113,19.861,19.861,0,0,0-6.584,18.175,5.382,5.382,0,0,0,2.243,3.588c4.378,3.158,9.24,4.647,14.353,2.4s8.719-5.759,9.706-11.428a10.765,10.765,0,0,0-6.172-10.765,4.916,4.916,0,0,1-3.373-2.942c3.427.538,6.656-.413,9.473,2.566,1.794,1.956,4.808,2.476,4.79,6.3a23.467,23.467,0,0,1-4.144,12.989c-5.939,9.1-21.278,10.837-30.608,1.453Zm45.14,23.664c2.081,6.351.646,7.876-6.028,7.41-4.97-.341-6.279-4.4-8.414-7.643-2.691-4.091-3.588-9.078-6.3-13.133-.825-1.22.179-1.489,1-2.045,2.548-1.794,5.382-2.942,7.481-5.382a61,61,0,0,1,12.254,20.848Zm7.5-69.54a3.427,3.427,0,0,1,4.467-.7,3.355,3.355,0,0,1,1.507,3.983,29.334,29.334,0,0,1-9.545,16.578c-2.566,2.458-5.167,4.916-7.8,7.3-1.274,1.166-2.153,2.548-1,4.019s2.745.915,4.144,0a32.456,32.456,0,0,1,13.581-5.687c3.211-.466,5.992-.251,7.7,2.853a8.612,8.612,0,0,1-2.1,9.4,6.71,6.71,0,0,1-2.4,1.489c-8.4,1.9-16.47,5.185-25.8,5.813,3.176-6.208,5.508-12.469,2.189-18.192-2.96-5.149-.736-8.432,1.794-12.11a74.186,74.186,0,0,1,13.276-14.693Zm26.912-44.53-.2-.126.251-.269.179.233Zm76,62.112c-4.539,12.828-9.06,25.656-14.6,38.089a148.272,148.272,0,0,1-12.81,22,8.27,8.27,0,0,0-1.722,3.445c-.09.718.144,1.489-.933,1.435-.807,0-.7-.682-.736-1.292-.161-2.4-1.794-4.037-3.14-5.813a124.762,124.762,0,0,1-15.106-28.419c-5.077-12.756-9.545-25.728-13.868-38.735a111.235,111.235,0,0,1-3.893-21.135c-.143-1.166-.2-2.35-.359-3.588-.789-5.956.287-7.41,6.208-8.7,1.507-.323,1.794.162,1.92,1.543a9.652,9.652,0,0,0,1.507,5.005c2.117,3.355,4.9,4.431,8.361,2.458a20.49,20.49,0,0,0,6.531-4.826c1.292-1.669,2.476-1.687,4.019,0a11.7,11.7,0,0,0,17.242.108c1.435-1.6,2.637-2.01,3.983-.215a19.322,19.322,0,0,0,5.023,3.929c5.382,3.588,10.406,1.794,11.141-4.593.484-4.18,2.081-3.965,4.808-2.422,1.668.951,4.431.7,4.378,3.588a178.875,178.875,0,0,1-8.038,38.2Zm14.353-47.185a3.1,3.1,0,0,1-4.485,3c-.987-.323-2.1-.359-3.122-.61-5.382-1.292-8.863-3.857-9.311-10.137-.305-4.342-2.978-8.2-5.382-11.877a3.7,3.7,0,0,0-3.911-1.956,4.791,4.791,0,0,0-3.588,3.588,9.777,9.777,0,0,0,1.256,7.176,34.338,34.338,0,0,0,7.589,10.657c1.794,1.633,2.1,7.284.718,9.312-.825,1.22-1.794.879-2.8.592a11.124,11.124,0,0,1-7.894-11.446c.664-5.2-.9-9.85-2.763-14.5-.61-1.525-1.633-2.709-3.588-2.207a3.176,3.176,0,0,0-2.35,3.588c-.09,4.808,1.417,9.329,2.512,13.9a7.715,7.715,0,0,1-3.265,8.073,9.671,9.671,0,0,1-9.616-1.346c-4.019-3.588-1.274-7.5-.556-11.159a56.2,56.2,0,0,0,1.4-9.455,3.122,3.122,0,0,0-2.332-3.588c-1.794-.5-2.924.646-3.588,2.189-1.561,4.091-3.355,8.145-2.763,13.635,2.081,5.149-1.794,8.361-5.956,11.411-1.112.825-2.655,1.794-3.947.987a4.252,4.252,0,0,1-1.633-4,9.132,9.132,0,0,1,2.763-7.177,28.49,28.49,0,0,0,7.517-12.344,7.284,7.284,0,0,0,0-4.539,4.737,4.737,0,0,0-3.427-3.337,3.75,3.75,0,0,0-3.929,1.938,35.884,35.884,0,0,0-5.544,11.877c-1.669,7.589-2.835,8.971-10.191,10.424-5.777,1.166-7.087.126-6.584-5.831.807-9.652,4.575-17.4,13.922-21.781,4.952-2.314,8.289-7.051,13.169-9.652,1.794-.969,2.063-.969,3.14.969a16.344,16.344,0,0,0,24.992,3.768c1.417-1.292,3.247-2.44,3.588-4.719.144-1.13.825-1.274,1.794-.574.664.484,1.471.789,2.117,1.31,5.956,4.844,12.864,8.5,18.587,13.546s7.894,12.6,7.41,20.346Zm-20.614-6.279c-.664.359-1.794.431-1.794-.144-.215-3.588-3.229-6.154-3.176-9.778,2.35,2.709,2.817,6.423,5.49,8.863.323.431-.072.879-.574,1.113Zm-47.831-1.041c2.691-2.44,3.14-6.172,5.382-8.971.341,3.714-3.032,6.19-3.1,9.8,0,.556-1.166.5-1.794.161s-.951-.574-.538-.933Zm14.8-34.339a44.85,44.85,0,0,0,9.347-11.931c3.1,4.916,5.939,9.563,10.3,13.061,1.686,1.346,1.292,5.382-.646,6.871-6.351,4.79-12.559,5.059-19.179,0a5.382,5.382,0,0,1,.126-7.948Zm55.492,27.037-.574-.251c-.3-.144-.323-.341,0-.413a2.762,2.762,0,0,1,.843,0Zm36.941,88.414c-5.741-1.364-11.464-2.871-17.152-4.431a8.253,8.253,0,0,1-6.566-7.786c-.2-4.952,2.709-7.374,7.661-6.62a31.844,31.844,0,0,1,13.079,5.077c.484.323.969.682,1.471.969,1.346.789,2.817,1.13,3.8-.3s.323-2.709-.9-3.75a103.614,103.614,0,0,1-11.913-11.715,25.926,25.926,0,0,1-5.58-12.021,3.445,3.445,0,0,1,1.525-4.288,3.391,3.391,0,0,1,4.431.789,66.969,66.969,0,0,1,15.071,17.78,7.069,7.069,0,0,1,0,7.481,17.708,17.708,0,0,0-.538,13.42c.592,2.009,1.489,3.947,2.368,6.243a59.755,59.755,0,0,1-6.818-.789Zm17.941,12.29c-3.211,5.508-4.9,11.787-8.666,17.044-1.974,2.763-8.7,4.826-11.518,3a3.122,3.122,0,0,1-1.148-3.158,22.23,22.23,0,0,1,2.96-9.455c2.924-5.257,5.544-10.765,10.137-15.035a31.738,31.738,0,0,0,7.41,5.239c1.077.754,1.543,1.077.754,2.422Zm-2.314-8.217c-5.921-4.288-8.038-10.765-7.786-18.138.09-2.924,2.889-2.942,4.055-4.414,2.422-3.05,5.382-2.835,8.5-3.05a2.453,2.453,0,0,1,.718.251,6.117,6.117,0,0,1-2.512,2.261c-7.338,4.2-8.343,12.559-2.3,18.479,3.732,3.678,7.876,5.974,13.4,4.719,9.1-2.081,10.549-6.441,8.54-15.2a13.061,13.061,0,0,0-2.781-5.382c-1.184-1.417-2.35-2.853-3.588-4.36,6.674.52,10.962,5.131,11.3,12.11a18.192,18.192,0,0,0,0,3.588c1.561,5.777-1.794,8.486-6.279,10.765a19.574,19.574,0,0,1-21.35-1.579Zm24.454,28.58c-4.862,1.041-6.62.359-8.576-3.086-2.619-4.593-3.75-9.652-5.275-14.622-.538-1.794-.574-2.763,1.9-2.781a19.859,19.859,0,0,0,8.666-1.669c1.059-.538,1.794-.5,2.35.574,2.243,4.934,4.772,9.76,5.382,15.25-.036,3.283-1,5.616-4.521,6.387Zm29.531-30.966c3.839,4.18,3.409,5.221-1.381,8.02a9.365,9.365,0,0,1-6.854,1.059c-5.849-1.31-11.985-1.4-18.3-4.252,6.154-3.14,4.073-8.414,4.306-12.9.161-3,.556-3.588,3.714-2.566,6.8,2.476,13.456,5.239,18.444,10.693Zm-1.633-37.282c1.974-.61,2.96-.251,3.158,2.171.628,7.858-1.364,11.518-8.558,14.909a30.661,30.661,0,0,1-13.815,3.588c-.484,0-1.184.2-1.884.233-1.112,0-1.256-.861-1.579-1.615s-.466-1.166.215-1.525c6.549-3.319,9.491-10.478,15.483-14.353a27.26,27.26,0,0,1,6.907-3.355Zm-11.357-14.676c1.956-.843,3,.807,2.924,5.382a12.649,12.649,0,0,1-2.386,6.531c-3.14,4.665-6.1,9.563-11.07,12.756-3.373,2.171-4,1.507-7.822.9-4.683-.754-2.368-2.386-1.92-4.79,2.1-11.464,10.549-16.6,20.2-20.722Zm-29.675,16.99c-.771-7.32.969-14.479,1.489-21.709.179-2.332,1.023-5.759,3.714-5.849,2.207,0,2.978,3.409,3.158,5.382.718,7.7.395,15.358-4.593,21.924-1.184,1.561-2.386,3.176-1.112,5.131,1.938,2.942,0,2.763-1.991,2.709a31,31,0,0,1-3.391-.341c2.8-1.9,2.942-4.521,2.655-7.194ZM488.9,1259.6a8.612,8.612,0,0,1,10.765,5.149c.951,2.26,2.637,4.4,1.543,7.176a7.679,7.679,0,0,1-7.446,5.275,12.075,12.075,0,0,1-11.321-8.54c-1.076-2.888,2.512-7.876,6.387-8.934Zm-12.218-35.649a23.323,23.323,0,0,1,5.974,8.289,66.384,66.384,0,0,1,5.651,16.721c.215,1.041.287,1.651-.825,1.687-2.512.09-4.665,1.794-7.3,1.435-.987.161-2.009.538-2.548-.951-2.494-7.069-5.777-13.869-7.176-21.26a10.173,10.173,0,0,1,0-3.588,3.75,3.75,0,0,1,6.226-2.332Zm10.065-89.939a2.835,2.835,0,0,1-2.458,2.583c-1.9.413-2.35,1.794-.789,3.032s.969,1.956.5,3.319c-4.055,11.967-9.652,23.323-12.559,35.757a124.176,124.176,0,0,0-4.091,26.678,3.588,3.588,0,0,0,.646,2.35c.556.7,1.094,1.381,0,2.009a1.614,1.614,0,0,1-2.225-.484c-6.692-8.235-16-13.133-24.436-19.125a75.356,75.356,0,0,0-11.177-6.89c-3.8-1.794-7.607-3.983-9.921-7.858a3,3,0,0,0-2.655-1.615c-4.2.323-6.6-2.584-9.329-4.934-3.319-2.853-6.979-5.275-10.442-7.948-5.526-4.306-8.827-10.011-11.949-15.95-.7-1.346-1.256-2.62-3-2.584s-2.261,1.328-2.889,2.709a48.118,48.118,0,0,1-18.8,21.009c-1.884,1.184-3.247,3.176-5.131,4.324-2.422,1.489-4.414,4.126-7.894,3.427a2.728,2.728,0,0,0-2.117,1.112c-4.378,6.854-12.2,8.809-18.408,13.007-8.235,5.562-16.147,11.482-24.31,17.206a14.619,14.619,0,0,0-3.211,3.714c-1.256,1.794-2.4,1.238-4.252,0,3.014-.843,2.637-2.817,2.548-4.88-.825-18.354-6.477-35.523-13.294-52.352-1.059-2.6-2.009-5.221-2.942-7.876-.61-1.794-1.471-3.229.7-4.557.664-.413.825-1.794-.2-2.081-5.508-1.651-3.911-6.459-4.234-10.047a49.212,49.212,0,0,1,3.337-21.529c.825-2.3,2.1-4.432,3.086-6.656.61-1.4,1.4-2.889,0-4.252s-2.709-.5-3.983,0c-6.836,3.211-13.761,6.064-21.529,6.351a56.569,56.569,0,0,1-13.707-.646,2.817,2.817,0,0,1-2.584-2.44c-.395-1.9-1.794-2.368-3.014-.807s-1.956.969-3.337.52c-11.877-3.965-23.18-9.545-35.434-12.4A139.182,139.182,0,0,0,174.356,1081a3.14,3.14,0,0,0-3.445,2.6c-1.364-1.794-1.92-3.122-.341-4.36,7.176-5.651,11.464-13.689,16.685-20.919a108.485,108.485,0,0,0,9.437-15.035,21.046,21.046,0,0,1,7.5-9.329,3.139,3.139,0,0,0,1.794-2.96c-.449-3.086,1.417-5.078,3.05-7.177,4.2-5.382,8.253-10.765,12.846-15.878,3.588-3.821,8.289-6.136,12.918-8.468,1.346-.664,2.619-1.256,2.584-2.978s-1.328-2.279-2.709-2.906a48.12,48.12,0,0,1-21.009-18.8c-1.184-1.794-3.176-3.247-4.324-5.131-1.489-2.422-4.144-4.414-3.427-7.894a2.727,2.727,0,0,0-1.112-2.117c-6.853-4.36-8.737-12.236-13.025-18.408-5.382-7.75-10.765-15.591-16.47-23.072a34.933,34.933,0,0,0-4.683-4.252,1.794,1.794,0,0,1-.574-2.512c.736-1.094,1.381-.323,2.027.161a4.88,4.88,0,0,0,3.445.448c16.883-.789,32.8-5.634,48.441-11.518,3.965-1.489,7.517-3.965,11.823-4.7,1.794-.287,3.427-1.507,4.88.736a1.166,1.166,0,0,0,2.045-.341c1.561-5.382,6.3-3.875,9.742-4.162,10.137-.879,19.556,2.153,28.58,6.566,1.238.592,2.673,1.2,3.965-.108s.628-2.727,0-3.965c-3.355-6.925-6.172-14.03-6.459-21.834a74.943,74.943,0,0,1,.646-13.725c.431-2.781,3.839-1.471,4.126-3.75.233-1.794-2.494-2.153-1.471-4.862,4.467-11.805,9.67-23.323,12.559-35.721a128.815,128.815,0,0,0,4.126-26.912,2.727,2.727,0,0,0-.771-2.279c-.538-.5-2.368-.556-.754-1.794a1.794,1.794,0,0,1,2.745.287c6.656,7.679,15.465,12.559,23.628,18.39a97.425,97.425,0,0,0,12.666,7.84,21.529,21.529,0,0,1,9.6,7.7,3.032,3.032,0,0,0,2.655,1.6c4.18-.3,6.638,2.548,9.311,4.934,3.265,2.906,6.907,5.382,10.37,8,5.634,4.234,8.737,9.975,11.985,15.77.718,1.31,1.184,2.655,2.906,2.709s2.368-1.184,3-2.583a47.67,47.67,0,0,1,18.713-20.83c2.476-1.561,4.539-3.75,6.871-5.544,1.651-1.274,3.247-2.655,5.669-2.207a3.355,3.355,0,0,0,3.283-1.794c2.44-3.929,6.459-5.867,10.262-8.02a215.738,215.738,0,0,0,32.545-22.642c1.274-1.059,1.7-2.835,3.409-3.463a1.561,1.561,0,0,1,1.633,0c.449.323.61.843.287,1.2-2.494,2.835-1.148,6.387-.879,9.2a127.381,127.381,0,0,0,4.252,22.086,246.957,246.957,0,0,0,8.773,25.118c1.112,2.727,2.189,5.382,3.086,8.217.538,1.794,1.489,3.229-.7,4.575-.664.395-.843,1.794.179,2.081,5.526,1.633,3.947,6.441,4.252,10.029.9,10.173-2.225,19.538-6.638,28.562a2.925,2.925,0,0,0,.108,3.588c1.4,1.435,2.871.7,4.234,0,6.943-3.319,14.066-6.118,21.852-6.387a49.2,49.2,0,0,1,13.366.754c1.076.269,2.045.52,2.314,1.794.5,2.476,1.7,3.176,3.5,1.058.987-1.166,1.794-.556,2.781-.287,8.145,2.153,15.555,6.226,23.521,8.971a190.487,190.487,0,0,0,28.526,6.943,93.973,93.973,0,0,0,10.926.987c1.561,0,2.978-3.14,4.091-.538.736,1.794-1.794,2.62-2.942,3.839a209.661,209.661,0,0,0-18.623,25.441c-2.8,4.234-5.239,8.737-7.787,13.133a15.754,15.754,0,0,1-4.683,4.808c-1.13.825-2.207,1.884-1.991,3.175.628,3.588-1.938,5.992-3.839,8.056-3.588,3.929-6.441,8.45-9.868,12.559-4.18,4.97-9.581,7.876-15.017,10.89-1.292.718-2.637,1.184-2.673,2.906s1.2,2.35,2.6,2.978a48.119,48.119,0,0,1,21.063,18.749c1.507,2.368,3.588,4.4,5.275,6.62,1.471,1.794,2.978,3.588,2.494,6.387a2.906,2.906,0,0,0,1.6,2.637c4.4,2.87,6.3,7.517,8.809,11.823a224.662,224.662,0,0,0,14.03,20.973c3.427,4.611,6.423,9.6,11.106,13.115a1.794,1.794,0,0,1,.215,2.745c-1.274,1.579-1.22-.395-1.794-.843a3.7,3.7,0,0,0-2.673-.7,124.714,124.714,0,0,0-20.955,2.978,172.85,172.85,0,0,0-31.666,10.191c-2.96,1.2-5.831,2.422-8.971,3.355-1.7.5-2.942,1.076-4.234-.736a1.256,1.256,0,0,0-2.3.341c-1.633,5.382-6.369,3.7-9.8,4.019a49.806,49.806,0,0,1-21.529-3.265c-2.4-.861-4.611-2.261-6.961-3.265-1.256-.556-2.673-1.22-3.965,0s-.592,2.691,0,3.965c2.942,6.961,6.244,13.8,6.441,21.529a59.421,59.421,0,0,1-.7,13.922Zm48.064,14.694c-1.561,1.435-3.391-.9-5.185-1.256q-18.273-3.633-36.151-8.809c-2.458-.718-3.409-1.238-2.853-4.216a52.03,52.03,0,0,0-4.019-32.186c-.448-.969-1.489-2.117.431-2.584l3.714,1.579a51.561,51.561,0,0,0,29.926,3.1c2.888-.538,3.588.233,4.27,2.781,3.427,11.931,6.387,23.969,8.791,36.151.359,1.92,2.924,3.786,1.076,5.49Zm19.735,29.962a41.049,41.049,0,0,1-12.2-18.749c-.43-1.435-1.292-3.588-.664-4.342,1.13-1.274,3.068,0,4.557.466,11.016,3.229,18.569,10.5,24.543,20.112,2.655,4.252,3.588,8.791,5.634,13.761a48.44,48.44,0,0,1-21.888-11.2Z" transform="translate(-1496.957 16694.229)" fill="#ff4c4c"/>
    <path id="Path_1170" data-name="Path 1170" d="M357.248,884.577a1.694,1.694,0,0,0,0-.287.681.681,0,0,0-.108.287h.108Z" transform="translate(-1231.392 16890.883)" fill="#ff4c4c"/>
    <path id="Path_1171" data-name="Path 1171" d="M176.43,703.756h0a.538.538,0,0,0,.323-.126,1.363,1.363,0,0,0-.323.108Z" transform="translate(-1374.896 16747.418)" fill="#ff4c4c"/>
    <path id="Path_1172" data-name="Path 1172" d="M89.929,790.26a3.59,3.59,0,0,0-.179.395.448.448,0,0,0,.215-.377h0Z" transform="translate(-1443.73 16816.213)" fill="#ff4c4c"/>
    <path id="Path_1173" data-name="Path 1173" d="M270.36,703.56a.4.4,0,0,0,.251.215h0a.752.752,0,0,0-.251-.215Z" transform="translate(-1300.305 16747.363)" fill="#ff4c4c"/>
    <path id="Path_1174" data-name="Path 1174" d="M357.19,790.26h0a.5.5,0,0,0,.2.395,2.3,2.3,0,0,0-.161-.395Z" transform="translate(-1231.352 16816.213)" fill="#ff4c4c"/>
    <path id="Path_1175" data-name="Path 1175" d="M393.9,950.048c.915-4.934,1.686-9.634,5.562-13.707,7.751-8.145,8.073-16.021,2.1-25.728-3.409-5.526-6.764-11.052-12.738-14.353-1.543-.879-3.588-2.4-.449-4.79a55.62,55.62,0,0,0,13.438-15.663c5.669-9.311,4.593-19.376-3.3-26.768a10.407,10.407,0,0,1-3.768-7.536c-.108-3.588-.413-7.374-2.745-10.137-4.647-5.49-9.814-10.442-17.941-9.312-4.826,0-5.759-.431-6.513-3.086-1.471-5.185-8.45-11.985-13.671-13.725-1.274-.431-3.7-.538-3.176-2.96a32.879,32.879,0,0,0,.126-4.593c.5-8.307-6.459-17.3-14.658-18.784a26.267,26.267,0,0,1-13.653-5.849c-6.387-5.562-14.353-8.468-22.624-3.768-6.226,3.588-12.361,7.32-16.739,13.348-3.337,4.593-4.055,4.755-6.226,1.364-4.144-6.4-10.514-10.011-16.452-14.191-7.733-5.382-19.125-1.794-25.4,4.2a11.913,11.913,0,0,1-8.056,4.073,16.488,16.488,0,0,0-10.029,3.086c-6.244,5.257-10.3,11.59-8.719,20.058.556,2.906-1.238,3.588-2.745,3.947-6.513,1.7-10.155,6.89-13.456,11.841s-2.709,5.382-8.5,5.005c-7.7-.5-17.152,6.764-18.461,14.353-.879,5.113-1.938,9.76-5.849,14.03-5.382,5.849-8.127,13.51-4.485,21.368a54.54,54.54,0,0,0,16.147,20.148c2.171,1.686,1.651,2.44,0,3.588a41.536,41.536,0,0,0-12.182,13.061c-2.4,3.714-5.382,7.176-5.275,12.128a24.759,24.759,0,0,0,7.176,17.528,10.766,10.766,0,0,1,3.732,7.553,16.362,16.362,0,0,0,3.14,10.352c5.185,6.136,11.428,10.155,19.735,8.666,3.229-.574,3.588,1.31,4.288,3.158A22.444,22.444,0,0,0,203.743,981c3.678,1.794,5.185,3.05,4.557,6.818v1.794c-.5,7.661,6.889,16.739,14.353,18.444,3.965.9,8.737-.179,11.662,3.821a16.7,16.7,0,0,0,6.889,5.077c6.854,3.14,13.474,4.127,20.435-.628a71.1,71.1,0,0,0,16.614-14.514c1.023-1.292,1.651-1.4,2.691,0a50.646,50.646,0,0,0,13.1,12.164c4.18,2.6,8,6.028,13.42,5.741a24.562,24.562,0,0,0,16.309-6.674,12.792,12.792,0,0,1,8.648-4.252,16.434,16.434,0,0,0,10.549-3.588c5.562-5.185,9.383-11.159,7.966-19.036-.592-3.3,1.112-3.893,3.3-4.5,4.683-1.292,11.931-8.719,13.474-13.582.431-1.346.52-3.714,2.871-3.283,1.686.287,3.3,0,4.952.144C383.316,965.155,392.43,957.96,393.9,950.048ZM365.536,830.614c-.287,5.58-2.584,8.7-9.258,12.2-.664-4.736,3.857-12.361,7.894-13.689C365.805,828.587,365.59,829.556,365.536,830.614Zm-41.265-47.993c1.651,6.172-6.656,14.12-11.249,15.842a2.565,2.565,0,0,1-2.942-.7,2.87,2.87,0,0,1-.108-3.337,23.683,23.683,0,0,1,8.361-8.971,14.03,14.03,0,0,1,5.938-2.835Zm-75.64,11.231c.789,1.292,1.453,2.942-.126,4.18a3.176,3.176,0,0,1-3.965-.2c-5.49-3.588-10.1-7.733-10.208-15.447a26.911,26.911,0,0,1,14.3,11.464Zm-55.008,35.272c.718-.556,1.31.126,1.794.538a16.4,16.4,0,0,1,7.661,13.33c-5.9-2.494-9.222-6.082-9.688-11.895C193.409,830.417,192.925,829.627,193.624,829.125Zm-.251,126.79A12.559,12.559,0,0,1,202.7,944.02c.538,4.539-4.037,12.2-8,13.438-1.669.52-1.381-.52-1.328-1.543Zm41.265,47.939c-1.669-6.01,6.6-13.958,11.231-15.752a2.637,2.637,0,0,1,2.96.664,2.835,2.835,0,0,1,.126,3.355,22.84,22.84,0,0,1-8.361,8.971,11.07,11.07,0,0,1-5.974,2.781Zm75.8-10.926c-.807-1.31-1.6-2.888-.2-4.216s3-.7,4.521.269c5.382,3.463,9.491,7.715,9.975,15.34a28.382,28.382,0,0,1-14.317-11.392Zm53.68-35.523c-3.247-1.22-8.235-8.36-8.235-11.841,0-1.238,0-2.135,1.794-1.274a13.563,13.563,0,0,1,7.93,11.751c.036,1.184.018,1.938-1.507,1.364Zm8.971,3.229c-2.171-.287-3.158-.951-3.194-3.265-.126-8.271-3.839-14.209-11.59-17.547-3.588-1.6-6.477-.179-6.62,3.893-.251,7.625,4.109,12.7,9.724,17.08,1.076.825,3.445.395,3.211,2.153-.305,2.279-.736,4.934-2.745,6.4a27.254,27.254,0,0,0-6.208,6.225c-1.453,2.063-4.126,2.225-6.369,2.871-1.507.449-1.13-1.148-1.579-1.794-3.965-6.279-9.078-10.926-16.954-11.088-5.006-.108-6.477,2.584-4.467,7.177a17.3,17.3,0,0,0,16.416,11c3.032,0,3.768,1.2,4.18,4.2,1.292,9.491-7.733,16.542-16.147,17.134-1.956.144-1.794-1.166-2.117-2.512-1.794-8.45-6.387-14.622-14.658-17.69a5.687,5.687,0,0,0-7.015,1.794,6.172,6.172,0,0,0-.287,7.338,34.4,34.4,0,0,0,15.627,13.868h.5l-.5.413c-1.6,3.821-9.85,7.822-14.784,7.392-7.7-.682-12.954-5.508-18.174-10.406a75.733,75.733,0,0,1-5.293-5.705c-1.417-1.633-2.566-3.229-1.4-5.741.628-1.364.52-3.588-2.332-2.53a2.243,2.243,0,0,1-1.7,0c-2.853-1.077-2.942,1.184-2.314,2.547a4.593,4.593,0,0,1-1.166,5.382,56.672,56.672,0,0,1-16.99,14.515c-8.235,4.18-14.676,1.022-20.184-3.445-1.794-1.453-.933-2.62.718-3.588a41.859,41.859,0,0,0,10.765-8.54,2.637,2.637,0,0,1,2.117-2.458c1.184-2.817,2.924-5.58.879-8.7s-6.854-3.588-10.765-1.023c-6.19,4.144-10.442,9.545-11.375,17.134a1.794,1.794,0,0,1-2.117,1.794c-8.468-.628-17.439-7.769-16.057-17.17.395-2.655.718-4.055,3.839-4.109,8.145-.126,13.833-4.162,17.1-11.662,1.507-3.481,0-6.172-3.768-6.513-5.634-.5-9.975,2.279-13.922,5.813-1.22,1.076-2.063,2.6-3.247,3.732s-.484,3.588-2.4,3.355c-2.368-.377-5.059-.771-6.584-3.068a20.684,20.684,0,0,0-5.741-5.705c-2.243-1.543-2.3-4.306-3.1-6.62-.215-.646.359-.915.969-1.184,5.939-2.548,9.365-7.32,11.572-13.151a4.739,4.739,0,0,0,.466-1.687c0-2.6.556-5.382-1.92-7.176s-4.754,0-6.871,1.148a17.3,17.3,0,0,0-9.383,16.039c0,2.853-1.22,3.427-3.839,3.7-10.46,1.148-16.309-6.871-17.385-15.878-.269-2.225,1.166-1.991,2.619-2.314,8.271-1.794,14.353-6.351,17.475-14.353a5.759,5.759,0,0,0-1.794-7.3,6.459,6.459,0,0,0-7.643,0,35.219,35.219,0,0,0-12.092,12.7c-1.9,3.14-2.494,3.194-4.719.305-6.118-7.93-5.9-14.5,0-23.2a67.007,67.007,0,0,1,11.7-12.648c1.615-1.435,3.194-2.512,5.741-1.417,1.7.754,3.158.413,2.619-2.691-.413-2.332.413-4.414-3.068-3.875-1.22,1.794-2.386,2.045-3.481-.108a44.851,44.851,0,0,1-12.559-12.2c-2.709-3.588-5.077-7.266-5.382-12.021-.413-5.974,2.476-10.406,6.082-14.586,1.292-1.489,1.794-.359,2.4.843a35.7,35.7,0,0,0,11.2,13.043,10.6,10.6,0,0,0,4.79,2.225,5.759,5.759,0,0,0,6.064-2.925,8.307,8.307,0,0,0-1.023-8.719c-4.055-6.226-9.509-10.442-17.116-11.375-1.292-.144-1.794-.753-1.7-2.117,1-8.845,6.871-17.3,17.744-16,2.279.287,3.445.789,3.481,3.337a17.941,17.941,0,0,0,11.626,17.511c3.588,1.579,6.459.108,6.584-3.965.251-7.643-4.162-12.684-9.76-17.062-1.059-.825-3.427-.359-3.176-2.171.323-2.279.736-4.916,2.745-6.387a27.344,27.344,0,0,0,6.226-6.226c1.435-2.045,4.127-2.135,6.351-2.87.646-.215.969.2,1.256.843a21.637,21.637,0,0,0,12.774,11.5,11.626,11.626,0,0,0,6.6.448c3.158-.628,4.073-3.211,2.727-6.3-3.265-7.535-8.971-11.554-17.1-11.68-3.1,0-3.445-1.453-3.839-4.108-1.382-9.4,7.589-16.542,16.057-17.17,1.938-.144,1.884,1.076,2.153,2.458a22.66,22.66,0,0,0,13.922,17.511c2.8,1.2,5.6,1.13,7.7-1.561s1.669-5.257,0-7.93a7.031,7.031,0,0,1-.466-1.31c-1.13-.448-2.1-1.041-2.117-2.458a41.763,41.763,0,0,0-10.765-8.54c-2.279-1.238-2.1-2.44-.215-3.983,7.41-5.992,15.447-6.674,23.467-.682a83.923,83.923,0,0,1,12.953,11.877,5.544,5.544,0,0,1,1.794,4.126l.5.5-.52.161c-.682,1.238-1.059,3.05.161,3.481a9.132,9.132,0,0,0,5.382,0c1.023-.323.861-2.027.215-3.175-.933-1.669,0-3.014.951-4.216a56.281,56.281,0,0,1,17.941-15.465c5.992-3.068,15.716-.969,19.879,4.073,1.364,1.669.413,2.512-.987,3.3a47.275,47.275,0,0,0-11.5,9.24c.5,1.292-.538,1.453-1.328,1.794-1.148,2.583-2.637,5.149-1.274,8.109,1.615,3.445,6.656,4.5,10.585,1.991,6.333-4.055,10.872-9.473,11.895-17.223.2-1.382.556-2.189,2.189-2.045,8.594.735,17.4,7.571,15.986,17.564-.341,2.422-.807,3.588-3.588,3.678a17.762,17.762,0,0,0-17.241,11.464c-1.686,3.875-.215,6.638,4.073,6.746a17.942,17.942,0,0,0,16.506-9.814c2.225-3.983,4.665-3.588,6.674-1.7,3.8,3.481,8.522,6.225,10.6,11.375.825,2.063.879,3.086-1.561,4.5-6.279,3.588-10.639,8.971-10.765,16.775,0,4.772,2.655,6.172,7,4.27,7.517-3.283,11-9.114,11.177-17.044,0-2.709,1.22-3.194,3.588-3.588,9.975-1.417,16.829,7.338,17.582,15.968.161,1.938-.987,1.938-2.386,2.207-8.45,1.794-14.64,6.315-17.762,14.568a5.741,5.741,0,0,0,1.991,7.176,6.172,6.172,0,0,0,7.338,0,28.9,28.9,0,0,0,12.81-14.622c.7-1.938,1.92-1.274,2.53-.574,6.333,7.374,9.06,15.16,2.1,24.848a76.854,76.854,0,0,1-12.056,13.115c-1.651,1.435-3.247,2.53-5.759,1.364-1.4-.628-3.588-.448-2.494,2.4a2.1,2.1,0,0,1,0,1.364c-1.2,3.373,1,3.194,2.871,2.44a4.163,4.163,0,0,1,4.575.933,57.791,57.791,0,0,1,15.3,17.941c3.355,6.351.789,17.044-4.808,20.919-.718.5-1.794,1-2.332-.718-2.045-6.082-6.441-10.334-11.518-13.922-3.714-2.619-6.871-2.548-9.383,0s-2.207,6.459,0,9.814c4.126,6.19,9.527,10.46,17.134,11.393,1.292.161,1.884.753,1.794,2.117-.61,8.791-7.015,17.277-17.744,15.9Zm-31,18.731c-5.939-.466-9.76-3.588-12.11-9.347,4.844-.484,11.626,3.588,13.528,7.733.753,1.758-.108,1.7-1.453,1.615ZM215.566,977.57a16.936,16.936,0,0,1,11.267-7.894c1.023-.179,2.763-.52,1.633,1.669-2.476,4.755-6.154,7.733-11.769,7.894-1.489.341-2.117-.143-1.166-1.579Zm-47.1-39.112a28.257,28.257,0,0,1,11.393-14.353c1.31-.807,2.906-1.6,4.216-.162s.682,3-.3,4.521c-3.5,5.436-7.751,9.617-15.34,10.083Zm.395-90.136c6.208-1.4,13.761,6.423,15.752,11.088a2.691,2.691,0,0,1-.484,3.014c-1.148,1.2-2.512.718-3.588.179a23.9,23.9,0,0,1-8.845-8.432,12.111,12.111,0,0,1-2.871-5.759Zm48.208-41.1c5.382.2,8.755,3.068,11.231,7.517.861,1.579.664,2.081-1.13,2.045-3.588,0-10.765-5.059-11.805-8.271-.682-1.866.682-1.381,1.669-1.2Zm126.449,1.453c-1.794,4.144-8.63,8.217-13.563,7.822,2.35-5.705,6.154-8.971,12.092-9.365,1.256-.018,2.225-.179,1.435,1.633Zm46.755,39.74a26.589,26.589,0,0,1-11.949,14.245,2.727,2.727,0,0,1-3.337-.09,2.619,2.619,0,0,1-.682-2.96c1.722-4.521,9.652-12.81,15.932-11.105Zm-.161,89.706c-6.261,1.364-13.8-6.495-15.752-11.124a2.637,2.637,0,0,1,.5-3c1.148-1.22,2.494-.7,3.588-.161a23.484,23.484,0,0,1,8.845,8.432,11.967,11.967,0,0,1,2.781,5.9Z" transform="translate(-1393.418 16797.693)" fill="#ff4c4c"/>
    <path id="Path_1176" data-name="Path 1176" d="M303.181,862.9a7.715,7.715,0,0,0-4.36,8.181c1.453,5.1,6.548,9.886,9.85,9.222a5.006,5.006,0,0,0,1.973-.772c2.781-2.063,4.665-4.682,4.719-7.033C315.255,864.94,308.886,860.581,303.181,862.9Zm7.858,8.7a4.539,4.539,0,0,1-3.319,4.539c-1.292.323-5.167-5.382-4.737-6.979.215-.807.215-2.763,2.189-1.041C308.617,866.537,311.129,867.165,311.039,871.6Z" transform="translate(-1277.778 16873.398)" fill="#ff4c4c"/>
    <path id="Path_1177" data-name="Path 1177" d="M304.77,820.162c6.871.126,10.639-3,10.639-8.773,0-4.27-3.947-8.971-7.553-9.078s-9.222,6.871-9.186,10.944C298.706,816.376,301.989,820.108,304.77,820.162Zm3.265-13.51a5.813,5.813,0,0,1,3.193,4.826c-.395,1.794-.879,4.521-2.924,3.768-1.794-.646-5.275,2.045-5.382-2.261C302.94,811.191,306.923,806.168,308.035,806.652Z" transform="translate(-1277.824 16825.781)" fill="#ff4c4c"/>
    <path id="Path_1178" data-name="Path 1178" d="M197.949,912.626c-4.306,1.13-9.634,6.118-9.437,8.971a5.777,5.777,0,0,0,.969,3,10.28,10.28,0,0,0,7.033,4.557c7.661,0,12.326-7.177,9.2-12.72a7.642,7.642,0,0,0-7.768-3.8Zm-.664,12.344a5.382,5.382,0,0,1-4.5-3.283c-.413-1.059,4.844-4.934,6.459-4.934,1.059,0,2.189.269,2.225,1.435.233,5.167-.664,6.692-4.18,6.782Z" transform="translate(-1365.306 16913.32)" fill="#ff4c4c"/>
    <path id="Path_1179" data-name="Path 1179" d="M188.482,760.756c.161,3.427,7.32,9.1,11.213,8.863a7.177,7.177,0,0,0,6.279-8.056c-.377-5.939-3.588-9.06-9.114-8.648C192.716,753.221,188.338,757.33,188.482,760.756Zm4.378-.682a5.382,5.382,0,0,1,5.634-2.853c1.794.359,3.337,1.22,3.086,3.588-1.794.969,1.794,5.024-2.691,4.5C196.842,765.1,192.2,761.115,192.859,760.075Z" transform="translate(-1365.329 16786.527)" fill="#ff4c4c"/>
    <path id="Path_1180" data-name="Path 1180" d="M151.473,819.685a7.5,7.5,0,0,0,4.091-8.253c-1.633-5.149-6.315-9.634-9.581-9.06a5.094,5.094,0,0,0-2.3.861,10.388,10.388,0,0,0-4.575,6.979C138.915,817.891,145.607,822.43,151.473,819.685Zm-8.091-8.576a6.28,6.28,0,0,1,3.032-4.647c1.435,0,5.149,5.023,5.149,6.566,0,1.059-.269,2.171-1.435,2.207-5.705.251-7.159-.646-6.836-4.054Z" transform="translate(-1404.535 16825.791)" fill="#ff4c4c"/>
    <path id="Path_1181" data-name="Path 1181" d="M266.521,921.512c0-3.229-6.746-8.971-10.765-8.971-3.247-.108-7.176,3.265-7.176,6.19,0,7.876,2.8,9.76,8.594,10.531C261.713,929.262,266.557,925.226,266.521,921.512Zm-4.342,0c-.61,2.3-2.637,3.05-4.862,3.588-1.525-.718-4.772-.592-3.8-2.727.825-1.794-2.063-5.239,2.063-5.6,1.489-.143,6.907,3.66,6.6,4.754Z" transform="translate(-1317.601 16913.316)" fill="#ff4c4c"/>
    <path id="Path_1182" data-name="Path 1182" d="M257.166,769.444c4.306-1.13,9.616-6.136,9.437-8.971a5.579,5.579,0,0,0-.987-3,10.227,10.227,0,0,0-7.015-4.557c-7.661,0-12.344,7.177-9.2,12.72a7.625,7.625,0,0,0,7.768,3.8Zm.753-12.254a4.378,4.378,0,0,1,4.378,3.373c.233,1.184-5.149,4.88-6.62,4.755s-2.494-.377-1.435-2.44c-1.758-3.535-.789-5.885,3.678-5.687Z" transform="translate(-1317.737 16786.561)" fill="#ff4c4c"/>
    <path id="Path_1183" data-name="Path 1183" d="M147.711,862.688c-5.956.359-8.971,3.588-8.63,9.132.3,4.126,4.467,8.522,7.876,8.343s8.971-7.607,8.827-11.177a7.177,7.177,0,0,0-8.074-6.3Zm3.588,7.589a16.145,16.145,0,0,1-2.494,3.8c-.718.789-1.507,2.422-2.745,1.633a5.382,5.382,0,0,1-2.781-4.988,3.965,3.965,0,0,1,2.081-3.8,1.8,1.8,0,0,1,.7,0c1.382,0,2.6,1.669,4.288.251.359-.287,1.561,1.866.987,3.1Z" transform="translate(-1404.576 16873.68)" fill="#ff4c4c"/>
    <path id="Path_1184" data-name="Path 1184" d="M311.3,809.346c2.494.592,3.319,2.835,4.97,4.2a5.113,5.113,0,0,0,4.539,1.364c3.409-.718,4.988-3.014,5.221-8.594a9.9,9.9,0,0,0-1.579-6.225,6.6,6.6,0,0,0-6.261-3.319c-2.4,0-3.5,1.687-4.306,3.588a18.444,18.444,0,0,1-3.1,6.225C309.968,807.462,310.183,809.095,311.3,809.346Zm6.925-8.217c.682-1.041,1.794,0,2.637.753a3.445,3.445,0,0,1,1.076,3.588,7.681,7.681,0,0,1,0,1.435c-.305,1.435,0,3.588-1.651,3.911s-3.229-1.651-3.839-3.122C315.476,805.273,316.947,803.013,318.221,801.129Z" transform="translate(-1268.597 16821.365)" fill="#ff4c4c"/>
    <path id="Path_1185" data-name="Path 1185" d="M140.33,800.822c-.807-2.063-1.794-3.965-4.378-4.091a6.656,6.656,0,0,0-6.136,2.942,10.621,10.621,0,0,0-1.794,6.728,15.824,15.824,0,0,0,.771,4.539c1.525,4.288,6.064,5.687,9.1,2.368,1.669-1.794,4.306-2.727,5.382-4.665,1.381-2.619-2.53-4.162-2.6-6.8a3.481,3.481,0,0,0-.341-1.023Zm-4.306,8.648c-.771.484-1.274,1.686-2.3,1.364s-1.238-1.6-1.4-2.637-.251-1.794-.377-2.8a3.965,3.965,0,0,1,1.2-3.588c1.6-1.543,2.835-1.6,3.588.735s2.4,4.97-.718,6.979Z" transform="translate(-1413.36 16821.33)" fill="#ff4c4c"/>
    <path id="Path_1186" data-name="Path 1186" d="M199.559,929.944c-1.794-1.686-2.763-4.252-4.665-5.382-2.655-1.525-4.144,2.548-6.8,2.583a3.739,3.739,0,0,0-1.346.395c-1.956.789-3.7,1.794-3.8,4.2a6.621,6.621,0,0,0,3.158,6.351,10.351,10.351,0,0,0,6.082,1.686,17.4,17.4,0,0,0,4.88-.754C201.371,937.515,202.807,933.012,199.559,929.944Zm-2.584,4.234c-.413,1-1.669,1.148-2.709,1.292l-2.8.341a3.7,3.7,0,0,1-3.247-1.041c-1.686-1.633-1.9-3,.7-3.768,2.261-.664,4.629-2.4,6.584.592.556.861,1.92,1.382,1.471,2.584Z" transform="translate(-1369.751 16922.592)" fill="#ff4c4c"/>
    <path id="Path_1187" data-name="Path 1187" d="M268.573,927.719a18.034,18.034,0,0,1-6.244-3.1,1.633,1.633,0,0,0-2.709.538c-.574,2.476-2.817,3.3-4.18,4.952a5.112,5.112,0,0,0-1.4,4.575c.718,3.409,3.014,4.988,8.594,5.221a9.8,9.8,0,0,0,6.226-1.579,6.6,6.6,0,0,0,3.319-6.261C272.2,929.621,270.529,928.527,268.573,927.719Zm-.592,5.382a3.391,3.391,0,0,1-4.109,2.727,9.275,9.275,0,0,1-1.974-.144c-1.346-.556-3.714.251-3.7-2.171,0-1.794,3.714-3.875,5.382-3.409a5.088,5.088,0,0,1,.951.448c1.31.754,3.857.269,3.445,2.6Z" transform="translate(-1313.338 16922.502)" fill="#ff4c4c"/>
    <path id="Path_1188" data-name="Path 1188" d="M255.659,751.709c1.794,1.687,2.763,4.27,4.665,5.382,2.655,1.507,4.144-2.548,6.8-2.583a3.732,3.732,0,0,0,1.346-.395c1.956-.789,3.7-1.794,3.8-4.216a6.62,6.62,0,0,0-3.176-6.333,10.156,10.156,0,0,0-5.58-1.794,21.805,21.805,0,0,0-5.383.807C253.847,744.138,252.394,748.641,255.659,751.709Zm2.655-4.216c.466-1.507,2.566-1.346,4.055-1.525,3.176-.377,5.921,1.094,5.867,2.8a1.4,1.4,0,0,1-1.31,1.6c-1.974.377-3.839,2.512-5.921.879-1.2-.951-3.319-1.992-2.691-3.678Z" transform="translate(-1313.395 16777.705)" fill="#ff4c4c"/>
    <path id="Path_1189" data-name="Path 1189" d="M186.789,754.08a16.65,16.65,0,0,1,5.939,2.96,1.794,1.794,0,0,0,2.96-.682,11.7,11.7,0,0,1,3.714-4.413,5.382,5.382,0,0,0-.736-8.737,11.609,11.609,0,0,0-5.849-1.328,9.868,9.868,0,0,0-6.746,1.669,6.566,6.566,0,0,0-3.122,6.369C183.075,752.286,184.869,753.291,186.789,754.08Zm.3-5.49c0-1.651,2.225-2.781,5.382-2.691a1.7,1.7,0,0,1,.789,0c1.382.52,3.7-.233,3.786,2.135,0,1.669-3.714,3.911-5.382,3.463a3.95,3.95,0,0,1-.969-.448C189.372,750.366,186.986,751.12,187.094,748.59Z" transform="translate(-1369.754 16777.738)" fill="#ff4c4c"/>
    <path id="Path_1190" data-name="Path 1190" d="M142.465,873.306a11.053,11.053,0,0,1-4.413-3.732,5.867,5.867,0,0,0-2.745-1.794c-2.96,0-4.647.628-5.813,2.243-2.207,3.014-1.794,10.765.52,13.51,3.337,3.965,8.4,3.122,10.334-1.794a13.33,13.33,0,0,1,2.619-5.382,1.794,1.794,0,0,0-.5-3.05Zm-4.88,4.324c-.161.323-.269.664-.431.987-.61,1.238-.251,3.588-2.332,3.229a3.265,3.265,0,0,1-2.853-3.983,15.685,15.685,0,0,1,.09-1.991c.269-1.364.144-3.05,1.435-3.821s1.794.735,2.566,1.381c1.31,1.094,2.494,2.261,1.525,4.2Z" transform="translate(-1413.324 16877.771)" fill="#ff4c4c"/>
    <path id="Path_1191" data-name="Path 1191" d="M313.777,882.228c.807,1.938,1.794,3.714,4.18,3.857a6.62,6.62,0,0,0,6.369-3.122,9.851,9.851,0,0,0,1.7-6.244,15.77,15.77,0,0,0-.861-5.023c-1.525-4-5.382-5.221-8.7-2.53-1.794,1.417-2.817,3.588-5.239,4.4a1.668,1.668,0,0,0-.395,2.745,15.966,15.966,0,0,1,2.942,5.92Zm4.234-8.863c.771-.484,1.274-1.794,2.3-1.364s1.238,1.6,1.381,2.637.269,1.794.377,2.8a3.911,3.911,0,0,1-1.2,3.588c-1.6,1.543-2.817,1.579-3.588-.753S314.889,875.392,318.011,873.365Z" transform="translate(-1268.603 16877.73)" fill="#ff4c4c"/>
    <path id="Path_1192" data-name="Path 1192" d="M328.591,867.836c4.378-5.239,3.176-16.147-5.293-18.174-2.978-.736-6.082,0-9.652-1.059,2.1-1.938,3.588-3.588,5.239-4.808a12.092,12.092,0,0,0,4.862-11.106c-.215-6.064-8.612-12.344-14.353-9.8-2.027.879-4.073,1.794-6.118,2.6-.61.269-1.31.807-1.9,0s0-1.112.215-1.651c.861-2.045,1.794-4.055,2.6-6.118,1.794-4.36,0-8.971-4.79-12.559a11.2,11.2,0,0,0-13.474.449c-2.494,2.3-4.9,4.682-7.446,7.176a9.832,9.832,0,0,1-.466-4.736c-.161-4.5-1.346-8.971-5.6-10.765s-9.616-2.4-13.617,1.687c-1.794,1.794-2.96.915-4.324-.251-5.723-4.934-17.008-3.283-18.587,5.885-.484,2.745.431,5.651-1.094,8.63-1.633-1.794-3.158-3.211-4.449-4.844a12.559,12.559,0,0,0-11.016-5.077c-6.226.143-12.738,8.755-9.993,14.514a25.433,25.433,0,0,0,1.974,4.5c.574.789,1.6,2.3.718,3.193s-2.6,0-3.463-.682a21.29,21.29,0,0,0-5.2-2.117c-3.839-1.489-8.971.9-11.841,5.077s-2.476,10.119.377,13.223c2.35,2.566,4.808,5.024,7.428,7.733a18.951,18.951,0,0,1-5.382.359c-4.844.162-9.222,2.117-11.088,6.477a10.567,10.567,0,0,0,2.35,12.559c1.884,1.687,1.2,3.05-.251,4.593A11.016,11.016,0,0,0,190.7,891.16c2.835.646,5.867-.359,8.971,1.13-1.794,1.668-3.247,3.247-4.916,4.539a12.11,12.11,0,0,0-4.97,11.41c.395,5.957,8.576,12.021,14.245,9.635l6.459-2.745c1.794-.735,2.279-.215,1.543,1.543-.951,2.279-1.974,4.5-2.835,6.8-1.525,4.073.807,9.15,5.113,12.164a11.429,11.429,0,0,0,13.223-.5c2.512-2.35,4.9-4.88,8-8v5.741c0,5.023,2.081,9.491,6.566,11.393a10.873,10.873,0,0,0,12.559-2.44c1.346-1.417,2.566-1.794,4.019,0,4,4.539,9.1,3.821,13.635,1.794s5.562-6.477,5.669-11.124c0-1.543-.556-3.229.861-4.719a63.725,63.725,0,0,1,4.432,4.826,12.164,12.164,0,0,0,11.106,4.88c6.064-.2,12.361-8.594,9.832-14.353-.843-1.92-1.7-3.839-2.476-5.795-.269-.7-1.112-1.489-.2-2.225s1.346,0,1.956.323c2.045.843,4.055,1.794,6.136,2.583,4.2,1.561,8.791-.287,12.218-4.88a11.2,11.2,0,0,0-.431-13.474c-2.279-2.512-4.665-4.916-7.176-7.481,1.561-.861,3.355-.341,5.059-.448,4.36-.251,8.719-1.435,10.442-5.58,1.794-4.485,2.512-9.6-1.651-13.617C326.187,870.438,327.353,869.218,328.591,867.836Zm-20.381-40.78c5.562-2.906,12.756,1.794,11.536,7.769a5.544,5.544,0,0,1-2.512,5.2c-3.911,3.265-7.535,6.871-11.751,9.76-1.2.825-2.171,1.346-3.319,0A28.972,28.972,0,0,0,292.3,842.4c-1.543-.718-2.53-1.794-.7-3.014,5.705-3.965,10.37-9.132,16.614-12.415Zm-31.128-5.185a162.8,162.8,0,0,1,11.2-13.366c1.328-1.561,3.1-.843,4.539-1.274,6.566,0,9.419,5.382,6.979,11.231-2.745,6.584-8.038,11.088-11.841,16.775-1.238,1.794-2.386,1.453-3.265-.448a28.7,28.7,0,0,0-7.392-10.011c-1.184-.951-.987-1.794-.215-3Zm-37.3-16.147a6.656,6.656,0,0,1,8.486-5.831c1.328.3,2.96-1.077,3.8.431a14.907,14.907,0,0,1,2.1,6.549c0,1.794.251,3.768.341,5.651,0,1.543.718,2.583,2.332,2.512s1.992-1.023,2.081-2.4c.144-2.35.251-4.719.574-7.069s.556-4.737,3.373-5.508,5.831-1.166,8.271,1.2a7.84,7.84,0,0,1,2.655,4.9c.126,1.417,0,2.853,0,4.27h0a19.551,19.551,0,0,1,0,3.588,12.738,12.738,0,0,1-1.651,5.382c-1.794,2.261-3.068-.843-4.7-1.238-8.109-1.974-16.147-2.8-23.808,1.346-1.669.9-2.225.771-3-1.112a24.436,24.436,0,0,1-.861-12.72Zm-25.423,4.162c1.956-2.87,8.45-3.821,10.765-1.364a110.358,110.358,0,0,1,11.213,13.312,16.16,16.16,0,0,1,.879,1.687,10.567,10.567,0,0,1-1.059,1.31,29.818,29.818,0,0,0-7.374,9.885c-.861,1.794-1.794,2.35-3.283.538-3.445-4.324-7.033-8.54-10.3-13.007-3.57-4.9-3.642-8.235-.843-12.415Zm-19.52,28.706c-2.243-2.189-1.615-5.382-.646-8.056,1.184-3.158,4.36-4.073,7.715-4.719,2.009.987,4.234,2.009,6.4,3.176,5.006,2.655,8.648,7.176,13.366,10.208,1.6,1.041,1.507,2.207-.359,3.068a29.619,29.619,0,0,0-10.173,7.589c-1.041,1.238-1.974.753-3.032,0a92.918,92.918,0,0,1-13.348-11.339Zm1.974,48.854c-4.485.341-8.217-.215-10.334-4.7a6.387,6.387,0,0,1,4.18-9.347,67.844,67.844,0,0,1,8.109-.825c1.489-.108,2.637-.556,2.655-2.207s-1.166-1.973-2.6-2.279c-3.409-.735-6.925,0-10.37-1.6s-2.709-5.077-2.691-7.177c0-3.427,4.252-6.118,7.984-6.118s7.3-.466,10.872,1.094c1.633.718,2.225,1,1.292,2.924a28.706,28.706,0,0,0,0,26.248c.718,1.489.9,2.153-.969,2.8a17.2,17.2,0,0,1-8.127,1.113Zm11.106,24.561c-2.978,1.938-6.226,4-10.388,1.507a7.553,7.553,0,0,1-3.893-7.751,5.616,5.616,0,0,1,2.476-5.023c3.929-3.211,7.535-6.854,11.751-9.76,1.328-.933,2.35-1.346,3.588.126a26.911,26.911,0,0,0,9.581,7.177c2.207,1,2.189,2.135.377,3.588-4.467,3.265-8.7,7-13.492,10.065Zm27.36,8.325c-2.942,4.055-6.62,7.464-9.67,11.411-1.435,1.794-3.319,1.453-5.239,1.794-5.831,0-9.1-4.826-7.3-10.424s6.028-9.6,9.688-13.9c1.417-1.686,2.207-4.844,4.414-4.754s2.135,3.391,3.427,5.041a23.323,23.323,0,0,0,4.252,5.2c2.763,1.866,2.081,3.373.431,5.562Zm33.048,20.453a6.459,6.459,0,0,1-8.594-4.288,73.271,73.271,0,0,1-.879-8.45c-.108-1.543-.753-2.548-2.368-2.476s-1.794,1.094-2.081,2.422c-.771,3.732.341,7.733-2.045,11.3-.754,1.13-.736,1.328-2.207,1.238-2.207-.144-4.342,1.453-6.728-.269a7.913,7.913,0,0,1-3.75-5.382c-.377-4.324-.754-8.719,1.076-12.953.646-1.525,1.112-1.686,2.53-.987a28.831,28.831,0,0,0,26.912,0c1.256-.628,1.794-.5,2.314.9a16.775,16.775,0,0,1,1.274,8.4C274.193,935.044,273.422,938.937,268.327,940.785ZM260.9,919.615c-4.162-1.669-9.114,1.148-13.869-.951a28.921,28.921,0,0,1-15.358-16.273c-.09-.215,0-.61-.2-.646-3.8-1.094-4.593-5.508-8.307-7.177-8.253-3.588-17.941-12.918-15.537-23.593.843-3.75-.789-7.858,1.22-11.787a30.5,30.5,0,0,1,15.411-13.9h.341c2.081-2.835,5.544-4.485,7.176-7.679,3.588-7.176,8.2-14.1,16.147-15.824,9.186-1.991,19.179-2.35,26.625,5.167a28.921,28.921,0,0,1,6.907,10.334c.161.431,0,1.238.323,1.328,3.588,1.328,4.665,5.49,8.235,7.176,7.589,3.588,14.461,8.737,15.519,17.511,1,8.145,1.9,16.883-4.826,23.772A34.966,34.966,0,0,1,289.569,895c-1.525.664-2.817,1.112-3.176,2.871,0,.341-.09.879-.3.987-5.956,3.1-6.961,9.957-10.98,14.514-1.866,2.153-10.567,6.226-14.138,6.244Zm38.5,10.5c-1.543,2.942-4.126,3.247-7.769,3.283A5.382,5.382,0,0,1,287,930.81c-3.265-3.911-6.889-7.517-9.778-11.769-.807-1.184-1.381-2.135,0-3.319a27.773,27.773,0,0,0,7.374-9.868c1.112-2.422,2.35-1.92,3.588-.161,3.714,5.6,8.863,10.083,11.68,16.488a7.966,7.966,0,0,1-.395,7.93ZM318.024,901.4c1.794,1.453,1.471,3.337,1.794,5.149,0,5.885-4.719,9.078-10.334,7.481-5.9-1.668-9.437-6.405-13.994-9.8-1.794-1.31-4.862-2.171-4.719-4.414s3.391-2.117,5.041-3.391a23.97,23.97,0,0,0,5.2-4.27c1.974-2.763,3.409-2.045,5.687-.412,4.073,3,7.464,6.585,11.393,9.617Zm7.625-16.614a7.84,7.84,0,0,1-4.916,2.62c-1.417.09-2.853,0-4.27,0h0a22.39,22.39,0,0,1-4.252,0,9.618,9.618,0,0,1-4.952-1.794c-1.4-1.525,1.094-2.745,1.489-4.27,2.189-8.2,2.942-16.308-1.274-24.149-.771-1.435-.9-2.045.933-2.8a25.694,25.694,0,0,1,12.989-1.022,6.8,6.8,0,0,1,5.651,8.612c-.395,1.346,1.13,2.924-.395,3.714a15.7,15.7,0,0,1-6.531,2.081c-1.9,0-3.786.251-5.669.341-1.543,0-2.566.7-2.512,2.332s1.023,1.991,2.4,2.081c2.35.144,4.719.251,7.069.574s4.844.538,5.49,3.391,1.292,5.813-1.166,8.253Z" transform="translate(-1370.682 16820.699)" fill="#ff4c4c"/>
  </g>
</svg>
