<svg xmlns="http://www.w3.org/2000/svg" width="62.263" height="62.26" viewBox="0 0 62.263 62.26">
  <path id="Icon_awesome-twitter-square" data-name="Icon awesome-twitter-square" d="M55.592,2.25H6.671A6.673,6.673,0,0,0,0,8.921V57.839A6.673,6.673,0,0,0,6.671,64.51H55.592a6.673,6.673,0,0,0,6.671-6.671V8.921A6.673,6.673,0,0,0,55.592,2.25ZM48.8,24.319c.028.389.028.792.028,1.181,0,12.049-9.173,25.932-25.934,25.932a25.815,25.815,0,0,1-14-4.086,19.2,19.2,0,0,0,2.2.111A18.276,18.276,0,0,0,22.4,43.567a9.127,9.127,0,0,1-8.519-6.323A9.824,9.824,0,0,0,18,37.077a9.115,9.115,0,0,1-7.3-8.95v-.111a9.109,9.109,0,0,0,4.114,1.153,9.1,9.1,0,0,1-4.058-7.588,9,9,0,0,1,1.237-4.6,25.882,25.882,0,0,0,18.79,9.534A9.134,9.134,0,0,1,46.336,18.19a17.862,17.862,0,0,0,5.782-2.2,9.091,9.091,0,0,1-4,5.017,18.14,18.14,0,0,0,5.253-1.418A19.186,19.186,0,0,1,48.8,24.319Z" transform="translate(0 -2.25)" fill="#fff"/>
</svg>
