<svg xmlns="http://www.w3.org/2000/svg" width="93.18" height="65.517" viewBox="0 0 93.18 65.517">
  <path id="Icon_awesome-youtube" data-name="Icon awesome-youtube" d="M92.283,14.751A11.708,11.708,0,0,0,84.045,6.46C76.778,4.5,47.64,4.5,47.64,4.5s-29.138,0-36.4,1.96A11.708,11.708,0,0,0,3,14.751C1.05,22.065,1.05,37.325,1.05,37.325S1.05,52.584,3,59.9a11.534,11.534,0,0,0,8.238,8.159c7.267,1.96,36.4,1.96,36.4,1.96s29.138,0,36.4-1.96A11.534,11.534,0,0,0,92.283,59.9c1.947-7.314,1.947-22.574,1.947-22.574s0-15.26-1.947-22.574ZM38.11,51.179V23.47L62.464,37.325,38.11,51.179Z" transform="translate(-1.05 -4.5)" fill="#fff"/>
</svg>
